<svg width="489" height="512" viewBox="0 0 489 512" fill="none" xmlns="http://www.w3.org/2000/svg">
<path d="M232.091 173.818C264.27 173.818 290.357 199.903 290.357 232.081C290.357 264.259 264.271 290.345 232.091 290.345C199.911 290.345 173.824 264.259 173.824 232.081C173.824 199.903 199.911 173.818 232.091 173.818Z" stroke="#EEEEEE" stroke-width="2"/>
<path d="M232.091 133.337C286.629 133.337 330.841 177.547 330.841 232.082C330.841 286.617 286.629 330.826 232.091 330.826C177.553 330.826 133.342 286.617 133.342 232.082C133.342 177.547 177.553 133.337 232.091 133.337Z" stroke="#EEEEEE" stroke-width="2"/>
<path d="M232.092 84.4119C313.651 84.4119 379.769 150.526 379.769 232.082C379.768 313.637 313.651 379.751 232.092 379.751C150.533 379.751 84.4162 313.637 84.416 232.082C84.416 150.526 150.533 84.4121 232.092 84.4119Z" stroke="url(#paint0_linear_10209_5905)" stroke-width="2"/>
<path d="M232.093 41.1933C337.522 41.1935 422.989 126.657 422.989 232.082C422.989 337.506 337.522 422.969 232.093 422.97C126.663 422.97 41.1955 337.507 41.1953 232.082C41.1953 126.657 126.663 41.1933 232.093 41.1933Z" stroke="url(#paint1_linear_10209_5905)" stroke-width="2"/>
<path d="M232.092 1C359.72 1 463.183 104.459 463.184 232.081C463.184 359.704 359.72 463.163 232.092 463.163C104.463 463.163 1 359.704 1 232.081C1.00022 104.459 104.463 1.00009 232.092 1Z" stroke="url(#paint2_linear_10209_5905)" stroke-width="2"/>
<rect x="46.0098" y="294.115" width="37.4049" height="37.7117" rx="7.73649" fill="#F1F1F1"/>
<path d="M56.7441 310.314C56.7441 307.81 56.7441 306.558 57.5221 305.78C58.3001 305.002 59.5523 305.002 62.0566 305.002H67.3691C69.8734 305.002 71.1255 305.002 71.9035 305.78C72.6816 306.558 72.6816 307.81 72.6816 310.314V314.741C72.6816 316.411 72.6816 317.246 72.1629 317.764C71.6442 318.283 70.8094 318.283 69.1399 318.283H60.2858C58.6162 318.283 57.7815 318.283 57.2628 317.764C56.7441 317.246 56.7441 316.411 56.7441 314.741V310.314Z" stroke="#707072" stroke-width="1.32812"/>
<path d="M73.5676 320.939H55.8594" stroke="#707072" stroke-width="1.32812" stroke-linecap="round"/>
<path d="M67.3691 315.627H62.0566" stroke="#707072" stroke-width="1.32812" stroke-linecap="round"/>
<rect x="380.848" y="302.346" width="37.4049" height="37.7117" rx="7.73649" fill="#F1F1F1"/>
<path d="M402.206 327.399L403.977 329.17L407.518 325.628M400.435 313.233H396.185C395.193 313.233 394.697 313.233 394.318 313.426C393.985 313.596 393.714 313.866 393.545 314.2C393.352 314.578 393.352 315.074 393.352 316.066V326.337C393.352 327.329 393.352 327.824 393.545 328.203C393.714 328.536 393.985 328.807 394.318 328.977C394.697 329.17 395.193 329.17 396.185 329.17H399.549M400.435 313.233L405.747 318.545M400.435 313.233V317.129C400.435 317.624 400.435 317.872 400.531 318.062C400.616 318.228 400.752 318.364 400.918 318.449C401.108 318.545 401.356 318.545 401.852 318.545H405.747M405.747 318.545V322.53" stroke="#707072" stroke-width="1.77082" stroke-linecap="round" stroke-linejoin="round"/>
<rect x="132.342" y="153.962" width="37.4049" height="37.7117" rx="7.73649" fill="#F1F1F1"/>
<path d="M158.81 167.164C158.81 167.643 158.62 168.101 158.282 168.44C157.943 168.778 157.485 168.969 157.006 168.969H156.44V178.359C156.44 178.838 156.249 179.296 155.911 179.634C155.573 179.973 155.115 180.163 154.636 180.163H145.084C144.847 180.163 144.612 180.117 144.393 180.026C144.174 179.935 143.975 179.802 143.808 179.635C143.64 179.467 143.507 179.268 143.417 179.049C143.326 178.83 143.279 178.596 143.279 178.359C143.279 178.122 143.326 177.887 143.417 177.668C143.507 177.449 143.64 177.25 143.808 177.083C143.975 176.915 144.174 176.782 144.393 176.692C144.612 176.601 144.847 176.554 145.084 176.554H145.649V167.164C145.649 166.685 145.839 166.226 146.177 165.887C146.516 165.549 146.975 165.358 147.454 165.358H157.005C157.484 165.358 157.943 165.548 158.281 165.887C158.62 166.225 158.81 166.684 158.81 167.163V167.164ZM145.084 178.924H152.921C152.8 178.557 152.8 178.161 152.921 177.795H145.086C144.936 177.795 144.793 177.854 144.687 177.96C144.581 178.066 144.521 178.21 144.521 178.359C144.521 178.509 144.581 178.653 144.687 178.759C144.793 178.865 144.936 178.924 145.086 178.924H145.084ZM155.2 167.164C155.2 166.972 155.23 166.782 155.289 166.599H147.455C147.329 166.599 147.207 166.641 147.108 166.719L147.106 166.72C147.038 166.773 146.984 166.84 146.946 166.917C146.909 166.994 146.89 167.078 146.89 167.164V176.554H153.977C154.132 176.553 154.282 176.603 154.404 176.698C154.526 176.793 154.612 176.926 154.649 177.077C154.691 177.22 154.687 177.374 154.636 177.515C154.586 177.656 154.492 177.778 154.368 177.862C154.28 177.909 154.207 177.979 154.155 178.064C154.103 178.15 154.075 178.247 154.073 178.347C154.071 178.446 154.095 178.545 154.143 178.632C154.192 178.719 154.262 178.792 154.348 178.843C154.434 178.894 154.531 178.922 154.631 178.923C154.731 178.924 154.829 178.899 154.916 178.85C155.002 178.8 155.075 178.729 155.125 178.643C155.175 178.557 155.202 178.459 155.202 178.359L155.2 167.164ZM154.238 168.772H147.796V170.01H154.238V168.772ZM154.238 171.3H147.796V172.538H154.238V171.3ZM154.238 173.828H147.796V175.067H154.238V173.828ZM157.57 167.164C157.57 167.014 157.51 166.871 157.404 166.765C157.298 166.659 157.155 166.6 157.005 166.599C156.879 166.599 156.757 166.641 156.658 166.719H156.656C156.588 166.772 156.533 166.839 156.496 166.916C156.458 166.993 156.439 167.078 156.439 167.164V167.729H157.005C157.155 167.729 157.298 167.669 157.404 167.563C157.51 167.457 157.57 167.314 157.57 167.164Z" fill="#707072"/>
<rect x="371" y="107.175" width="37.4049" height="37.7117" rx="7.73649" fill="#F1F1F1"/>
<g clip-path="url(#clip0_10209_5905)">
<path d="M393.88 132.894L393.313 128.357C393.147 127.028 392.017 126.031 390.677 126.031H389.702H388.726C387.387 126.031 386.257 127.028 386.091 128.357L385.524 132.894C385.392 133.951 386.216 134.885 387.281 134.885H389.702H392.123C393.188 134.885 394.012 133.951 393.88 132.894Z" stroke="#707072" stroke-width="1.77082" stroke-linecap="round" stroke-linejoin="round"/>
<path d="M389.701 122.489C391.168 122.489 392.357 121.3 392.357 119.833C392.357 118.366 391.168 117.176 389.701 117.176C388.234 117.176 387.045 118.366 387.045 119.833C387.045 121.3 388.234 122.489 389.701 122.489Z" stroke="#707072" stroke-width="1.77082"/>
<path d="M382.618 125.145C383.596 125.145 384.389 124.352 384.389 123.374C384.389 122.396 383.596 121.604 382.618 121.604C381.64 121.604 380.848 122.396 380.848 123.374C380.848 124.352 381.64 125.145 382.618 125.145Z" stroke="#707072" stroke-width="1.77082"/>
<path d="M396.786 125.145C397.764 125.145 398.557 124.352 398.557 123.374C398.557 122.396 397.764 121.604 396.786 121.604C395.808 121.604 395.016 122.396 395.016 123.374C395.016 124.352 395.808 125.145 396.786 125.145Z" stroke="#707072" stroke-width="1.77082"/>
<path d="M382.618 127.802H382.348C381.482 127.802 380.743 128.427 380.601 129.281L380.306 131.052C380.126 132.131 380.958 133.114 382.053 133.114H385.275" stroke="#707072" stroke-width="1.77082" stroke-linecap="round" stroke-linejoin="round"/>
<path d="M396.785 127.802H397.056C397.921 127.802 398.66 128.427 398.803 129.281L399.098 131.052C399.278 132.131 398.445 133.114 397.351 133.114C396.323 133.114 395.099 133.114 394.129 133.114" stroke="#707072" stroke-width="1.77082" stroke-linecap="round" stroke-linejoin="round"/>
</g>
<rect x="182.436" y="305.621" width="37.4049" height="37.7117" rx="7.73649" fill="#F1F1F1"/>
<path d="M201.139 328.904V332.445M197.597 332.445H204.68M196.003 328.904H206.274C207.266 328.904 207.762 328.904 208.14 328.711C208.474 328.541 208.745 328.27 208.914 327.937C209.107 327.558 209.107 327.062 209.107 326.071V319.341C209.107 318.35 209.107 317.854 208.914 317.475C208.745 317.142 208.474 316.871 208.14 316.701C207.762 316.508 207.266 316.508 206.274 316.508H196.003C195.011 316.508 194.516 316.508 194.137 316.701C193.804 316.871 193.533 317.142 193.363 317.475C193.17 317.854 193.17 318.35 193.17 319.341V326.071C193.17 327.062 193.17 327.558 193.363 327.937C193.533 328.27 193.804 328.541 194.137 328.711C194.516 328.904 195.011 328.904 196.003 328.904Z" stroke="#707072" stroke-width="1.77082" stroke-linecap="round"/>
<rect x="313.137" y="194.37" width="37.4049" height="37.7117" rx="7.73649" fill="#F1F1F1"/>
<path fill-rule="evenodd" clip-rule="evenodd" d="M323.498 208.013C323.498 206.285 324.898 204.885 326.626 204.885H331.839H337.052C338.779 204.885 340.179 206.285 340.179 208.013V213.226V218.438C340.179 220.166 338.779 221.566 337.052 221.566H331.839H326.626C324.898 221.566 323.498 220.166 323.498 218.438V213.226V208.013ZM326.626 206.97C326.05 206.97 325.583 207.437 325.583 208.013V212.183H330.796V206.97H326.626ZM332.881 206.97V212.183H338.094V208.013C338.094 207.437 337.627 206.97 337.052 206.97H332.881ZM338.094 214.268H332.881V219.481H337.052C337.627 219.481 338.094 219.014 338.094 218.438V214.268ZM330.796 219.481V214.268H325.583V218.438C325.583 219.014 326.05 219.481 326.626 219.481H330.796Z" fill="#707072"/>
<rect y="128.652" width="37.4049" height="37.7117" rx="7.73649" fill="#F1F1F1"/>
<g clip-path="url(#clip1_10209_5905)">
<path fill-rule="evenodd" clip-rule="evenodd" d="M24.4079 149.936L16.3335 155.395C14.366 156.725 11.7012 155.327 11.7012 152.968V142.049C11.7012 139.688 14.366 138.292 16.3335 139.622L24.4079 145.081C26.1332 146.248 26.1332 148.769 24.4079 149.936Z" fill="#707072"/>
</g>
<path d="M171.125 412.926C168.202 412.926 165.78 411.965 163.856 410.041C161.933 408.081 160.971 405.686 160.971 402.856C160.971 400.008 161.933 397.622 163.856 395.699C165.761 393.757 168.184 392.786 171.125 392.786C172.882 392.786 174.5 393.202 175.979 394.034C177.478 394.866 178.643 395.994 179.475 397.419L176.701 399.028C176.183 398.066 175.425 397.308 174.426 396.753C173.446 396.179 172.345 395.893 171.125 395.893C169.072 395.893 167.389 396.549 166.076 397.862C164.799 399.157 164.161 400.822 164.161 402.856C164.161 404.89 164.799 406.555 166.076 407.85C167.389 409.163 169.072 409.819 171.125 409.819C172.345 409.819 173.455 409.542 174.454 408.987C175.452 408.414 176.201 407.646 176.701 406.684L179.475 408.266C178.68 409.671 177.524 410.809 176.007 411.678C174.546 412.51 172.919 412.926 171.125 412.926ZM195.304 406.906H184.262C184.484 407.942 184.984 408.747 185.76 409.32C186.556 409.893 187.536 410.18 188.701 410.18C190.273 410.18 191.466 409.607 192.28 408.46L194.749 409.902C193.399 411.918 191.373 412.926 188.673 412.926C186.435 412.926 184.614 412.242 183.208 410.873C181.821 409.486 181.127 407.739 181.127 405.63C181.127 403.577 181.812 401.848 183.18 400.442C184.53 399.037 186.287 398.334 188.451 398.334C190.467 398.334 192.132 399.046 193.445 400.47C194.758 401.894 195.415 403.624 195.415 405.658C195.415 406.028 195.378 406.444 195.304 406.906ZM184.235 404.465H192.391C192.187 403.374 191.725 402.532 191.004 401.94C190.301 401.349 189.441 401.053 188.424 401.053C187.314 401.053 186.389 401.358 185.649 401.968C184.91 402.579 184.438 403.411 184.235 404.465ZM205.347 398.334C206.956 398.334 208.242 398.852 209.203 399.888C210.184 400.905 210.674 402.292 210.674 404.049V412.566H207.677V404.354C207.677 403.318 207.4 402.523 206.845 401.968C206.29 401.413 205.532 401.136 204.57 401.136C203.479 401.136 202.619 401.478 201.99 402.162C201.362 402.828 201.047 403.818 201.047 405.131V412.566H198.051V398.695H201.047V400.47C201.972 399.046 203.405 398.334 205.347 398.334ZM221.64 398.695V401.58H218.2V408.238C218.2 408.811 218.329 409.227 218.588 409.486C218.847 409.727 219.226 409.865 219.726 409.902C220.243 409.921 220.882 409.912 221.64 409.875V412.566C219.346 412.843 217.7 412.649 216.702 411.983C215.703 411.299 215.204 410.05 215.204 408.238V401.58H212.651V398.695H215.204V395.699L218.2 394.811V398.695H221.64ZM227.489 398.695V401.025C228.247 399.305 229.671 398.445 231.761 398.445V401.691C230.633 401.617 229.634 401.894 228.765 402.523C227.914 403.133 227.489 404.151 227.489 405.575V412.566H224.493V398.695H227.489ZM244.311 400.664V398.695H247.307V412.566H244.311V410.568C243.182 412.14 241.564 412.926 239.456 412.926C237.551 412.926 235.923 412.224 234.573 410.818C233.223 409.412 232.548 407.683 232.548 405.63C232.548 403.577 233.223 401.848 234.573 400.442C235.923 399.037 237.551 398.334 239.456 398.334C241.564 398.334 243.182 399.111 244.311 400.664ZM236.792 408.821C237.625 409.653 238.67 410.069 239.927 410.069C241.185 410.069 242.23 409.653 243.062 408.821C243.894 407.97 244.311 406.906 244.311 405.63C244.311 404.354 243.894 403.3 243.062 402.468C242.23 401.617 241.185 401.191 239.927 401.191C238.67 401.191 237.625 401.617 236.792 402.468C235.96 403.3 235.544 404.354 235.544 405.63C235.544 406.888 235.96 407.951 236.792 408.821ZM253.795 412.566H250.799V392.314H253.795V412.566ZM267.594 393.146V409.514H275.501V412.566H264.404V393.146H267.594ZM290.64 406.906H279.599C279.821 407.942 280.32 408.747 281.097 409.32C281.892 409.893 282.872 410.18 284.038 410.18C285.61 410.18 286.803 409.607 287.616 408.46L290.085 409.902C288.735 411.918 286.71 412.926 284.01 412.926C281.772 412.926 279.95 412.242 278.545 410.873C277.157 409.486 276.464 407.739 276.464 405.63C276.464 403.577 277.148 401.848 278.517 400.442C279.867 399.037 281.624 398.334 283.788 398.334C285.804 398.334 287.468 399.046 288.781 400.47C290.095 401.894 290.751 403.624 290.751 405.658C290.751 406.028 290.714 406.444 290.64 406.906ZM279.571 404.465H287.727C287.524 403.374 287.061 402.532 286.34 401.94C285.637 401.349 284.777 401.053 283.76 401.053C282.65 401.053 281.726 401.358 280.986 401.968C280.246 402.579 279.775 403.411 279.571 404.465ZM298.394 409.237L302.25 398.695H305.524L300.114 412.566H296.646L291.237 398.695H294.51L298.394 409.237ZM320.279 406.906H309.237C309.459 407.942 309.959 408.747 310.735 409.32C311.531 409.893 312.511 410.18 313.676 410.18C315.248 410.18 316.441 409.607 317.255 408.46L319.724 409.902C318.374 411.918 316.349 412.926 313.648 412.926C311.411 412.926 309.589 412.242 308.183 410.873C306.796 409.486 306.103 407.739 306.103 405.63C306.103 403.577 306.787 401.848 308.155 400.442C309.506 399.037 311.263 398.334 313.426 398.334C315.442 398.334 317.107 399.046 318.42 400.47C319.733 401.894 320.39 403.624 320.39 405.658C320.39 406.028 320.353 406.444 320.279 406.906ZM309.21 404.465H317.366C317.162 403.374 316.7 402.532 315.979 401.94C315.276 401.349 314.416 401.053 313.399 401.053C312.289 401.053 311.364 401.358 310.625 401.968C309.885 402.579 309.413 403.411 309.21 404.465ZM326.022 412.566H323.026V392.314H326.022V412.566Z" fill="black"/>
<rect x="450.66" y="206.881" width="37.4049" height="37.7117" rx="7.73649" fill="#F1F1F1"/>
<g clip-path="url(#clip2_10209_5905)">
<path d="M474.574 215.923H464.147C463.74 215.923 463.35 216.084 463.062 216.372C462.775 216.659 462.613 217.049 462.613 217.456V234.017C462.613 234.424 462.775 234.814 463.062 235.102C463.35 235.389 463.74 235.551 464.147 235.551H474.574C474.981 235.551 475.371 235.389 475.659 235.102C475.946 234.814 476.108 234.424 476.108 234.017V217.456C476.108 217.049 475.946 216.659 475.659 216.372C475.371 216.084 474.981 215.923 474.574 215.923ZM474.574 234.017H464.147V217.456H474.574V234.017Z" fill="#707072"/>
<path d="M469.362 232.484C469.904 232.484 470.344 232.072 470.344 231.564C470.344 231.056 469.904 230.644 469.362 230.644C468.82 230.644 468.381 231.056 468.381 231.564C468.381 232.072 468.82 232.484 469.362 232.484Z" fill="#707072"/>
</g>
<path d="M74.9213 441.963H83.0013V443.371H79.6893V453.163H78.2173V443.371H74.9213V441.963ZM88.3139 444.955C89.2526 444.955 90.0046 445.254 90.5699 445.851C91.1353 446.438 91.4179 447.238 91.4179 448.251V453.163H90.0259V448.331C90.0259 447.691 89.8499 447.19 89.4979 446.827C89.1459 446.464 88.6606 446.283 88.0419 446.283C87.3273 446.283 86.7619 446.507 86.3459 446.955C85.9299 447.392 85.7219 448.048 85.7219 448.923V453.163H84.3299V441.963H85.7219V446.315C86.2766 445.408 87.1406 444.955 88.3139 444.955ZM94.0652 443.707C93.7985 443.707 93.5745 443.616 93.3932 443.435C93.2118 443.254 93.1212 443.035 93.1212 442.779C93.1212 442.523 93.2118 442.304 93.3932 442.123C93.5745 441.931 93.7985 441.835 94.0652 441.835C94.3212 441.835 94.5398 441.931 94.7212 442.123C94.9025 442.304 94.9932 442.523 94.9932 442.779C94.9932 443.035 94.9025 443.254 94.7212 443.435C94.5398 443.616 94.3212 443.707 94.0652 443.707ZM94.7532 453.163H93.3612V445.163H94.7532V453.163ZM98.0612 447.323C98.0612 447.835 98.5892 448.235 99.6452 448.523C100.04 448.608 100.371 448.699 100.637 448.795C100.915 448.88 101.213 449.014 101.533 449.195C101.864 449.376 102.115 449.616 102.285 449.915C102.456 450.214 102.541 450.566 102.541 450.971C102.541 451.696 102.259 452.278 101.693 452.715C101.128 453.152 100.413 453.371 99.5492 453.371C98.7812 453.371 98.1145 453.206 97.5492 452.875C96.9945 452.534 96.5998 452.075 96.3652 451.499L97.5652 450.811C97.6932 451.195 97.9332 451.499 98.2852 451.723C98.6372 451.947 99.0585 452.059 99.5492 452.059C100.029 452.059 100.413 451.968 100.701 451.787C100.989 451.606 101.133 451.334 101.133 450.971C101.133 450.427 100.605 450.032 99.5492 449.787C99.1972 449.691 98.9305 449.616 98.7492 449.563C98.5678 449.51 98.3172 449.414 97.9972 449.275C97.6878 449.136 97.4532 448.992 97.2932 448.843C97.1332 448.683 96.9838 448.475 96.8452 448.219C96.7172 447.952 96.6532 447.659 96.6532 447.339C96.6532 446.646 96.9198 446.075 97.4532 445.627C97.9972 445.179 98.6745 444.955 99.4852 444.955C100.136 444.955 100.712 445.104 101.213 445.403C101.725 445.691 102.109 446.096 102.365 446.619L101.197 447.275C100.909 446.592 100.339 446.251 99.4852 446.251C99.0798 446.251 98.7385 446.347 98.4612 446.539C98.1945 446.731 98.0612 446.992 98.0612 447.323ZM108.893 443.707C108.627 443.707 108.403 443.616 108.221 443.435C108.04 443.254 107.949 443.035 107.949 442.779C107.949 442.523 108.04 442.304 108.221 442.123C108.403 441.931 108.627 441.835 108.893 441.835C109.149 441.835 109.368 441.931 109.549 442.123C109.731 442.304 109.821 442.523 109.821 442.779C109.821 443.035 109.731 443.254 109.549 443.435C109.368 443.616 109.149 443.707 108.893 443.707ZM109.581 453.163H108.189V445.163H109.581V453.163ZM115.689 444.955C116.628 444.955 117.38 445.254 117.945 445.851C118.51 446.438 118.793 447.238 118.793 448.251V453.163H117.401V448.331C117.401 447.691 117.225 447.19 116.873 446.827C116.521 446.464 116.036 446.283 115.417 446.283C114.702 446.283 114.137 446.507 113.721 446.955C113.305 447.392 113.097 448.048 113.097 448.923V453.163H111.705V445.163H113.097V446.315C113.652 445.408 114.516 444.955 115.689 444.955ZM125.088 445.163V446.507H122.96V450.843C122.96 451.238 123.035 451.52 123.184 451.691C123.344 451.851 123.584 451.936 123.904 451.947C124.224 451.947 124.619 451.936 125.088 451.915V453.163C123.862 453.323 122.966 453.222 122.4 452.859C121.846 452.496 121.568 451.824 121.568 450.843V446.507H119.984V445.163H121.568V443.339L122.96 442.923V445.163H125.088ZM134.01 449.803H127.306C127.445 450.507 127.77 451.062 128.282 451.467C128.794 451.862 129.434 452.059 130.202 452.059C131.258 452.059 132.026 451.67 132.506 450.891L133.69 451.563C132.901 452.768 131.727 453.371 130.17 453.371C128.911 453.371 127.877 452.976 127.066 452.187C126.277 451.376 125.882 450.368 125.882 449.163C125.882 447.947 126.271 446.944 127.05 446.155C127.829 445.355 128.837 444.955 130.074 444.955C131.247 444.955 132.202 445.371 132.938 446.203C133.685 447.014 134.058 448.006 134.058 449.179C134.058 449.382 134.042 449.59 134.01 449.803ZM130.074 446.267C129.338 446.267 128.719 446.475 128.218 446.891C127.727 447.307 127.423 447.872 127.306 448.587H132.65C132.533 447.851 132.239 447.28 131.77 446.875C131.301 446.47 130.735 446.267 130.074 446.267ZM142.282 446.539V445.163H143.658V452.827C143.658 454.011 143.258 454.928 142.458 455.579C141.648 456.24 140.688 456.571 139.578 456.571C138.682 456.571 137.909 456.4 137.258 456.059C136.608 455.728 136.117 455.248 135.786 454.619L137.002 453.931C137.44 454.827 138.309 455.275 139.61 455.275C140.442 455.275 141.093 455.056 141.562 454.619C142.042 454.182 142.282 453.584 142.282 452.827V451.691C141.578 452.758 140.576 453.291 139.274 453.291C138.122 453.291 137.157 452.886 136.378 452.075C135.589 451.254 135.194 450.267 135.194 449.115C135.194 447.963 135.589 446.982 136.378 446.171C137.157 445.36 138.122 444.955 139.274 444.955C140.586 444.955 141.589 445.483 142.282 446.539ZM142.282 449.115C142.282 448.315 142.01 447.643 141.466 447.099C140.922 446.555 140.245 446.283 139.434 446.283C138.624 446.283 137.946 446.555 137.402 447.099C136.858 447.643 136.586 448.315 136.586 449.115C136.586 449.926 136.858 450.603 137.402 451.147C137.946 451.691 138.624 451.963 139.434 451.963C140.245 451.963 140.922 451.691 141.466 451.147C142.01 450.603 142.282 449.926 142.282 449.115ZM147.159 445.163V446.507C147.618 445.515 148.45 445.019 149.655 445.019V446.475C148.973 446.443 148.386 446.624 147.895 447.019C147.405 447.414 147.159 448.048 147.159 448.923V453.163H145.767V445.163H147.159ZM157.204 446.539V445.163H158.596V453.163H157.204V451.787C156.521 452.843 155.513 453.371 154.18 453.371C153.049 453.371 152.095 452.966 151.316 452.155C150.527 451.334 150.132 450.336 150.132 449.163C150.132 448 150.527 447.008 151.316 446.187C152.105 445.366 153.06 444.955 154.18 444.955C155.513 444.955 156.521 445.483 157.204 446.539ZM154.356 452.027C155.167 452.027 155.844 451.755 156.388 451.211C156.932 450.646 157.204 449.963 157.204 449.163C157.204 448.352 156.932 447.675 156.388 447.131C155.844 446.576 155.167 446.299 154.356 446.299C153.556 446.299 152.884 446.576 152.34 447.131C151.796 447.675 151.524 448.352 151.524 449.163C151.524 449.963 151.796 450.646 152.34 451.211C152.884 451.755 153.556 452.027 154.356 452.027ZM165.057 445.163V446.507H162.929V450.843C162.929 451.238 163.004 451.52 163.153 451.691C163.313 451.851 163.553 451.936 163.873 451.947C164.193 451.947 164.588 451.936 165.057 451.915V453.163C163.83 453.323 162.934 453.222 162.369 452.859C161.814 452.496 161.537 451.824 161.537 450.843V446.507H159.953V445.163H161.537V443.339L162.929 442.923V445.163H165.057ZM167.409 443.707C167.142 443.707 166.918 443.616 166.737 443.435C166.556 443.254 166.465 443.035 166.465 442.779C166.465 442.523 166.556 442.304 166.737 442.123C166.918 441.931 167.142 441.835 167.409 441.835C167.665 441.835 167.884 441.931 168.065 442.123C168.246 442.304 168.337 442.523 168.337 442.779C168.337 443.035 168.246 443.254 168.065 443.435C167.884 443.616 167.665 443.707 167.409 443.707ZM168.097 453.163H166.705V445.163H168.097V453.163ZM176.973 452.155C176.162 452.966 175.165 453.371 173.981 453.371C172.797 453.371 171.799 452.966 170.989 452.155C170.178 451.344 169.773 450.347 169.773 449.163C169.773 447.979 170.178 446.982 170.989 446.171C171.799 445.36 172.797 444.955 173.981 444.955C175.165 444.955 176.162 445.36 176.973 446.171C177.794 446.992 178.205 447.99 178.205 449.163C178.205 450.336 177.794 451.334 176.973 452.155ZM173.981 452.011C174.781 452.011 175.453 451.739 175.997 451.195C176.541 450.651 176.813 449.974 176.813 449.163C176.813 448.352 176.541 447.675 175.997 447.131C175.453 446.587 174.781 446.315 173.981 446.315C173.191 446.315 172.525 446.587 171.981 447.131C171.437 447.675 171.165 448.352 171.165 449.163C171.165 449.974 171.437 450.651 171.981 451.195C172.525 451.739 173.191 452.011 173.981 452.011ZM183.83 444.955C184.768 444.955 185.52 445.254 186.086 445.851C186.651 446.438 186.934 447.238 186.934 448.251V453.163H185.542V448.331C185.542 447.691 185.366 447.19 185.014 446.827C184.662 446.464 184.176 446.283 183.558 446.283C182.843 446.283 182.278 446.507 181.862 446.955C181.446 447.392 181.238 448.048 181.238 448.923V453.163H179.846V445.163H181.238V446.315C181.792 445.408 182.656 444.955 183.83 444.955ZM193.581 443.707C193.314 443.707 193.09 443.616 192.909 443.435C192.727 443.254 192.637 443.035 192.637 442.779C192.637 442.523 192.727 442.304 192.909 442.123C193.09 441.931 193.314 441.835 193.581 441.835C193.837 441.835 194.055 441.931 194.237 442.123C194.418 442.304 194.509 442.523 194.509 442.779C194.509 443.035 194.418 443.254 194.237 443.435C194.055 443.616 193.837 443.707 193.581 443.707ZM194.269 453.163H192.877V445.163H194.269V453.163ZM197.577 447.323C197.577 447.835 198.105 448.235 199.161 448.523C199.555 448.608 199.886 448.699 200.153 448.795C200.43 448.88 200.729 449.014 201.049 449.195C201.379 449.376 201.63 449.616 201.801 449.915C201.971 450.214 202.057 450.566 202.057 450.971C202.057 451.696 201.774 452.278 201.209 452.715C200.643 453.152 199.929 453.371 199.065 453.371C198.297 453.371 197.63 453.206 197.065 452.875C196.51 452.534 196.115 452.075 195.881 451.499L197.081 450.811C197.209 451.195 197.449 451.499 197.801 451.723C198.153 451.947 198.574 452.059 199.065 452.059C199.545 452.059 199.929 451.968 200.217 451.787C200.505 451.606 200.649 451.334 200.649 450.971C200.649 450.427 200.121 450.032 199.065 449.787C198.713 449.691 198.446 449.616 198.265 449.563C198.083 449.51 197.833 449.414 197.513 449.275C197.203 449.136 196.969 448.992 196.809 448.843C196.649 448.683 196.499 448.475 196.361 448.219C196.233 447.952 196.169 447.659 196.169 447.339C196.169 446.646 196.435 446.075 196.969 445.627C197.513 445.179 198.19 444.955 199.001 444.955C199.651 444.955 200.227 445.104 200.729 445.403C201.241 445.691 201.625 446.096 201.881 446.619L200.713 447.275C200.425 446.592 199.854 446.251 199.001 446.251C198.595 446.251 198.254 446.347 197.977 446.539C197.71 446.731 197.577 446.992 197.577 447.323ZM215.385 449.803H208.681C208.82 450.507 209.145 451.062 209.657 451.467C210.169 451.862 210.809 452.059 211.577 452.059C212.633 452.059 213.401 451.67 213.881 450.891L215.065 451.563C214.276 452.768 213.102 453.371 211.545 453.371C210.286 453.371 209.252 452.976 208.441 452.187C207.652 451.376 207.257 450.368 207.257 449.163C207.257 447.947 207.646 446.944 208.425 446.155C209.204 445.355 210.212 444.955 211.449 444.955C212.622 444.955 213.577 445.371 214.313 446.203C215.06 447.014 215.433 448.006 215.433 449.179C215.433 449.382 215.417 449.59 215.385 449.803ZM211.449 446.267C210.713 446.267 210.094 446.475 209.593 446.891C209.102 447.307 208.798 447.872 208.681 448.587H214.025C213.908 447.851 213.614 447.28 213.145 446.875C212.676 446.47 212.11 446.267 211.449 446.267ZM221.017 444.955C221.956 444.955 222.708 445.254 223.273 445.851C223.838 446.438 224.121 447.238 224.121 448.251V453.163H222.729V448.331C222.729 447.691 222.553 447.19 222.201 446.827C221.849 446.464 221.364 446.283 220.745 446.283C220.03 446.283 219.465 446.507 219.049 446.955C218.633 447.392 218.425 448.048 218.425 448.923V453.163H217.033V445.163H218.425V446.315C218.98 445.408 219.844 444.955 221.017 444.955ZM232.688 446.539V445.163H234.08V453.163H232.688V451.787C232.006 452.843 230.998 453.371 229.664 453.371C228.534 453.371 227.579 452.966 226.8 452.155C226.011 451.334 225.616 450.336 225.616 449.163C225.616 448 226.011 447.008 226.8 446.187C227.59 445.366 228.544 444.955 229.664 444.955C230.998 444.955 232.006 445.483 232.688 446.539ZM229.84 452.027C230.651 452.027 231.328 451.755 231.872 451.211C232.416 450.646 232.688 449.963 232.688 449.163C232.688 448.352 232.416 447.675 231.872 447.131C231.328 446.576 230.651 446.299 229.84 446.299C229.04 446.299 228.368 446.576 227.824 447.131C227.28 447.675 227.008 448.352 227.008 449.163C227.008 449.963 227.28 450.646 227.824 451.211C228.368 451.755 229.04 452.027 229.84 452.027ZM240.605 444.955C241.725 444.955 242.68 445.366 243.469 446.187C244.259 447.008 244.653 448 244.653 449.163C244.653 450.336 244.259 451.334 243.469 452.155C242.691 452.966 241.736 453.371 240.605 453.371C239.283 453.371 238.275 452.843 237.581 451.787V453.163H236.189V441.963H237.581V446.539C238.275 445.483 239.283 444.955 240.605 444.955ZM240.429 452.027C241.229 452.027 241.901 451.755 242.445 451.211C242.989 450.646 243.261 449.963 243.261 449.163C243.261 448.352 242.989 447.675 242.445 447.131C241.901 446.576 241.229 446.299 240.429 446.299C239.619 446.299 238.941 446.576 238.397 447.131C237.853 447.675 237.581 448.352 237.581 449.163C237.581 449.963 237.853 450.646 238.397 451.211C238.941 451.755 239.619 452.027 240.429 452.027ZM247.706 453.163H246.314V441.483H247.706V453.163ZM257.51 449.803H250.806C250.945 450.507 251.27 451.062 251.782 451.467C252.294 451.862 252.934 452.059 253.702 452.059C254.758 452.059 255.526 451.67 256.006 450.891L257.19 451.563C256.401 452.768 255.227 453.371 253.67 453.371C252.411 453.371 251.377 452.976 250.566 452.187C249.777 451.376 249.382 450.368 249.382 449.163C249.382 447.947 249.771 446.944 250.55 446.155C251.329 445.355 252.337 444.955 253.574 444.955C254.747 444.955 255.702 445.371 256.438 446.203C257.185 447.014 257.558 448.006 257.558 449.179C257.558 449.382 257.542 449.59 257.51 449.803ZM253.574 446.267C252.838 446.267 252.219 446.475 251.718 446.891C251.227 447.307 250.923 447.872 250.806 448.587H256.15C256.033 447.851 255.739 447.28 255.27 446.875C254.801 446.47 254.235 446.267 253.574 446.267ZM265.766 446.539V441.963H267.158V453.163H265.766V451.787C265.084 452.843 264.076 453.371 262.742 453.371C261.612 453.371 260.657 452.966 259.878 452.155C259.089 451.334 258.694 450.336 258.694 449.163C258.694 448 259.089 447.008 259.878 446.187C260.668 445.366 261.622 444.955 262.742 444.955C264.076 444.955 265.084 445.483 265.766 446.539ZM262.918 452.027C263.729 452.027 264.406 451.755 264.95 451.211C265.494 450.646 265.766 449.963 265.766 449.163C265.766 448.352 265.494 447.675 264.95 447.131C264.406 446.576 263.729 446.299 262.918 446.299C262.118 446.299 261.446 446.576 260.902 447.131C260.358 447.675 260.086 448.352 260.086 449.163C260.086 449.963 260.358 450.646 260.902 451.211C261.446 451.755 262.118 452.027 262.918 452.027ZM279.891 446.539V445.163H281.283V453.163H279.891V451.787C279.209 452.843 278.201 453.371 276.867 453.371C275.737 453.371 274.782 452.966 274.003 452.155C273.214 451.334 272.819 450.336 272.819 449.163C272.819 448 273.214 447.008 274.003 446.187C274.793 445.366 275.747 444.955 276.867 444.955C278.201 444.955 279.209 445.483 279.891 446.539ZM277.043 452.027C277.854 452.027 278.531 451.755 279.075 451.211C279.619 450.646 279.891 449.963 279.891 449.163C279.891 448.352 279.619 447.675 279.075 447.131C278.531 446.576 277.854 446.299 277.043 446.299C276.243 446.299 275.571 446.576 275.027 447.131C274.483 447.675 274.211 448.352 274.211 449.163C274.211 449.963 274.483 450.646 275.027 451.211C275.571 451.755 276.243 452.027 277.043 452.027ZM287.744 445.163V446.507H285.616V450.843C285.616 451.238 285.691 451.52 285.84 451.691C286 451.851 286.24 451.936 286.56 451.947C286.88 451.947 287.275 451.936 287.744 451.915V453.163C286.518 453.323 285.622 453.222 285.056 452.859C284.502 452.496 284.224 451.824 284.224 450.843V446.507H282.64V445.163H284.224V443.339L285.616 442.923V445.163H287.744ZM297.791 445.163V446.507H295.663V450.843C295.663 451.238 295.738 451.52 295.887 451.691C296.047 451.851 296.287 451.936 296.607 451.947C296.927 451.947 297.322 451.936 297.791 451.915V453.163C296.565 453.323 295.669 453.222 295.103 452.859C294.549 452.496 294.271 451.824 294.271 450.843V446.507H292.687V445.163H294.271V443.339L295.663 442.923V445.163H297.791ZM303.423 444.955C304.362 444.955 305.114 445.254 305.679 445.851C306.245 446.438 306.527 447.238 306.527 448.251V453.163H305.135V448.331C305.135 447.691 304.959 447.19 304.607 446.827C304.255 446.464 303.77 446.283 303.151 446.283C302.437 446.283 301.871 446.507 301.455 446.955C301.039 447.392 300.831 448.048 300.831 448.923V453.163H299.439V441.963H300.831V446.315C301.386 445.408 302.25 444.955 303.423 444.955ZM316.151 449.803H309.447C309.585 450.507 309.911 451.062 310.423 451.467C310.935 451.862 311.575 452.059 312.343 452.059C313.399 452.059 314.167 451.67 314.647 450.891L315.831 451.563C315.041 452.768 313.868 453.371 312.311 453.371C311.052 453.371 310.017 452.976 309.207 452.187C308.417 451.376 308.023 450.368 308.023 449.163C308.023 447.947 308.412 446.944 309.191 446.155C309.969 445.355 310.977 444.955 312.215 444.955C313.388 444.955 314.343 445.371 315.079 446.203C315.825 447.014 316.199 448.006 316.199 449.179C316.199 449.382 316.183 449.59 316.151 449.803ZM312.215 446.267C311.479 446.267 310.86 446.475 310.359 446.891C309.868 447.307 309.564 447.872 309.447 448.587H314.791C314.673 447.851 314.38 447.28 313.911 446.875C313.441 446.47 312.876 446.267 312.215 446.267ZM328.551 452.155C327.74 452.966 326.743 453.371 325.559 453.371C324.375 453.371 323.377 452.966 322.567 452.155C321.756 451.344 321.351 450.347 321.351 449.163C321.351 447.979 321.756 446.982 322.567 446.171C323.377 445.36 324.375 444.955 325.559 444.955C326.743 444.955 327.74 445.36 328.551 446.171C329.372 446.992 329.783 447.99 329.783 449.163C329.783 450.336 329.372 451.334 328.551 452.155ZM325.559 452.011C326.359 452.011 327.031 451.739 327.575 451.195C328.119 450.651 328.391 449.974 328.391 449.163C328.391 448.352 328.119 447.675 327.575 447.131C327.031 446.587 326.359 446.315 325.559 446.315C324.769 446.315 324.103 446.587 323.559 447.131C323.015 447.675 322.743 448.352 322.743 449.163C322.743 449.974 323.015 450.651 323.559 451.195C324.103 451.739 324.769 452.011 325.559 452.011ZM332.816 445.163V446.507C333.274 445.515 334.106 445.019 335.312 445.019V446.475C334.629 446.443 334.042 446.624 333.552 447.019C333.061 447.414 332.816 448.048 332.816 448.923V453.163H331.424V445.163H332.816ZM342.876 446.539V445.163H344.252V452.827C344.252 454.011 343.852 454.928 343.052 455.579C342.242 456.24 341.282 456.571 340.172 456.571C339.276 456.571 338.503 456.4 337.852 456.059C337.202 455.728 336.711 455.248 336.38 454.619L337.596 453.931C338.034 454.827 338.903 455.275 340.204 455.275C341.036 455.275 341.687 455.056 342.156 454.619C342.636 454.182 342.876 453.584 342.876 452.827V451.691C342.172 452.758 341.17 453.291 339.868 453.291C338.716 453.291 337.751 452.886 336.972 452.075C336.183 451.254 335.788 450.267 335.788 449.115C335.788 447.963 336.183 446.982 336.972 446.171C337.751 445.36 338.716 444.955 339.868 444.955C341.18 444.955 342.183 445.483 342.876 446.539ZM342.876 449.115C342.876 448.315 342.604 447.643 342.06 447.099C341.516 446.555 340.839 446.283 340.028 446.283C339.218 446.283 338.54 446.555 337.996 447.099C337.452 447.643 337.18 448.315 337.18 449.115C337.18 449.926 337.452 450.603 337.996 451.147C338.54 451.691 339.218 451.963 340.028 451.963C340.839 451.963 341.516 451.691 342.06 451.147C342.604 450.603 342.876 449.926 342.876 449.115ZM352.985 446.539V445.163H354.377V453.163H352.985V451.787C352.303 452.843 351.295 453.371 349.961 453.371C348.831 453.371 347.876 452.966 347.097 452.155C346.308 451.334 345.913 450.336 345.913 449.163C345.913 448 346.308 447.008 347.097 446.187C347.887 445.366 348.841 444.955 349.961 444.955C351.295 444.955 352.303 445.483 352.985 446.539ZM350.137 452.027C350.948 452.027 351.625 451.755 352.169 451.211C352.713 450.646 352.985 449.963 352.985 449.163C352.985 448.352 352.713 447.675 352.169 447.131C351.625 446.576 350.948 446.299 350.137 446.299C349.337 446.299 348.665 446.576 348.121 447.131C347.577 447.675 347.305 448.352 347.305 449.163C347.305 449.963 347.577 450.646 348.121 451.211C348.665 451.755 349.337 452.027 350.137 452.027ZM360.47 444.955C361.409 444.955 362.161 445.254 362.726 445.851C363.292 446.438 363.574 447.238 363.574 448.251V453.163H362.182V448.331C362.182 447.691 362.006 447.19 361.654 446.827C361.302 446.464 360.817 446.283 360.198 446.283C359.484 446.283 358.918 446.507 358.502 446.955C358.086 447.392 357.878 448.048 357.878 448.923V453.163H356.486V445.163H357.878V446.315C358.433 445.408 359.297 444.955 360.47 444.955ZM366.221 443.707C365.955 443.707 365.731 443.616 365.549 443.435C365.368 443.254 365.277 443.035 365.277 442.779C365.277 442.523 365.368 442.304 365.549 442.123C365.731 441.931 365.955 441.835 366.221 441.835C366.477 441.835 366.696 441.931 366.877 442.123C367.059 442.304 367.149 442.523 367.149 442.779C367.149 443.035 367.059 443.254 366.877 443.435C366.696 443.616 366.477 443.707 366.221 443.707ZM366.909 453.163H365.517V445.163H366.909V453.163ZM370.217 447.323C370.217 447.835 370.745 448.235 371.801 448.523C372.196 448.608 372.527 448.699 372.793 448.795C373.071 448.88 373.369 449.014 373.689 449.195C374.02 449.376 374.271 449.616 374.441 449.915C374.612 450.214 374.697 450.566 374.697 450.971C374.697 451.696 374.415 452.278 373.849 452.715C373.284 453.152 372.569 453.371 371.705 453.371C370.937 453.371 370.271 453.206 369.705 452.875C369.151 452.534 368.756 452.075 368.521 451.499L369.721 450.811C369.849 451.195 370.089 451.499 370.441 451.723C370.793 451.947 371.215 452.059 371.705 452.059C372.185 452.059 372.569 451.968 372.857 451.787C373.145 451.606 373.289 451.334 373.289 450.971C373.289 450.427 372.761 450.032 371.705 449.787C371.353 449.691 371.087 449.616 370.905 449.563C370.724 449.51 370.473 449.414 370.153 449.275C369.844 449.136 369.609 448.992 369.449 448.843C369.289 448.683 369.14 448.475 369.001 448.219C368.873 447.952 368.809 447.659 368.809 447.339C368.809 446.646 369.076 446.075 369.609 445.627C370.153 445.179 370.831 444.955 371.641 444.955C372.292 444.955 372.868 445.104 373.369 445.403C373.881 445.691 374.265 446.096 374.521 446.619L373.353 447.275C373.065 446.592 372.495 446.251 371.641 446.251C371.236 446.251 370.895 446.347 370.617 446.539C370.351 446.731 370.217 446.992 370.217 447.323ZM382.751 446.539V445.163H384.143V453.163H382.751V451.787C382.068 452.843 381.06 453.371 379.727 453.371C378.596 453.371 377.641 452.966 376.863 452.155C376.073 451.334 375.679 450.336 375.679 449.163C375.679 448 376.073 447.008 376.863 446.187C377.652 445.366 378.607 444.955 379.727 444.955C381.06 444.955 382.068 445.483 382.751 446.539ZM379.903 452.027C380.713 452.027 381.391 451.755 381.935 451.211C382.479 450.646 382.751 449.963 382.751 449.163C382.751 448.352 382.479 447.675 381.935 447.131C381.391 446.576 380.713 446.299 379.903 446.299C379.103 446.299 378.431 446.576 377.887 447.131C377.343 447.675 377.071 448.352 377.071 449.163C377.071 449.963 377.343 450.646 377.887 451.211C378.431 451.755 379.103 452.027 379.903 452.027ZM390.604 445.163V446.507H388.476V450.843C388.476 451.238 388.55 451.52 388.7 451.691C388.86 451.851 389.1 451.936 389.42 451.947C389.74 451.947 390.134 451.936 390.604 451.915V453.163C389.377 453.323 388.481 453.222 387.916 452.859C387.361 452.496 387.084 451.824 387.084 450.843V446.507H385.5V445.163H387.084V443.339L388.476 442.923V445.163H390.604ZM392.956 443.707C392.689 443.707 392.465 443.616 392.284 443.435C392.102 443.254 392.012 443.035 392.012 442.779C392.012 442.523 392.102 442.304 392.284 442.123C392.465 441.931 392.689 441.835 392.956 441.835C393.212 441.835 393.43 441.931 393.612 442.123C393.793 442.304 393.884 442.523 393.884 442.779C393.884 443.035 393.793 443.254 393.612 443.435C393.43 443.616 393.212 443.707 392.956 443.707ZM393.644 453.163H392.252V445.163H393.644V453.163ZM402.519 452.155C401.709 452.966 400.711 453.371 399.527 453.371C398.343 453.371 397.346 452.966 396.535 452.155C395.725 451.344 395.319 450.347 395.319 449.163C395.319 447.979 395.725 446.982 396.535 446.171C397.346 445.36 398.343 444.955 399.527 444.955C400.711 444.955 401.709 445.36 402.519 446.171C403.341 446.992 403.751 447.99 403.751 449.163C403.751 450.336 403.341 451.334 402.519 452.155ZM399.527 452.011C400.327 452.011 400.999 451.739 401.543 451.195C402.087 450.651 402.359 449.974 402.359 449.163C402.359 448.352 402.087 447.675 401.543 447.131C400.999 446.587 400.327 446.315 399.527 446.315C398.738 446.315 398.071 446.587 397.527 447.131C396.983 447.675 396.711 448.352 396.711 449.163C396.711 449.974 396.983 450.651 397.527 451.195C398.071 451.739 398.738 452.011 399.527 452.011ZM409.376 444.955C410.315 444.955 411.067 445.254 411.632 445.851C412.198 446.438 412.48 447.238 412.48 448.251V453.163H411.088V448.331C411.088 447.691 410.912 447.19 410.56 446.827C410.208 446.464 409.723 446.283 409.104 446.283C408.39 446.283 407.824 446.507 407.408 446.955C406.992 447.392 406.784 448.048 406.784 448.923V453.163H405.392V445.163H406.784V446.315C407.339 445.408 408.203 444.955 409.376 444.955ZM90.3938 472.163H89.0018V460.483H90.3938V472.163ZM100.197 468.803H93.4934C93.6321 469.507 93.9574 470.062 94.4694 470.467C94.9814 470.862 95.6214 471.059 96.3894 471.059C97.4454 471.059 98.2134 470.67 98.6934 469.891L99.8774 470.563C99.0881 471.768 97.9148 472.371 96.3574 472.371C95.0988 472.371 94.0641 471.976 93.2534 471.187C92.4641 470.376 92.0694 469.368 92.0694 468.163C92.0694 466.947 92.4588 465.944 93.2374 465.155C94.0161 464.355 95.0241 463.955 96.2614 463.955C97.4348 463.955 98.3894 464.371 99.1254 465.203C99.8721 466.014 100.245 467.006 100.245 468.179C100.245 468.382 100.229 468.59 100.197 468.803ZM96.2614 465.267C95.5254 465.267 94.9068 465.475 94.4054 465.891C93.9148 466.307 93.6108 466.872 93.4934 467.587H98.8374C98.7201 466.851 98.4268 466.28 97.9574 465.875C97.4881 465.47 96.9228 465.267 96.2614 465.267ZM104.621 470.675L107.133 464.163H108.637L105.437 472.163H103.805L100.605 464.163H102.109L104.621 470.675ZM117.182 468.803H110.478C110.616 469.507 110.942 470.062 111.454 470.467C111.966 470.862 112.606 471.059 113.374 471.059C114.43 471.059 115.198 470.67 115.678 469.891L116.862 470.563C116.072 471.768 114.899 472.371 113.342 472.371C112.083 472.371 111.048 471.976 110.238 471.187C109.448 470.376 109.054 469.368 109.054 468.163C109.054 466.947 109.443 465.944 110.222 465.155C111 464.355 112.008 463.955 113.246 463.955C114.419 463.955 115.374 464.371 116.11 465.203C116.856 466.014 117.23 467.006 117.23 468.179C117.23 468.382 117.214 468.59 117.182 468.803ZM113.246 465.267C112.51 465.267 111.891 465.475 111.39 465.891C110.899 466.307 110.595 466.872 110.478 467.587H115.822C115.704 466.851 115.411 466.28 114.942 465.875C114.472 465.47 113.907 465.267 113.246 465.267ZM120.222 472.163H118.83V460.483H120.222V472.163ZM122.826 470.515H124.426L123.386 474.403H122.186L122.826 470.515ZM131.592 466.323C131.592 466.835 132.12 467.235 133.176 467.523C133.571 467.608 133.902 467.699 134.168 467.795C134.446 467.88 134.744 468.014 135.064 468.195C135.395 468.376 135.646 468.616 135.816 468.915C135.987 469.214 136.072 469.566 136.072 469.971C136.072 470.696 135.79 471.278 135.224 471.715C134.659 472.152 133.944 472.371 133.08 472.371C132.312 472.371 131.646 472.206 131.08 471.875C130.526 471.534 130.131 471.075 129.896 470.499L131.096 469.811C131.224 470.195 131.464 470.499 131.816 470.723C132.168 470.947 132.59 471.059 133.08 471.059C133.56 471.059 133.944 470.968 134.232 470.787C134.52 470.606 134.664 470.334 134.664 469.971C134.664 469.427 134.136 469.032 133.08 468.787C132.728 468.691 132.462 468.616 132.28 468.563C132.099 468.51 131.848 468.414 131.528 468.275C131.219 468.136 130.984 467.992 130.824 467.843C130.664 467.683 130.515 467.475 130.376 467.219C130.248 466.952 130.184 466.659 130.184 466.339C130.184 465.646 130.451 465.075 130.984 464.627C131.528 464.179 132.206 463.955 133.016 463.955C133.667 463.955 134.243 464.104 134.744 464.403C135.256 464.691 135.64 465.096 135.896 465.619L134.728 466.275C134.44 465.592 133.87 465.251 133.016 465.251C132.611 465.251 132.27 465.347 131.992 465.539C131.726 465.731 131.592 465.992 131.592 466.323ZM144.254 471.155C143.443 471.966 142.446 472.371 141.262 472.371C140.078 472.371 139.08 471.966 138.27 471.155C137.459 470.344 137.054 469.347 137.054 468.163C137.054 466.979 137.459 465.982 138.27 465.171C139.08 464.36 140.078 463.955 141.262 463.955C142.446 463.955 143.443 464.36 144.254 465.171C145.075 465.992 145.486 466.99 145.486 468.163C145.486 469.336 145.075 470.334 144.254 471.155ZM141.262 471.011C142.062 471.011 142.734 470.739 143.278 470.195C143.822 469.651 144.094 468.974 144.094 468.163C144.094 467.352 143.822 466.675 143.278 466.131C142.734 465.587 142.062 465.315 141.262 465.315C140.472 465.315 139.806 465.587 139.262 466.131C138.718 466.675 138.446 467.352 138.446 468.163C138.446 468.974 138.718 469.651 139.262 470.195C139.806 470.739 140.472 471.011 141.262 471.011ZM151.831 462.707C151.564 462.707 151.34 462.616 151.159 462.435C150.977 462.254 150.887 462.035 150.887 461.779C150.887 461.523 150.977 461.304 151.159 461.123C151.34 460.931 151.564 460.835 151.831 460.835C152.087 460.835 152.305 460.931 152.487 461.123C152.668 461.304 152.759 461.523 152.759 461.779C152.759 462.035 152.668 462.254 152.487 462.435C152.305 462.616 152.087 462.707 151.831 462.707ZM152.519 472.163H151.127V464.163H152.519V472.163ZM158.626 463.955C159.565 463.955 160.317 464.254 160.882 464.851C161.448 465.438 161.73 466.238 161.73 467.251V472.163H160.338V467.331C160.338 466.691 160.162 466.19 159.81 465.827C159.458 465.464 158.973 465.283 158.354 465.283C157.64 465.283 157.074 465.507 156.658 465.955C156.242 466.392 156.034 467.048 156.034 467.923V472.163H154.642V464.163H156.034V465.315C156.589 464.408 157.453 463.955 158.626 463.955ZM170.298 465.539V460.963H171.69V472.163H170.298V470.787C169.615 471.843 168.607 472.371 167.274 472.371C166.143 472.371 165.188 471.966 164.41 471.155C163.62 470.334 163.226 469.336 163.226 468.163C163.226 467 163.62 466.008 164.41 465.187C165.199 464.366 166.154 463.955 167.274 463.955C168.607 463.955 169.615 464.483 170.298 465.539ZM167.45 471.027C168.26 471.027 168.938 470.755 169.482 470.211C170.026 469.646 170.298 468.963 170.298 468.163C170.298 467.352 170.026 466.675 169.482 466.131C168.938 465.576 168.26 465.299 167.45 465.299C166.65 465.299 165.978 465.576 165.434 466.131C164.89 466.675 164.618 467.352 164.618 468.163C164.618 468.963 164.89 469.646 165.434 470.211C165.978 470.755 166.65 471.027 167.45 471.027ZM174.503 462.707C174.236 462.707 174.012 462.616 173.831 462.435C173.649 462.254 173.559 462.035 173.559 461.779C173.559 461.523 173.649 461.304 173.831 461.123C174.012 460.931 174.236 460.835 174.503 460.835C174.759 460.835 174.977 460.931 175.159 461.123C175.34 461.304 175.431 461.523 175.431 461.779C175.431 462.035 175.34 462.254 175.159 462.435C174.977 462.616 174.759 462.707 174.503 462.707ZM175.191 472.163H173.799V464.163H175.191V472.163ZM180.402 470.675L182.914 464.163H184.418L181.218 472.163H179.586L176.386 464.163H177.89L180.402 470.675ZM186.3 462.707C186.033 462.707 185.809 462.616 185.628 462.435C185.446 462.254 185.356 462.035 185.356 461.779C185.356 461.523 185.446 461.304 185.628 461.123C185.809 460.931 186.033 460.835 186.3 460.835C186.556 460.835 186.774 460.931 186.956 461.123C187.137 461.304 187.228 461.523 187.228 461.779C187.228 462.035 187.137 462.254 186.956 462.435C186.774 462.616 186.556 462.707 186.3 462.707ZM186.988 472.163H185.596V464.163H186.988V472.163ZM195.735 465.539V460.963H197.127V472.163H195.735V470.787C195.053 471.843 194.045 472.371 192.711 472.371C191.581 472.371 190.626 471.966 189.847 471.155C189.058 470.334 188.663 469.336 188.663 468.163C188.663 467 189.058 466.008 189.847 465.187C190.637 464.366 191.591 463.955 192.711 463.955C194.045 463.955 195.053 464.483 195.735 465.539ZM192.887 471.027C193.698 471.027 194.375 470.755 194.919 470.211C195.463 469.646 195.735 468.963 195.735 468.163C195.735 467.352 195.463 466.675 194.919 466.131C194.375 465.576 193.698 465.299 192.887 465.299C192.087 465.299 191.415 465.576 190.871 466.131C190.327 466.675 190.055 467.352 190.055 468.163C190.055 468.963 190.327 469.646 190.871 470.211C191.415 470.755 192.087 471.027 192.887 471.027ZM204.756 468.403V464.163H206.148V472.163H204.756V471.011C204.202 471.918 203.338 472.371 202.164 472.371C201.226 472.371 200.474 472.078 199.908 471.491C199.343 470.894 199.06 470.088 199.06 469.075V464.163H200.452V468.995C200.452 469.635 200.628 470.136 200.98 470.499C201.332 470.862 201.818 471.043 202.436 471.043C203.151 471.043 203.716 470.824 204.132 470.387C204.548 469.939 204.756 469.278 204.756 468.403ZM214.891 465.539V464.163H216.283V472.163H214.891V470.787C214.209 471.843 213.201 472.371 211.867 472.371C210.737 472.371 209.782 471.966 209.003 471.155C208.214 470.334 207.819 469.336 207.819 468.163C207.819 467 208.214 466.008 209.003 465.187C209.793 464.366 210.747 463.955 211.867 463.955C213.201 463.955 214.209 464.483 214.891 465.539ZM212.043 471.027C212.854 471.027 213.531 470.755 214.075 470.211C214.619 469.646 214.891 468.963 214.891 468.163C214.891 467.352 214.619 466.675 214.075 466.131C213.531 465.576 212.854 465.299 212.043 465.299C211.243 465.299 210.571 465.576 210.027 466.131C209.483 466.675 209.211 467.352 209.211 468.163C209.211 468.963 209.483 469.646 210.027 470.211C210.571 470.755 211.243 471.027 212.043 471.027ZM219.784 472.163H218.392V460.483H219.784V472.163ZM231.428 468.403V464.163H232.82V472.163H231.428V471.011C230.873 471.918 230.009 472.371 228.836 472.371C227.897 472.371 227.145 472.078 226.58 471.491C226.015 470.894 225.732 470.088 225.732 469.075V464.163H227.124V468.995C227.124 469.635 227.3 470.136 227.652 470.499C228.004 470.862 228.489 471.043 229.108 471.043C229.823 471.043 230.388 470.824 230.804 470.387C231.22 469.939 231.428 469.278 231.428 468.403ZM236.124 466.323C236.124 466.835 236.652 467.235 237.708 467.523C238.102 467.608 238.433 467.699 238.7 467.795C238.977 467.88 239.276 468.014 239.596 468.195C239.926 468.376 240.177 468.616 240.348 468.915C240.518 469.214 240.604 469.566 240.604 469.971C240.604 470.696 240.321 471.278 239.756 471.715C239.19 472.152 238.476 472.371 237.612 472.371C236.844 472.371 236.177 472.206 235.612 471.875C235.057 471.534 234.662 471.075 234.428 470.499L235.628 469.811C235.756 470.195 235.996 470.499 236.348 470.723C236.7 470.947 237.121 471.059 237.612 471.059C238.092 471.059 238.476 470.968 238.764 470.787C239.052 470.606 239.196 470.334 239.196 469.971C239.196 469.427 238.668 469.032 237.612 468.787C237.26 468.691 236.993 468.616 236.812 468.563C236.63 468.51 236.38 468.414 236.06 468.275C235.75 468.136 235.516 467.992 235.356 467.843C235.196 467.683 235.046 467.475 234.908 467.219C234.78 466.952 234.716 466.659 234.716 466.339C234.716 465.646 234.982 465.075 235.516 464.627C236.06 464.179 236.737 463.955 237.548 463.955C238.198 463.955 238.774 464.104 239.276 464.403C239.788 464.691 240.172 465.096 240.428 465.619L239.26 466.275C238.972 465.592 238.401 465.251 237.548 465.251C237.142 465.251 236.801 465.347 236.524 465.539C236.257 465.731 236.124 465.992 236.124 466.323ZM249.713 468.803H243.009C243.148 469.507 243.473 470.062 243.985 470.467C244.497 470.862 245.137 471.059 245.905 471.059C246.961 471.059 247.729 470.67 248.209 469.891L249.393 470.563C248.604 471.768 247.43 472.371 245.873 472.371C244.614 472.371 243.58 471.976 242.769 471.187C241.98 470.376 241.585 469.368 241.585 468.163C241.585 466.947 241.974 465.944 242.753 465.155C243.532 464.355 244.54 463.955 245.777 463.955C246.95 463.955 247.905 464.371 248.641 465.203C249.388 466.014 249.761 467.006 249.761 468.179C249.761 468.382 249.745 468.59 249.713 468.803ZM245.777 465.267C245.041 465.267 244.422 465.475 243.921 465.891C243.43 466.307 243.126 466.872 243.009 467.587H248.353C248.236 466.851 247.942 466.28 247.473 465.875C247.004 465.47 246.438 465.267 245.777 465.267ZM252.753 464.163V465.507C253.212 464.515 254.044 464.019 255.249 464.019V465.475C254.567 465.443 253.98 465.624 253.489 466.019C252.999 466.414 252.753 467.048 252.753 467.923V472.163H251.361V464.163H252.753ZM257.514 466.323C257.514 466.835 258.042 467.235 259.098 467.523C259.493 467.608 259.824 467.699 260.09 467.795C260.368 467.88 260.666 468.014 260.986 468.195C261.317 468.376 261.568 468.616 261.738 468.915C261.909 469.214 261.994 469.566 261.994 469.971C261.994 470.696 261.712 471.278 261.146 471.715C260.581 472.152 259.866 472.371 259.002 472.371C258.234 472.371 257.568 472.206 257.002 471.875C256.448 471.534 256.053 471.075 255.818 470.499L257.018 469.811C257.146 470.195 257.386 470.499 257.738 470.723C258.09 470.947 258.512 471.059 259.002 471.059C259.482 471.059 259.866 470.968 260.154 470.787C260.442 470.606 260.586 470.334 260.586 469.971C260.586 469.427 260.058 469.032 259.002 468.787C258.65 468.691 258.384 468.616 258.202 468.563C258.021 468.51 257.77 468.414 257.45 468.275C257.141 468.136 256.906 467.992 256.746 467.843C256.586 467.683 256.437 467.475 256.298 467.219C256.17 466.952 256.106 466.659 256.106 466.339C256.106 465.646 256.373 465.075 256.906 464.627C257.45 464.179 258.128 463.955 258.938 463.955C259.589 463.955 260.165 464.104 260.666 464.403C261.178 464.691 261.562 465.096 261.818 465.619L260.65 466.275C260.362 465.592 259.792 465.251 258.938 465.251C258.533 465.251 258.192 465.347 257.914 465.539C257.648 465.731 257.514 465.992 257.514 466.323ZM271.402 472.371C270.197 472.371 269.194 471.971 268.394 471.171C267.594 470.36 267.194 469.358 267.194 468.163C267.194 466.968 267.594 465.971 268.394 465.171C269.194 464.36 270.197 463.955 271.402 463.955C272.192 463.955 272.901 464.147 273.53 464.531C274.16 464.904 274.629 465.411 274.938 466.051L273.77 466.723C273.568 466.296 273.253 465.955 272.826 465.699C272.41 465.443 271.936 465.315 271.402 465.315C270.602 465.315 269.93 465.587 269.386 466.131C268.853 466.686 268.586 467.363 268.586 468.163C268.586 468.952 268.853 469.624 269.386 470.179C269.93 470.723 270.602 470.995 271.402 470.995C271.936 470.995 272.416 470.872 272.842 470.627C273.269 470.371 273.594 470.03 273.818 469.603L275.002 470.291C274.65 470.931 274.154 471.438 273.514 471.811C272.874 472.184 272.17 472.371 271.402 472.371ZM282.891 465.539V464.163H284.283V472.163H282.891V470.787C282.209 471.843 281.201 472.371 279.867 472.371C278.737 472.371 277.782 471.966 277.003 471.155C276.214 470.334 275.819 469.336 275.819 468.163C275.819 467 276.214 466.008 277.003 465.187C277.793 464.366 278.747 463.955 279.867 463.955C281.201 463.955 282.209 464.483 282.891 465.539ZM280.043 471.027C280.854 471.027 281.531 470.755 282.075 470.211C282.619 469.646 282.891 468.963 282.891 468.163C282.891 467.352 282.619 466.675 282.075 466.131C281.531 465.576 280.854 465.299 280.043 465.299C279.243 465.299 278.571 465.576 278.027 466.131C277.483 466.675 277.211 467.352 277.211 468.163C277.211 468.963 277.483 469.646 278.027 470.211C278.571 470.755 279.243 471.027 280.043 471.027ZM290.376 463.955C291.315 463.955 292.067 464.254 292.632 464.851C293.198 465.438 293.48 466.238 293.48 467.251V472.163H292.088V467.331C292.088 466.691 291.912 466.19 291.56 465.827C291.208 465.464 290.723 465.283 290.104 465.283C289.39 465.283 288.824 465.507 288.408 465.955C287.992 466.392 287.784 467.048 287.784 467.923V472.163H286.392V464.163H287.784V465.315C288.339 464.408 289.203 463.955 290.376 463.955ZM299.408 463.955C300.346 463.955 301.098 464.254 301.664 464.851C302.229 465.438 302.512 466.238 302.512 467.251V472.163H301.12V467.331C301.12 466.691 300.944 466.19 300.592 465.827C300.24 465.464 299.754 465.283 299.136 465.283C298.421 465.283 297.856 465.507 297.44 465.955C297.024 466.392 296.816 467.048 296.816 467.923V472.163H295.424V464.163H296.816V465.315C297.37 464.408 298.234 463.955 299.408 463.955ZM311.207 471.155C310.396 471.966 309.399 472.371 308.215 472.371C307.031 472.371 306.034 471.966 305.223 471.155C304.412 470.344 304.007 469.347 304.007 468.163C304.007 466.979 304.412 465.982 305.223 465.171C306.034 464.36 307.031 463.955 308.215 463.955C309.399 463.955 310.396 464.36 311.207 465.171C312.028 465.992 312.439 466.99 312.439 468.163C312.439 469.336 312.028 470.334 311.207 471.155ZM308.215 471.011C309.015 471.011 309.687 470.739 310.231 470.195C310.775 469.651 311.047 468.974 311.047 468.163C311.047 467.352 310.775 466.675 310.231 466.131C309.687 465.587 309.015 465.315 308.215 465.315C307.426 465.315 306.759 465.587 306.215 466.131C305.671 466.675 305.399 467.352 305.399 468.163C305.399 468.974 305.671 469.651 306.215 470.195C306.759 470.739 307.426 471.011 308.215 471.011ZM318.26 464.163V465.507H316.132V469.843C316.132 470.238 316.207 470.52 316.356 470.691C316.516 470.851 316.756 470.936 317.076 470.947C317.396 470.947 317.791 470.936 318.26 470.915V472.163C317.033 472.323 316.137 472.222 315.572 471.859C315.017 471.496 314.74 470.824 314.74 469.843V465.507H313.156V464.163H314.74V462.339L316.132 461.923V464.163H318.26ZM328.371 463.955C329.491 463.955 330.446 464.366 331.235 465.187C332.024 466.008 332.419 467 332.419 468.163C332.419 469.336 332.024 470.334 331.235 471.155C330.456 471.966 329.502 472.371 328.371 472.371C327.048 472.371 326.04 471.843 325.347 470.787V472.163H323.955V460.963H325.347V465.539C326.04 464.483 327.048 463.955 328.371 463.955ZM328.195 471.027C328.995 471.027 329.667 470.755 330.211 470.211C330.755 469.646 331.027 468.963 331.027 468.163C331.027 467.352 330.755 466.675 330.211 466.131C329.667 465.576 328.995 465.299 328.195 465.299C327.384 465.299 326.707 465.576 326.163 466.131C325.619 466.675 325.347 467.352 325.347 468.163C325.347 468.963 325.619 469.646 326.163 470.211C326.707 470.755 327.384 471.027 328.195 471.027ZM341.76 468.803H335.056C335.195 469.507 335.52 470.062 336.032 470.467C336.544 470.862 337.184 471.059 337.952 471.059C339.008 471.059 339.776 470.67 340.256 469.891L341.44 470.563C340.651 471.768 339.477 472.371 337.92 472.371C336.661 472.371 335.627 471.976 334.816 471.187C334.027 470.376 333.632 469.368 333.632 468.163C333.632 466.947 334.021 465.944 334.8 465.155C335.579 464.355 336.587 463.955 337.824 463.955C338.997 463.955 339.952 464.371 340.688 465.203C341.435 466.014 341.808 467.006 341.808 468.179C341.808 468.382 341.792 468.59 341.76 468.803ZM337.824 465.267C337.088 465.267 336.469 465.475 335.968 465.891C335.477 466.307 335.173 466.872 335.056 467.587H340.4C340.283 466.851 339.989 466.28 339.52 465.875C339.051 465.47 338.485 465.267 337.824 465.267ZM354.032 465.539V464.163H355.424V472.163H354.032V470.787C353.349 471.843 352.341 472.371 351.008 472.371C349.877 472.371 348.923 471.966 348.144 471.155C347.355 470.334 346.96 469.336 346.96 468.163C346.96 467 347.355 466.008 348.144 465.187C348.933 464.366 349.888 463.955 351.008 463.955C352.341 463.955 353.349 464.483 354.032 465.539ZM351.184 471.027C351.995 471.027 352.672 470.755 353.216 470.211C353.76 469.646 354.032 468.963 354.032 468.163C354.032 467.352 353.76 466.675 353.216 466.131C352.672 465.576 351.995 465.299 351.184 465.299C350.384 465.299 349.712 465.576 349.168 466.131C348.624 466.675 348.352 467.352 348.352 468.163C348.352 468.963 348.624 469.646 349.168 470.211C349.712 470.755 350.384 471.027 351.184 471.027ZM364.157 465.539V460.963H365.549V472.163H364.157V470.787C363.474 471.843 362.466 472.371 361.133 472.371C360.002 472.371 359.048 471.966 358.269 471.155C357.48 470.334 357.085 469.336 357.085 468.163C357.085 467 357.48 466.008 358.269 465.187C359.058 464.366 360.013 463.955 361.133 463.955C362.466 463.955 363.474 464.483 364.157 465.539ZM361.309 471.027C362.12 471.027 362.797 470.755 363.341 470.211C363.885 469.646 364.157 468.963 364.157 468.163C364.157 467.352 363.885 466.675 363.341 466.131C362.797 465.576 362.12 465.299 361.309 465.299C360.509 465.299 359.837 465.576 359.293 466.131C358.749 466.675 358.477 467.352 358.477 468.163C358.477 468.963 358.749 469.646 359.293 470.211C359.837 470.755 360.509 471.027 361.309 471.027ZM374.282 465.539V460.963H375.674V472.163H374.282V470.787C373.599 471.843 372.591 472.371 371.258 472.371C370.127 472.371 369.173 471.966 368.394 471.155C367.605 470.334 367.21 469.336 367.21 468.163C367.21 467 367.605 466.008 368.394 465.187C369.183 464.366 370.138 463.955 371.258 463.955C372.591 463.955 373.599 464.483 374.282 465.539ZM371.434 471.027C372.245 471.027 372.922 470.755 373.466 470.211C374.01 469.646 374.282 468.963 374.282 468.163C374.282 467.352 374.01 466.675 373.466 466.131C372.922 465.576 372.245 465.299 371.434 465.299C370.634 465.299 369.962 465.576 369.418 466.131C368.874 466.675 368.602 467.352 368.602 468.163C368.602 468.963 368.874 469.646 369.418 470.211C369.962 470.755 370.634 471.027 371.434 471.027ZM385.463 468.803H378.759C378.898 469.507 379.223 470.062 379.735 470.467C380.247 470.862 380.887 471.059 381.655 471.059C382.711 471.059 383.479 470.67 383.959 469.891L385.143 470.563C384.354 471.768 383.18 472.371 381.623 472.371C380.364 472.371 379.33 471.976 378.519 471.187C377.73 470.376 377.335 469.368 377.335 468.163C377.335 466.947 377.724 465.944 378.503 465.155C379.282 464.355 380.29 463.955 381.527 463.955C382.7 463.955 383.655 464.371 384.391 465.203C385.138 466.014 385.511 467.006 385.511 468.179C385.511 468.382 385.495 468.59 385.463 468.803ZM381.527 465.267C380.791 465.267 380.172 465.475 379.671 465.891C379.18 466.307 378.876 466.872 378.759 467.587H384.103C383.986 466.851 383.692 466.28 383.223 465.875C382.754 465.47 382.188 465.267 381.527 465.267ZM393.72 465.539V460.963H395.112V472.163H393.72V470.787C393.037 471.843 392.029 472.371 390.696 472.371C389.565 472.371 388.61 471.966 387.832 471.155C387.042 470.334 386.648 469.336 386.648 468.163C386.648 467 387.042 466.008 387.832 465.187C388.621 464.366 389.576 463.955 390.696 463.955C392.029 463.955 393.037 464.483 393.72 465.539ZM390.872 471.027C391.682 471.027 392.36 470.755 392.904 470.211C393.448 469.646 393.72 468.963 393.72 468.163C393.72 467.352 393.448 466.675 392.904 466.131C392.36 465.576 391.682 465.299 390.872 465.299C390.072 465.299 389.4 465.576 388.856 466.131C388.312 466.675 388.04 467.352 388.04 468.163C388.04 468.963 388.312 469.646 388.856 470.211C389.4 470.755 390.072 471.027 390.872 471.027ZM398.101 472.339C397.813 472.339 397.567 472.238 397.365 472.035C397.162 471.832 397.061 471.587 397.061 471.299C397.061 471.011 397.162 470.766 397.365 470.563C397.567 470.36 397.813 470.259 398.101 470.259C398.399 470.259 398.645 470.36 398.837 470.563C399.039 470.766 399.141 471.011 399.141 471.299C399.141 471.587 399.039 471.832 398.837 472.035C398.645 472.238 398.399 472.339 398.101 472.339Z" fill="#7F7F7F"/>
<defs>
<linearGradient id="paint0_linear_10209_5905" x1="232.092" y1="83.4119" x2="232.092" y2="380.751" gradientUnits="userSpaceOnUse">
<stop offset="0.605" stop-color="#EEEEEE"/>
<stop offset="1" stop-color="white"/>
</linearGradient>
<linearGradient id="paint1_linear_10209_5905" x1="232.092" y1="40.1933" x2="232.092" y2="423.97" gradientUnits="userSpaceOnUse">
<stop offset="0.605" stop-color="#EEEEEE"/>
<stop offset="1" stop-color="white"/>
</linearGradient>
<linearGradient id="paint2_linear_10209_5905" x1="232.092" y1="0" x2="232.092" y2="464.163" gradientUnits="userSpaceOnUse">
<stop offset="0.605" stop-color="#EEEEEE"/>
<stop offset="1" stop-color="white"/>
</linearGradient>
<clipPath id="clip0_10209_5905">
<rect width="21.2499" height="21.2499" fill="white" transform="translate(379.078 115.406)"/>
</clipPath>
<clipPath id="clip1_10209_5905">
<rect width="16.8042" height="16.8042" fill="white" transform="translate(10.3008 139.106)"/>
</clipPath>
<clipPath id="clip2_10209_5905">
<rect width="19.6283" height="19.6283" fill="white" transform="translate(459.547 215.923)"/>
</clipPath>
</defs>
</svg>
