<svg width="259" height="223" viewBox="0 0 259 223" fill="none" xmlns="http://www.w3.org/2000/svg">
<path d="M124.229 66.9612C140.488 66.9613 153.67 80.1424 153.67 96.4016C153.67 112.661 140.489 125.842 124.229 125.842C107.968 125.842 94.7861 112.661 94.7861 96.4016C94.7863 80.1423 107.968 66.9612 124.229 66.9612Z" stroke="#EEEEEE" stroke-width="1.01059"/>
<path d="M124.228 46.5065C151.785 46.5065 174.125 68.8457 174.125 96.402C174.125 123.958 151.785 146.297 124.228 146.297C96.6701 146.297 74.3301 123.958 74.3301 96.402C74.3301 68.8458 96.6701 46.5066 124.228 46.5065Z" stroke="#EEEEEE" stroke-width="1.01059"/>
<path d="M124.229 21.7852C165.44 21.7852 198.849 55.1929 198.849 96.4023C198.848 137.612 165.44 171.019 124.229 171.019C83.0173 171.019 49.6086 137.612 49.6084 96.4023C49.6084 55.1929 83.0172 21.7852 124.229 21.7852Z" stroke="url(#paint0_linear_10792_13709)" stroke-width="1.01059"/>
<path d="M124.229 -0.0529785C177.501 -0.0529785 220.688 43.1317 220.688 96.4021C220.687 149.672 177.501 192.856 124.229 192.856C70.9559 192.856 27.7696 149.672 27.7695 96.4021C27.7695 43.1319 70.9559 -0.05276 124.229 -0.0529785Z" stroke="url(#paint1_linear_10792_13709)" stroke-width="1.01059"/>
<path d="M124.229 -20.3623C188.718 -20.3623 240.998 31.9154 240.998 96.4023C240.998 160.889 188.718 213.166 124.229 213.166C59.7388 213.166 7.45916 160.889 7.45898 96.4023C7.45898 31.9155 59.7387 -20.3623 124.229 -20.3623Z" stroke="url(#paint2_linear_10792_13709)" stroke-width="1.01059"/>
<rect x="30.2031" y="127.747" width="18.9004" height="19.0555" rx="3.9092" fill="#F1F1F1"/>
<g clip-path="url(#clip0_10792_13709)">
<path d="M35.627 135.932C35.627 134.667 35.627 134.034 36.0201 133.641C36.4132 133.248 37.0459 133.248 38.3113 133.248H40.9957C42.2611 133.248 42.8938 133.248 43.2869 133.641C43.68 134.034 43.68 134.667 43.68 135.932V138.169C43.68 139.013 43.68 139.435 43.4179 139.697C43.1559 139.959 42.7341 139.959 41.8904 139.959H37.4165C36.5729 139.959 36.1511 139.959 35.889 139.697C35.627 139.435 35.627 139.013 35.627 138.169V135.932Z" stroke="#707072" stroke-width="0.671089"/>
<path d="M44.1275 141.301H35.1797" stroke="#707072" stroke-width="0.671089" stroke-linecap="round"/>
<path d="M40.9959 138.617H38.3115" stroke="#707072" stroke-width="0.671089" stroke-linecap="round"/>
</g>
<rect x="59.0068" y="-16.7283" width="18.9004" height="19.0555" rx="3.9092" fill="#F1F1F1"/>
<rect x="199.394" y="131.906" width="18.9004" height="19.0555" rx="3.9092" fill="#F1F1F1"/>
<g clip-path="url(#clip1_10792_13709)">
<path d="M210.186 144.565L211.081 145.46L212.87 143.671M209.291 137.407H207.144C206.642 137.407 206.392 137.407 206.2 137.505C206.032 137.59 205.895 137.727 205.809 137.896C205.712 138.087 205.712 138.338 205.712 138.839V144.029C205.712 144.53 205.712 144.78 205.809 144.972C205.895 145.14 206.032 145.277 206.2 145.363C206.392 145.46 206.642 145.46 207.144 145.46H208.844M209.291 137.407L211.975 140.092M209.291 137.407V139.376C209.291 139.626 209.291 139.752 209.34 139.847C209.383 139.931 209.451 140 209.535 140.043C209.631 140.092 209.756 140.092 210.007 140.092H211.975M211.975 140.092V142.105" stroke="#707072" stroke-width="0.894785" stroke-linecap="round" stroke-linejoin="round"/>
</g>
<rect x="174.631" y="-15.3862" width="18.9004" height="19.0555" rx="3.9092" fill="#F1F1F1"/>
<rect x="73.8252" y="56.9286" width="18.9004" height="19.0555" rx="3.9092" fill="#F1F1F1"/>
<path d="M87.1982 63.5996C87.1981 63.8414 87.102 64.0732 86.9311 64.2442C86.7602 64.4152 86.5284 64.5114 86.2867 64.5117H86.0007V69.2566C86.0004 69.4982 85.9043 69.7299 85.7334 69.9008C85.5625 70.0717 85.3308 70.1678 85.0892 70.1681H80.2624C80.1427 70.1681 80.0241 70.1445 79.9135 70.0987C79.8028 70.0529 79.7023 69.9857 79.6177 69.901C79.533 69.8164 79.4658 69.7158 79.42 69.6052C79.3742 69.4946 79.3506 69.376 79.3506 69.2563C79.3506 69.1365 79.3742 69.018 79.42 68.9073C79.4658 68.7967 79.533 68.6962 79.6177 68.6115C79.7023 68.5268 79.8028 68.4597 79.9135 68.4139C80.0241 68.368 80.1427 68.3444 80.2624 68.3444H80.5478V63.5996C80.5478 63.3577 80.6439 63.1256 80.8149 62.9545C80.986 62.7833 81.218 62.6871 81.4599 62.687H86.2861C86.528 62.6871 86.7599 62.7832 86.9309 62.9543C87.1019 63.1253 87.1981 63.3572 87.1982 63.5991V63.5996ZM80.2624 69.5419H84.2223C84.1611 69.3566 84.1611 69.1565 84.2223 68.9712H80.2635C80.1879 68.9712 80.1153 69.0012 80.0617 69.0548C80.0082 69.1083 79.9782 69.1809 79.9782 69.2566C79.9782 69.3322 80.0082 69.4048 80.0617 69.4584C80.1153 69.5119 80.1879 69.5419 80.2635 69.5419H80.2624ZM85.374 63.5996C85.3739 63.5027 85.3891 63.4064 85.4192 63.3142H81.4605C81.397 63.3141 81.3352 63.3354 81.2853 63.3747L81.2842 63.3753C81.25 63.4018 81.2224 63.4359 81.2035 63.4748C81.1846 63.5137 81.1749 63.5564 81.1751 63.5996V68.3444H84.7563C84.8344 68.3435 84.9104 68.3692 84.972 68.4171C85.0336 68.4651 85.0771 68.5325 85.0954 68.6084C85.1169 68.681 85.1147 68.7585 85.0892 68.8299C85.0637 68.9012 85.0162 68.9625 84.9535 69.0051C84.9093 69.0291 84.8721 69.0645 84.846 69.1075C84.8198 69.1505 84.8054 69.1997 84.8044 69.2501C84.8034 69.3005 84.8157 69.3502 84.8402 69.3943C84.8646 69.4383 84.9003 69.4752 84.9435 69.501C84.9868 69.5268 85.0361 69.5407 85.0865 69.5412C85.1369 69.5418 85.1865 69.529 85.2304 69.5042C85.2742 69.4794 85.3107 69.4434 85.3361 69.3999C85.3615 69.3564 85.375 69.3069 85.3751 69.2566L85.374 63.5996ZM84.888 64.4123H81.6329V65.0379H84.888V64.4123ZM84.888 65.6895H81.6329V66.3151H84.888V65.6895ZM84.888 66.9667H81.6329V67.5928H84.888V66.9667ZM86.5715 63.5996C86.5714 63.524 86.5412 63.4515 86.4877 63.398C86.4343 63.3445 86.3618 63.3144 86.2861 63.3142C86.2225 63.314 86.1608 63.3353 86.1109 63.3747H86.1098C86.0755 63.4013 86.0478 63.4354 86.0288 63.4744C86.0098 63.5134 86 63.5562 86.0002 63.5996V63.885H86.2861C86.3618 63.8849 86.4343 63.8548 86.4877 63.8013C86.5412 63.7478 86.5714 63.6753 86.5715 63.5996Z" fill="#707072"/>
<rect x="194.418" y="33.2876" width="18.9004" height="19.0555" rx="3.9092" fill="#F1F1F1"/>
<g clip-path="url(#clip2_10792_13709)">
<path d="M205.979 46.2834L205.692 43.9909C205.608 43.3193 205.037 42.8152 204.36 42.8152H203.867H203.374C202.698 42.8152 202.127 43.3193 202.043 43.9909L201.756 46.2834C201.689 46.8174 202.106 47.2892 202.644 47.2892H203.867H205.091C205.629 47.2892 206.045 46.8174 205.979 46.2834Z" stroke="#707072" stroke-width="0.894785" stroke-linecap="round" stroke-linejoin="round"/>
<path d="M203.868 41.0257C204.609 41.0257 205.21 40.4248 205.21 39.6835C205.21 38.9422 204.609 38.3413 203.868 38.3413C203.126 38.3413 202.525 38.9422 202.525 39.6835C202.525 40.4248 203.126 41.0257 203.868 41.0257Z" stroke="#707072" stroke-width="0.894785"/>
<path d="M200.288 42.3679C200.783 42.3679 201.183 41.9673 201.183 41.4732C201.183 40.979 200.783 40.5784 200.288 40.5784C199.794 40.5784 199.394 40.979 199.394 41.4732C199.394 41.9673 199.794 42.3679 200.288 42.3679Z" stroke="#707072" stroke-width="0.894785"/>
<path d="M207.447 42.3679C207.941 42.3679 208.341 41.9673 208.341 41.4732C208.341 40.979 207.941 40.5784 207.447 40.5784C206.952 40.5784 206.552 40.979 206.552 41.4732C206.552 41.9673 206.952 42.3679 207.447 42.3679Z" stroke="#707072" stroke-width="0.894785"/>
<path d="M200.288 43.7102H200.152C199.714 43.7102 199.341 44.0264 199.269 44.4579L199.12 45.3527C199.029 45.8981 199.45 46.3946 200.002 46.3946H201.631" stroke="#707072" stroke-width="0.894785" stroke-linecap="round" stroke-linejoin="round"/>
<path d="M207.447 43.7102H207.583C208.021 43.7102 208.394 44.0264 208.466 44.4579L208.615 45.3527C208.706 45.8981 208.286 46.3946 207.733 46.3946C207.213 46.3946 206.594 46.3946 206.104 46.3946" stroke="#707072" stroke-width="0.894785" stroke-linecap="round" stroke-linejoin="round"/>
</g>
<rect x="99.1377" y="133.561" width="18.9004" height="19.0555" rx="3.9092" fill="#F1F1F1"/>
<g clip-path="url(#clip3_10792_13709)">
<path d="M108.587 145.326V147.115M106.798 147.115H110.377M105.992 145.326H111.182C111.683 145.326 111.934 145.326 112.125 145.228C112.293 145.143 112.43 145.006 112.516 144.837C112.614 144.646 112.614 144.395 112.614 143.894V140.494C112.614 139.993 112.614 139.742 112.516 139.551C112.43 139.383 112.293 139.246 112.125 139.16C111.934 139.062 111.683 139.062 111.182 139.062H105.992C105.491 139.062 105.241 139.062 105.049 139.16C104.881 139.246 104.744 139.383 104.658 139.551C104.561 139.742 104.561 139.993 104.561 140.494V143.894C104.561 144.395 104.561 144.646 104.658 144.837C104.744 145.006 104.881 145.143 105.049 145.228C105.241 145.326 105.491 145.326 105.992 145.326Z" stroke="#707072" stroke-width="0.894785" stroke-linecap="round"/>
</g>
<rect x="165.181" y="77.3467" width="18.9004" height="19.0555" rx="3.9092" fill="#F1F1F1"/>
<path fill-rule="evenodd" clip-rule="evenodd" d="M170.417 84.2404C170.417 83.3676 171.125 82.66 171.997 82.66H174.631H177.266C178.138 82.66 178.846 83.3676 178.846 84.2404V86.8745V89.5085C178.846 90.3814 178.138 91.089 177.266 91.089H174.631H171.997C171.125 91.089 170.417 90.3814 170.417 89.5085V86.8745V84.2404ZM171.997 83.7136C171.706 83.7136 171.471 83.9495 171.471 84.2404V86.3477H174.105V83.7136H171.997ZM175.158 83.7136V86.3477H177.792V84.2404C177.792 83.9495 177.557 83.7136 177.266 83.7136H175.158ZM177.792 87.4013H175.158V90.0353H177.266C177.557 90.0353 177.792 89.7995 177.792 89.5085V87.4013ZM174.105 90.0353V87.4013H171.471V89.5085C171.471 89.7995 171.706 90.0353 171.997 90.0353H174.105Z" fill="#707072"/>
<rect x="113.957" y="14.2322" width="18.9004" height="19.0555" rx="3.9092" fill="#F1F1F1"/>
<path fill-rule="evenodd" clip-rule="evenodd" d="M119.193 21.1258C119.193 20.2529 119.901 19.5453 120.774 19.5453H123.408H126.042C126.915 19.5453 127.622 20.2529 127.622 21.1258V23.7598V26.3939C127.622 27.2668 126.915 27.9743 126.042 27.9743H123.408H120.774C119.901 27.9743 119.193 27.2668 119.193 26.3939V23.7598V21.1258ZM120.774 20.599C120.483 20.599 120.247 20.8348 120.247 21.1258V23.233H122.881V20.599H120.774ZM123.935 20.599V23.233H126.569V21.1258C126.569 20.8348 126.333 20.599 126.042 20.599H123.935ZM126.569 24.2867H123.935V26.9207H126.042C126.333 26.9207 126.569 26.6849 126.569 26.3939V24.2867ZM122.881 26.9207V24.2867H120.247V26.3939C120.247 26.6849 120.483 26.9207 120.774 26.9207H122.881Z" fill="#707072"/>
<rect x="6.9541" y="44.1399" width="18.9004" height="19.0555" rx="3.9092" fill="#F1F1F1"/>
<g clip-path="url(#clip4_10792_13709)">
<path fill-rule="evenodd" clip-rule="evenodd" d="M19.2878 54.8942L15.2079 57.6525C14.2137 58.3247 12.8672 57.6184 12.8672 56.4261V50.9091C12.8672 49.7161 14.2137 49.0106 15.2079 49.6828L19.2878 52.4411C20.1596 53.0305 20.1596 54.3047 19.2878 54.8942Z" fill="#707072"/>
</g>
<path d="M87.3951 183.813V177.154H89.0072V186.967H87.7456L83.1197 180.309V186.967H81.5076V177.154H82.7692L87.3951 183.813ZM96.7984 186.084C96.0882 186.794 95.2144 187.149 94.1771 187.149C93.1398 187.149 92.266 186.794 91.5557 186.084C90.8361 185.364 90.4764 184.491 90.4764 183.463C90.4764 182.435 90.8361 181.561 91.5557 180.841C92.266 180.131 93.1398 179.776 94.1771 179.776C95.2144 179.776 96.0882 180.131 96.7984 180.841C97.518 181.561 97.8778 182.435 97.8778 183.463C97.8778 184.491 97.518 185.364 96.7984 186.084ZM91.9903 183.463C91.9903 184.098 92.2006 184.626 92.6211 185.047C93.0416 185.467 93.5603 185.677 94.1771 185.677C94.7939 185.677 95.3125 185.467 95.7331 185.047C96.1536 184.626 96.3639 184.098 96.3639 183.463C96.3639 182.827 96.1536 182.299 95.7331 181.879C95.3125 181.458 94.7939 181.248 94.1771 181.248C93.5603 181.248 93.0416 181.458 92.6211 181.879C92.2006 182.299 91.9903 182.827 91.9903 183.463ZM102.849 186.967V177.154H104.461V186.967H102.849ZM110.011 179.776C110.824 179.776 111.473 180.038 111.959 180.561C112.455 181.075 112.702 181.776 112.702 182.664V186.967H111.188V182.818C111.188 182.294 111.048 181.893 110.768 181.612C110.487 181.332 110.104 181.192 109.618 181.192C109.067 181.192 108.632 181.365 108.315 181.71C107.997 182.047 107.838 182.547 107.838 183.21V186.967H106.324V179.958H107.838V180.855C108.305 180.136 109.03 179.776 110.011 179.776ZM117.027 185.285L118.975 179.958H120.629L117.896 186.967H116.143L113.41 179.958H115.064L117.027 185.285ZM127.244 186.084C126.533 186.794 125.66 187.149 124.622 187.149C123.585 187.149 122.711 186.794 122.001 186.084C121.281 185.364 120.922 184.491 120.922 183.463C120.922 182.435 121.281 181.561 122.001 180.841C122.711 180.131 123.585 179.776 124.622 179.776C125.66 179.776 126.533 180.131 127.244 180.841C127.963 181.561 128.323 182.435 128.323 183.463C128.323 184.491 127.963 185.364 127.244 186.084ZM122.435 183.463C122.435 184.098 122.646 184.626 123.066 185.047C123.487 185.467 124.005 185.677 124.622 185.677C125.239 185.677 125.758 185.467 126.178 185.047C126.599 184.626 126.809 184.098 126.809 183.463C126.809 182.827 126.599 182.299 126.178 181.879C125.758 181.458 125.239 181.248 124.622 181.248C124.005 181.248 123.487 181.458 123.066 181.879C122.646 182.299 122.435 182.827 122.435 183.463ZM131.122 178.626C130.935 178.813 130.711 178.907 130.449 178.907C130.187 178.907 129.958 178.813 129.762 178.626C129.575 178.43 129.482 178.201 129.482 177.939C129.482 177.678 129.575 177.454 129.762 177.267C129.949 177.07 130.178 176.972 130.449 176.972C130.72 176.972 130.949 177.07 131.136 177.267C131.323 177.454 131.416 177.678 131.416 177.939C131.416 178.201 131.318 178.43 131.122 178.626ZM131.206 186.967H129.692V179.958H131.206V186.967ZM136.272 187.149C135.216 187.149 134.333 186.794 133.623 186.084C132.922 185.364 132.571 184.491 132.571 183.463C132.571 182.416 132.922 181.542 133.623 180.841C134.333 180.131 135.216 179.776 136.272 179.776C136.954 179.776 137.576 179.939 138.136 180.266C138.697 180.594 139.118 181.033 139.398 181.584L138.094 182.341C137.935 182.005 137.692 181.743 137.365 181.556C137.048 181.36 136.678 181.262 136.258 181.262C135.641 181.262 135.122 181.472 134.702 181.893C134.291 182.322 134.085 182.846 134.085 183.463C134.085 184.079 134.291 184.603 134.702 185.033C135.122 185.453 135.641 185.663 136.258 185.663C136.669 185.663 137.038 185.57 137.365 185.383C137.702 185.187 137.954 184.92 138.122 184.584L139.426 185.327C139.127 185.888 138.692 186.332 138.122 186.659C137.562 186.986 136.945 187.149 136.272 187.149ZM147.181 184.107H141.602C141.714 184.631 141.967 185.037 142.359 185.327C142.761 185.617 143.256 185.761 143.845 185.761C144.639 185.761 145.242 185.472 145.653 184.892L146.901 185.621C146.219 186.64 145.195 187.149 143.831 187.149C142.7 187.149 141.78 186.803 141.07 186.112C140.369 185.411 140.018 184.528 140.018 183.463C140.018 182.425 140.364 181.551 141.056 180.841C141.738 180.131 142.626 179.776 143.719 179.776C144.738 179.776 145.579 180.136 146.242 180.855C146.906 181.575 147.237 182.449 147.237 183.477C147.237 183.663 147.219 183.874 147.181 184.107ZM141.588 182.874H145.709C145.607 182.322 145.373 181.897 145.009 181.598C144.653 181.299 144.219 181.15 143.705 181.15C143.144 181.15 142.677 181.304 142.303 181.612C141.929 181.921 141.691 182.341 141.588 182.874ZM149.656 181.893C149.656 182.107 149.768 182.285 149.992 182.425C150.216 182.556 150.543 182.682 150.973 182.804C151.3 182.878 151.585 182.958 151.828 183.042C152.071 183.126 152.328 183.252 152.599 183.421C152.87 183.579 153.076 183.794 153.216 184.065C153.366 184.327 153.436 184.635 153.426 184.991C153.426 185.663 153.165 186.191 152.641 186.575C152.118 186.958 151.469 187.149 150.693 187.149C150.001 187.149 149.408 187.004 148.913 186.715C148.417 186.425 148.057 186.023 147.833 185.509L149.137 184.752C149.371 185.425 149.889 185.761 150.693 185.761C151.487 185.761 151.884 185.5 151.884 184.976C151.884 184.593 151.44 184.294 150.553 184.079C150.216 183.995 149.931 183.911 149.698 183.827C149.473 183.743 149.221 183.621 148.941 183.463C148.67 183.304 148.459 183.093 148.31 182.832C148.17 182.57 148.104 182.266 148.114 181.921C148.114 181.276 148.357 180.757 148.842 180.365C149.338 179.972 149.95 179.776 150.679 179.776C151.258 179.776 151.772 179.907 152.221 180.168C152.679 180.421 153.029 180.776 153.272 181.234L151.997 181.949C151.763 181.416 151.324 181.15 150.679 181.15C150.38 181.15 150.132 181.215 149.936 181.346C149.749 181.477 149.656 181.659 149.656 181.893ZM164.065 177.154H165.901L162.481 183.07V186.967H160.869V183.07L157.449 177.154H159.285L161.682 181.5L164.065 177.154ZM172.233 184.107H166.654C166.766 184.631 167.018 185.037 167.411 185.327C167.813 185.617 168.308 185.761 168.897 185.761C169.691 185.761 170.294 185.472 170.705 184.892L171.953 185.621C171.27 186.64 170.247 187.149 168.883 187.149C167.752 187.149 166.831 186.803 166.121 186.112C165.42 185.411 165.07 184.528 165.07 183.463C165.07 182.425 165.416 181.551 166.107 180.841C166.789 180.131 167.677 179.776 168.771 179.776C169.789 179.776 170.63 180.136 171.294 180.855C171.957 181.575 172.289 182.449 172.289 183.477C172.289 183.663 172.27 183.874 172.233 184.107ZM166.64 182.874H170.761C170.658 182.322 170.425 181.897 170.06 181.598C169.705 181.299 169.27 181.15 168.756 181.15C168.196 181.15 167.729 181.304 167.355 181.612C166.981 181.921 166.743 182.341 166.64 182.874ZM177.313 179.958V181.416H175.575V184.78C175.575 185.07 175.64 185.28 175.771 185.411C175.902 185.533 176.094 185.603 176.346 185.621C176.608 185.631 176.93 185.626 177.313 185.607V186.967C176.154 187.107 175.323 187.009 174.818 186.673C174.313 186.327 174.061 185.696 174.061 184.78V181.416H172.771V179.958H174.061V178.444L175.575 177.996V179.958H177.313Z" fill="black"/>
<rect x="234.67" y="83.6682" width="18.9004" height="19.0555" rx="3.9092" fill="#F1F1F1"/>
<g clip-path="url(#clip5_10792_13709)">
<path d="M246.755 88.2371H241.486C241.28 88.2371 241.083 88.3187 240.938 88.464C240.793 88.6093 240.711 88.8064 240.711 89.0119V97.3803C240.711 97.5858 240.793 97.7829 240.938 97.9282C241.083 98.0735 241.28 98.1551 241.486 98.1551H246.755C246.96 98.1551 247.157 98.0735 247.303 97.9282C247.448 97.7829 247.53 97.5858 247.53 97.3803V89.0119C247.53 88.8064 247.448 88.6093 247.303 88.464C247.157 88.3187 246.96 88.2371 246.755 88.2371ZM246.755 97.3803H241.486V89.0119H246.755V97.3803Z" fill="#707072"/>
<path d="M244.121 96.6056C244.395 96.6056 244.617 96.3975 244.617 96.1407C244.617 95.8839 244.395 95.6758 244.121 95.6758C243.847 95.6758 243.625 95.8839 243.625 96.1407C243.625 96.3975 243.847 96.6056 244.121 96.6056Z" fill="#707072"/>
</g>
<g clip-path="url(#clip6_10792_13709)">
<g clip-path="url(#clip7_10792_13709)">
<path d="M130.831 91.9246C130.831 92.3304 130.67 92.7194 130.383 93.0064C130.096 93.2934 129.707 93.4549 129.301 93.4554H128.822V101.418C128.821 101.824 128.66 102.213 128.373 102.499C128.086 102.786 127.697 102.947 127.292 102.948H119.191C118.99 102.948 118.791 102.908 118.606 102.832C118.42 102.755 118.251 102.642 118.109 102.5C117.967 102.358 117.855 102.189 117.778 102.003C117.701 101.818 117.661 101.619 117.661 101.418C117.661 101.217 117.701 101.018 117.778 100.832C117.855 100.646 117.967 100.478 118.109 100.336C118.251 100.194 118.42 100.081 118.606 100.004C118.791 99.9271 118.99 99.8875 119.191 99.8875H119.67V91.9246C119.67 91.5186 119.832 91.1291 120.119 90.8419C120.406 90.5547 120.795 90.3932 121.201 90.3929H129.3C129.706 90.3932 130.096 90.5545 130.383 90.8416C130.67 91.1286 130.831 91.5178 130.831 91.9237V91.9246ZM119.191 101.897H125.837C125.734 101.586 125.734 101.25 125.837 100.939H119.193C119.066 100.939 118.944 100.99 118.855 101.08C118.765 101.169 118.714 101.291 118.714 101.418C118.714 101.545 118.765 101.667 118.855 101.757C118.944 101.847 119.066 101.897 119.193 101.897H119.191ZM127.77 91.9246C127.77 91.762 127.795 91.6003 127.846 91.4457H121.202C121.095 91.4455 120.992 91.4812 120.908 91.5472L120.906 91.5481C120.849 91.5927 120.803 91.6498 120.771 91.7151C120.739 91.7804 120.723 91.852 120.723 91.9246V99.8875H126.733C126.864 99.886 126.992 99.929 127.095 100.009C127.198 100.09 127.271 100.203 127.302 100.33C127.338 100.452 127.335 100.582 127.292 100.702C127.249 100.822 127.169 100.925 127.064 100.996C126.99 101.037 126.928 101.096 126.884 101.168C126.84 101.24 126.816 101.323 126.814 101.407C126.812 101.492 126.833 101.575 126.874 101.649C126.915 101.723 126.975 101.785 127.047 101.828C127.12 101.872 127.203 101.895 127.287 101.896C127.372 101.897 127.455 101.875 127.529 101.834C127.602 101.792 127.664 101.732 127.706 101.659C127.749 101.586 127.771 101.503 127.772 101.418L127.77 91.9246ZM126.954 93.2884H121.491V94.3383H126.954V93.2884ZM126.954 95.4318H121.491V96.4817H126.954V95.4318ZM126.954 97.5752H121.491V98.6261H126.954V97.5752ZM129.779 91.9246C129.779 91.7977 129.729 91.676 129.639 91.5862C129.549 91.4965 129.427 91.4459 129.3 91.4457C129.194 91.4452 129.09 91.481 129.006 91.5472H129.005C128.947 91.5918 128.901 91.649 128.869 91.7145C128.837 91.7799 128.82 91.8518 128.821 91.9246V92.4036H129.3C129.427 92.4033 129.549 92.3528 129.639 92.263C129.729 92.1732 129.779 92.0516 129.779 91.9246Z" fill="black"/>
</g>
</g>
<defs>
<linearGradient id="paint0_linear_10792_13709" x1="124.229" y1="21.2803" x2="124.229" y2="171.524" gradientUnits="userSpaceOnUse">
<stop offset="0.605" stop-color="#EEEEEE"/>
<stop offset="1" stop-color="white"/>
</linearGradient>
<linearGradient id="paint1_linear_10792_13709" x1="124.229" y1="-0.557861" x2="124.229" y2="193.362" gradientUnits="userSpaceOnUse">
<stop offset="0.605" stop-color="#EEEEEE"/>
<stop offset="1" stop-color="white"/>
</linearGradient>
<linearGradient id="paint2_linear_10792_13709" x1="124.229" y1="-20.8672" x2="124.229" y2="213.671" gradientUnits="userSpaceOnUse">
<stop offset="0.605" stop-color="#EEEEEE"/>
<stop offset="1" stop-color="white"/>
</linearGradient>
<clipPath id="clip0_10792_13709">
<rect width="10.7374" height="10.7374" fill="white" transform="translate(34.2842 131.906)"/>
</clipPath>
<clipPath id="clip1_10792_13709">
<rect width="10.7374" height="10.7374" fill="white" transform="translate(203.475 136.065)"/>
</clipPath>
<clipPath id="clip2_10792_13709">
<rect width="10.7374" height="10.7374" fill="white" transform="translate(198.499 37.4465)"/>
</clipPath>
<clipPath id="clip3_10792_13709">
<rect width="10.7374" height="10.7374" fill="white" transform="translate(103.219 137.72)"/>
</clipPath>
<clipPath id="clip4_10792_13709">
<rect width="8.49105" height="8.49105" fill="white" transform="translate(12.1592 49.4221)"/>
</clipPath>
<clipPath id="clip5_10792_13709">
<rect width="9.91806" height="9.91806" fill="white" transform="translate(239.161 88.2371)"/>
</clipPath>
<clipPath id="clip6_10792_13709">
<rect width="15.6641" height="15.6641" fill="white" transform="translate(116.557 89.0764)"/>
</clipPath>
<clipPath id="clip7_10792_13709">
<rect width="17.5283" height="17.5283" fill="white" transform="translate(115.482 87.9543)"/>
</clipPath>
</defs>
</svg>
