<svg width="552" height="521" viewBox="0 0 552 521" fill="none" xmlns="http://www.w3.org/2000/svg">
<path d="M266.091 194.818C298.271 194.818 324.358 220.903 324.358 253.081C324.358 285.259 298.271 311.345 266.091 311.345C233.911 311.345 207.824 285.259 207.824 253.081C207.825 220.903 233.911 194.818 266.091 194.818Z" stroke="#EEEEEE" stroke-width="2"/>
<path d="M266.091 154.337C320.628 154.337 364.841 198.547 364.841 253.082C364.84 307.617 320.628 351.826 266.091 351.826C211.553 351.826 167.342 307.617 167.342 253.082C167.342 198.547 211.553 154.337 266.091 154.337Z" stroke="#EEEEEE" stroke-width="2"/>
<path d="M266.091 105.412C347.65 105.412 413.768 171.526 413.768 253.082C413.767 334.637 347.65 400.751 266.091 400.751C184.532 400.751 118.415 334.637 118.415 253.082C118.415 171.526 184.532 105.412 266.091 105.412Z" stroke="url(#paint0_linear_10536_22840)" stroke-width="2"/>
<path d="M266.093 62.1932C371.522 62.1935 456.989 147.657 456.989 253.082C456.989 358.506 371.522 443.969 266.093 443.97C160.663 443.97 75.1952 358.506 75.1951 253.082C75.1951 147.657 160.663 62.1932 266.093 62.1932Z" stroke="url(#paint1_linear_10536_22840)" stroke-width="2"/>
<path d="M266.092 22C393.72 22 497.183 125.459 497.184 253.081C497.184 380.704 393.72 484.163 266.092 484.163C138.463 484.163 35 380.704 35 253.081C35.0002 125.459 138.463 22.0001 266.092 22Z" stroke="url(#paint2_linear_10536_22840)" stroke-width="2"/>
<rect x="80.0103" y="315.115" width="37.4049" height="37.7117" rx="7.73649" fill="#F1F1F1"/>
<path d="M90.7439 331.314C90.7439 328.81 90.7439 327.558 91.5219 326.78C92.2999 326.002 93.552 326.002 96.0564 326.002H101.369C103.873 326.002 105.125 326.002 105.903 326.78C106.681 327.558 106.681 328.81 106.681 331.314V335.741C106.681 337.411 106.681 338.246 106.163 338.764C105.644 339.283 104.809 339.283 103.14 339.283H94.2855C92.616 339.283 91.7812 339.283 91.2626 338.764C90.7439 338.246 90.7439 337.411 90.7439 335.741V331.314Z" stroke="#707072" stroke-width="1.32812"/>
<path d="M107.567 341.939H89.8591" stroke="#707072" stroke-width="1.32812" stroke-linecap="round"/>
<path d="M101.369 336.627H96.0566" stroke="#707072" stroke-width="1.32812" stroke-linecap="round"/>
<rect x="414.848" y="323.345" width="37.4049" height="37.7117" rx="7.73649" fill="#F1F1F1"/>
<path d="M436.206 348.399L437.977 350.17L441.519 346.628M434.435 334.233H430.185C429.194 334.233 428.698 334.233 428.319 334.426C427.986 334.595 427.715 334.866 427.545 335.2C427.352 335.578 427.352 336.074 427.352 337.066V347.337C427.352 348.329 427.352 348.824 427.545 349.203C427.715 349.536 427.986 349.807 428.319 349.977C428.698 350.17 429.194 350.17 430.185 350.17H433.55M434.435 334.233L439.748 339.545M434.435 334.233V338.128C434.435 338.624 434.435 338.872 434.532 339.062C434.617 339.228 434.752 339.364 434.919 339.449C435.108 339.545 435.356 339.545 435.852 339.545H439.748M439.748 339.545V343.529" stroke="#707072" stroke-width="1.77082" stroke-linecap="round" stroke-linejoin="round"/>
<rect x="166.342" y="174.962" width="37.4049" height="37.7117" rx="7.73649" fill="#F1F1F1"/>
<path d="M192.809 188.164C192.809 188.643 192.619 189.101 192.281 189.44C191.942 189.778 191.484 189.969 191.005 189.969H190.439V199.359C190.439 199.838 190.248 200.296 189.91 200.634C189.572 200.973 189.114 201.163 188.635 201.163H179.083C178.846 201.163 178.611 201.117 178.392 201.026C178.173 200.935 177.974 200.803 177.807 200.635C177.639 200.467 177.506 200.268 177.416 200.049C177.325 199.831 177.278 199.596 177.278 199.359C177.278 199.122 177.325 198.887 177.416 198.668C177.506 198.449 177.639 198.25 177.807 198.083C177.974 197.915 178.173 197.782 178.392 197.692C178.611 197.601 178.846 197.554 179.083 197.554H179.648V188.164C179.648 187.685 179.838 187.226 180.176 186.887C180.515 186.549 180.974 186.358 181.453 186.358H191.004C191.483 186.358 191.942 186.548 192.28 186.887C192.619 187.225 192.809 187.684 192.809 188.163V188.164ZM179.083 199.924H186.92C186.799 199.557 186.799 199.161 186.92 198.795H179.085C178.935 198.795 178.792 198.854 178.686 198.96C178.58 199.066 178.52 199.21 178.52 199.359C178.52 199.509 178.58 199.653 178.686 199.759C178.792 199.865 178.935 199.924 179.085 199.924H179.083ZM189.199 188.164C189.199 187.972 189.229 187.782 189.288 187.599H181.454C181.328 187.599 181.206 187.641 181.107 187.719L181.105 187.72C181.037 187.773 180.983 187.84 180.945 187.917C180.908 187.994 180.889 188.079 180.889 188.164V197.554H187.977C188.131 197.553 188.281 197.603 188.403 197.698C188.525 197.793 188.611 197.926 188.648 198.077C188.69 198.22 188.686 198.374 188.635 198.515C188.585 198.656 188.491 198.778 188.367 198.862C188.279 198.909 188.206 198.979 188.154 199.064C188.102 199.15 188.074 199.247 188.072 199.347C188.07 199.446 188.094 199.545 188.142 199.632C188.191 199.719 188.261 199.792 188.347 199.843C188.433 199.894 188.53 199.922 188.63 199.923C188.73 199.924 188.828 199.899 188.915 199.85C189.001 199.8 189.074 199.729 189.124 199.643C189.174 199.557 189.201 199.459 189.201 199.359L189.199 188.164ZM188.237 189.772H181.795V191.011H188.237V189.772ZM188.237 192.3H181.795V193.538H188.237V192.3ZM188.237 194.828H181.795V196.067H188.237V194.828ZM191.569 188.164C191.569 188.014 191.509 187.871 191.403 187.765C191.297 187.659 191.154 187.6 191.004 187.599C190.878 187.599 190.756 187.641 190.657 187.719H190.655C190.587 187.772 190.532 187.839 190.495 187.916C190.457 187.993 190.438 188.078 190.438 188.164V188.729H191.004C191.154 188.729 191.297 188.669 191.403 188.563C191.509 188.457 191.569 188.314 191.569 188.164Z" fill="#707072"/>
<rect x="405" y="128.175" width="37.4049" height="37.7117" rx="7.73649" fill="#F1F1F1"/>
<g clip-path="url(#clip0_10536_22840)">
<path d="M427.88 153.894L427.313 149.358C427.147 148.028 426.017 147.031 424.677 147.031H423.702H422.726C421.387 147.031 420.257 148.028 420.091 149.358L419.524 153.894C419.392 154.951 420.216 155.885 421.281 155.885H423.702H426.123C427.188 155.885 428.012 154.951 427.88 153.894Z" stroke="#707072" stroke-width="1.77082" stroke-linecap="round" stroke-linejoin="round"/>
<path d="M423.701 143.489C425.168 143.489 426.357 142.3 426.357 140.833C426.357 139.366 425.168 138.177 423.701 138.177C422.234 138.177 421.045 139.366 421.045 140.833C421.045 142.3 422.234 143.489 423.701 143.489Z" stroke="#707072" stroke-width="1.77082"/>
<path d="M416.618 146.145C417.596 146.145 418.389 145.352 418.389 144.374C418.389 143.396 417.596 142.604 416.618 142.604C415.64 142.604 414.848 143.396 414.848 144.374C414.848 145.352 415.64 146.145 416.618 146.145Z" stroke="#707072" stroke-width="1.77082"/>
<path d="M430.785 146.145C431.763 146.145 432.556 145.352 432.556 144.374C432.556 143.396 431.763 142.604 430.785 142.604C429.807 142.604 429.014 143.396 429.014 144.374C429.014 145.352 429.807 146.145 430.785 146.145Z" stroke="#707072" stroke-width="1.77082"/>
<path d="M416.618 148.802H416.347C415.482 148.802 414.743 149.427 414.6 150.281L414.305 152.052C414.125 153.132 414.958 154.114 416.052 154.114H419.274" stroke="#707072" stroke-width="1.77082" stroke-linecap="round" stroke-linejoin="round"/>
<path d="M430.785 148.802H431.056C431.921 148.802 432.66 149.427 432.803 150.281L433.098 152.052C433.278 153.132 432.445 154.114 431.351 154.114C430.323 154.114 429.099 154.114 428.129 154.114" stroke="#707072" stroke-width="1.77082" stroke-linecap="round" stroke-linejoin="round"/>
</g>
<rect x="216.436" y="326.621" width="37.4049" height="37.7117" rx="7.73649" fill="#F1F1F1"/>
<path d="M235.139 349.904V353.445M231.597 353.445H238.68M230.003 349.904H240.274C241.266 349.904 241.762 349.904 242.14 349.711C242.474 349.541 242.745 349.27 242.914 348.937C243.107 348.558 243.107 348.062 243.107 347.071V340.341C243.107 339.35 243.107 338.854 242.914 338.475C242.745 338.142 242.474 337.871 242.14 337.701C241.762 337.508 241.266 337.508 240.274 337.508H230.003C229.011 337.508 228.516 337.508 228.137 337.701C227.804 337.871 227.533 338.142 227.363 338.475C227.17 338.854 227.17 339.35 227.17 340.341V347.071C227.17 348.062 227.17 348.558 227.363 348.937C227.533 349.27 227.804 349.541 228.137 349.711C228.516 349.904 229.011 349.904 230.003 349.904Z" stroke="#707072" stroke-width="1.77082" stroke-linecap="round"/>
<rect x="347.137" y="215.37" width="37.4049" height="37.7117" rx="7.73649" fill="#F1F1F1"/>
<path fill-rule="evenodd" clip-rule="evenodd" d="M357.5 229.013C357.5 227.285 358.9 225.885 360.627 225.885H365.84H371.053C372.781 225.885 374.181 227.285 374.181 229.013V234.226V239.439C374.181 241.166 372.781 242.566 371.053 242.566H365.84H360.627C358.9 242.566 357.5 241.166 357.5 239.439V234.226V229.013ZM360.627 227.97C360.051 227.97 359.585 228.437 359.585 229.013V233.183H364.798V227.97H360.627ZM366.883 227.97V233.183H372.096V229.013C372.096 228.437 371.629 227.97 371.053 227.97H366.883ZM372.096 235.268H366.883V240.481H371.053C371.629 240.481 372.096 240.014 372.096 239.439V235.268ZM364.798 240.481V235.268H359.585V239.439C359.585 240.014 360.051 240.481 360.627 240.481H364.798Z" fill="#707072"/>
<rect x="34" y="149.652" width="37.4049" height="37.7117" rx="7.73649" fill="#F1F1F1"/>
<g clip-path="url(#clip1_10536_22840)">
<path fill-rule="evenodd" clip-rule="evenodd" d="M58.4082 170.936L50.3338 176.394C48.3663 177.725 45.7014 176.327 45.7014 173.967V163.049C45.7014 160.688 48.3663 159.292 50.3338 160.622L58.4082 166.081C60.1334 167.247 60.1334 169.769 58.4082 170.936Z" fill="#707072"/>
</g>
<path d="M199.094 427.324V414.146H202.284V433.566H199.787L190.632 420.388V433.566H187.442V414.146H189.939L199.094 427.324ZM217.703 431.818C216.298 433.224 214.568 433.926 212.515 433.926C210.463 433.926 208.733 433.224 207.328 431.818C205.904 430.394 205.192 428.665 205.192 426.63C205.192 424.596 205.904 422.866 207.328 421.442C208.733 420.037 210.463 419.334 212.515 419.334C214.568 419.334 216.298 420.037 217.703 421.442C219.127 422.866 219.839 424.596 219.839 426.63C219.839 428.665 219.127 430.394 217.703 431.818ZM208.188 426.63C208.188 427.888 208.604 428.933 209.436 429.765C210.268 430.597 211.295 431.013 212.515 431.013C213.736 431.013 214.763 430.597 215.595 429.765C216.427 428.933 216.843 427.888 216.843 426.63C216.843 425.372 216.427 424.328 215.595 423.495C214.763 422.663 213.736 422.247 212.515 422.247C211.295 422.247 210.268 422.663 209.436 423.495C208.604 424.328 208.188 425.372 208.188 426.63ZM232.869 414.146V430.514H240.775V433.566H229.678V414.146H232.869ZM245.778 417.059C245.409 417.429 244.965 417.614 244.447 417.614C243.929 417.614 243.476 417.429 243.088 417.059C242.718 416.671 242.533 416.218 242.533 415.7C242.533 415.182 242.718 414.738 243.088 414.368C243.457 413.98 243.911 413.786 244.447 413.786C244.983 413.786 245.436 413.98 245.806 414.368C246.176 414.738 246.361 415.182 246.361 415.7C246.361 416.218 246.167 416.671 245.778 417.059ZM245.945 433.566H242.949V419.695H245.945V433.566ZM255.971 433.926C253.881 433.926 252.133 433.224 250.728 431.818C249.341 430.394 248.647 428.665 248.647 426.63C248.647 424.559 249.341 422.829 250.728 421.442C252.133 420.037 253.881 419.334 255.971 419.334C257.321 419.334 258.551 419.658 259.661 420.305C260.77 420.952 261.603 421.821 262.157 422.913L259.577 424.411C259.263 423.745 258.782 423.227 258.135 422.857C257.506 422.469 256.775 422.275 255.943 422.275C254.723 422.275 253.696 422.691 252.864 423.523C252.05 424.374 251.643 425.409 251.643 426.63C251.643 427.851 252.05 428.886 252.864 429.737C253.696 430.57 254.723 430.986 255.943 430.986C256.757 430.986 257.487 430.801 258.135 430.431C258.801 430.042 259.3 429.515 259.633 428.85L262.213 430.32C261.621 431.43 260.761 432.308 259.633 432.955C258.523 433.603 257.303 433.926 255.971 433.926ZM277.561 427.906H266.52C266.742 428.942 267.241 429.747 268.018 430.32C268.813 430.893 269.793 431.18 270.959 431.18C272.531 431.18 273.724 430.607 274.537 429.46L277.006 430.902C275.656 432.918 273.631 433.926 270.931 433.926C268.693 433.926 266.871 433.242 265.466 431.873C264.079 430.486 263.385 428.739 263.385 426.63C263.385 424.577 264.069 422.848 265.438 421.442C266.788 420.037 268.545 419.334 270.709 419.334C272.725 419.334 274.389 420.046 275.703 421.47C277.016 422.894 277.672 424.623 277.672 426.658C277.672 427.028 277.635 427.444 277.561 427.906ZM266.492 425.465H274.648C274.445 424.374 273.983 423.532 273.261 422.94C272.558 422.349 271.698 422.053 270.681 422.053C269.572 422.053 268.647 422.358 267.907 422.968C267.167 423.578 266.696 424.411 266.492 425.465ZM287.605 419.334C289.214 419.334 290.499 419.852 291.461 420.888C292.441 421.905 292.931 423.292 292.931 425.049V433.566H289.935V425.354C289.935 424.318 289.658 423.523 289.103 422.968C288.548 422.413 287.79 422.136 286.828 422.136C285.737 422.136 284.877 422.478 284.248 423.162C283.619 423.828 283.305 424.818 283.305 426.131V433.566H280.309V419.695H283.305V421.47C284.229 420.046 285.663 419.334 287.605 419.334ZM298.848 423.523C298.848 423.948 299.07 424.3 299.514 424.577C299.958 424.836 300.605 425.086 301.456 425.326C302.103 425.474 302.668 425.631 303.148 425.798C303.629 425.964 304.138 426.214 304.674 426.547C305.211 426.861 305.617 427.287 305.895 427.823C306.191 428.341 306.33 428.951 306.311 429.654C306.311 430.986 305.793 432.031 304.757 432.789C303.722 433.547 302.436 433.926 300.901 433.926C299.533 433.926 298.358 433.64 297.378 433.066C296.398 432.493 295.686 431.698 295.242 430.68L297.822 429.182C298.284 430.514 299.311 431.18 300.901 431.18C302.473 431.18 303.259 430.662 303.259 429.626C303.259 428.868 302.381 428.276 300.624 427.851C299.958 427.684 299.394 427.518 298.932 427.351C298.488 427.185 297.988 426.945 297.434 426.63C296.897 426.316 296.481 425.9 296.185 425.382C295.908 424.864 295.778 424.263 295.797 423.578C295.797 422.302 296.278 421.276 297.239 420.499C298.22 419.722 299.431 419.334 300.874 419.334C302.02 419.334 303.037 419.593 303.925 420.111C304.831 420.61 305.525 421.313 306.006 422.219L303.481 423.634C303.019 422.58 302.15 422.053 300.874 422.053C300.282 422.053 299.792 422.182 299.403 422.441C299.033 422.7 298.848 423.061 298.848 423.523ZM321.992 427.906H310.951C311.173 428.942 311.672 429.747 312.449 430.32C313.244 430.893 314.224 431.18 315.389 431.18C316.961 431.18 318.154 430.607 318.968 429.46L321.437 430.902C320.087 432.918 318.062 433.926 315.362 433.926C313.124 433.926 311.302 433.242 309.896 431.873C308.509 430.486 307.816 428.739 307.816 426.63C307.816 424.577 308.5 422.848 309.869 421.442C311.219 420.037 312.976 419.334 315.14 419.334C317.156 419.334 318.82 420.046 320.133 421.47C321.446 422.894 322.103 424.623 322.103 426.658C322.103 427.028 322.066 427.444 321.992 427.906ZM310.923 425.465H319.079C318.876 424.374 318.413 423.532 317.692 422.94C316.989 422.349 316.129 422.053 315.112 422.053C314.002 422.053 313.078 422.358 312.338 422.968C311.598 423.578 311.126 424.411 310.923 425.465ZM343.16 414.146H346.794L340.025 425.853V433.566H336.835V425.853L330.066 414.146H333.7L338.444 422.746L343.16 414.146ZM359.325 427.906H348.283C348.505 428.942 349.005 429.747 349.781 430.32C350.577 430.893 351.557 431.18 352.722 431.18C354.294 431.18 355.487 430.607 356.301 429.46L358.77 430.902C357.42 432.918 355.395 433.926 352.694 433.926C350.457 433.926 348.635 433.242 347.229 431.873C345.842 430.486 345.149 428.739 345.149 426.63C345.149 424.577 345.833 422.848 347.201 421.442C348.552 420.037 350.309 419.334 352.472 419.334C354.488 419.334 356.153 420.046 357.466 421.47C358.779 422.894 359.436 424.623 359.436 426.658C359.436 427.028 359.399 427.444 359.325 427.906ZM348.256 425.465H356.412C356.208 424.374 355.746 423.532 355.025 422.94C354.322 422.349 353.462 422.053 352.445 422.053C351.335 422.053 350.41 422.358 349.67 422.968C348.931 423.578 348.459 424.411 348.256 425.465ZM369.379 419.695V422.58H365.939V429.238C365.939 429.811 366.068 430.227 366.327 430.486C366.586 430.727 366.965 430.865 367.464 430.902C367.982 430.921 368.62 430.912 369.379 430.875V433.566C367.085 433.843 365.439 433.649 364.441 432.983C363.442 432.299 362.943 431.05 362.943 429.238V422.58H360.39V419.695H362.943V416.698L365.939 415.811V419.695H369.379Z" fill="black"/>
<rect x="484.66" y="227.881" width="37.4049" height="37.7117" rx="7.73649" fill="#F1F1F1"/>
<g clip-path="url(#clip2_10536_22840)">
<path d="M508.575 236.923H498.148C497.741 236.923 497.351 237.084 497.063 237.372C496.776 237.659 496.614 238.049 496.614 238.456V255.017C496.614 255.424 496.776 255.814 497.063 256.102C497.351 256.389 497.741 256.551 498.148 256.551H508.575C508.982 256.551 509.372 256.389 509.66 256.102C509.947 255.814 510.109 255.424 510.109 255.017V238.456C510.109 238.049 509.947 237.659 509.66 237.372C509.372 237.084 508.982 236.923 508.575 236.923ZM508.575 255.017H498.148V238.456H508.575V255.017Z" fill="#707072"/>
<path d="M503.363 253.484C503.905 253.484 504.344 253.072 504.344 252.564C504.344 252.056 503.905 251.644 503.363 251.644C502.821 251.644 502.381 252.056 502.381 252.564C502.381 253.072 502.821 253.484 503.363 253.484Z" fill="#707072"/>
</g>
<path d="M100.871 471.315V462.963H102.359V474.163H101.159L95.3989 465.795V474.163H93.9109V462.963H95.1109L100.871 471.315ZM111.363 473.155C110.552 473.966 109.555 474.371 108.371 474.371C107.187 474.371 106.189 473.966 105.379 473.155C104.568 472.344 104.163 471.347 104.163 470.163C104.163 468.979 104.568 467.982 105.379 467.171C106.189 466.36 107.187 465.955 108.371 465.955C109.555 465.955 110.552 466.36 111.363 467.171C112.184 467.992 112.595 468.99 112.595 470.163C112.595 471.336 112.184 472.334 111.363 473.155ZM108.371 473.011C109.171 473.011 109.843 472.739 110.387 472.195C110.931 471.651 111.203 470.974 111.203 470.163C111.203 469.352 110.931 468.675 110.387 468.131C109.843 467.587 109.171 467.315 108.371 467.315C107.581 467.315 106.915 467.587 106.371 468.131C105.827 468.675 105.555 469.352 105.555 470.163C105.555 470.974 105.827 471.651 106.371 472.195C106.915 472.739 107.581 473.011 108.371 473.011ZM119.628 474.163H118.236V462.483H119.628V474.163ZM122.455 464.707C122.189 464.707 121.965 464.616 121.783 464.435C121.602 464.254 121.511 464.035 121.511 463.779C121.511 463.523 121.602 463.304 121.783 463.123C121.965 462.931 122.189 462.835 122.455 462.835C122.711 462.835 122.93 462.931 123.111 463.123C123.293 463.304 123.383 463.523 123.383 463.779C123.383 464.035 123.293 464.254 123.111 464.435C122.93 464.616 122.711 464.707 122.455 464.707ZM123.143 474.163H121.751V466.163H123.143V474.163ZM129.027 474.371C127.822 474.371 126.819 473.971 126.019 473.171C125.219 472.36 124.819 471.358 124.819 470.163C124.819 468.968 125.219 467.971 126.019 467.171C126.819 466.36 127.822 465.955 129.027 465.955C129.816 465.955 130.526 466.147 131.155 466.531C131.784 466.904 132.254 467.411 132.563 468.051L131.395 468.723C131.192 468.296 130.878 467.955 130.451 467.699C130.035 467.443 129.56 467.315 129.027 467.315C128.227 467.315 127.555 467.587 127.011 468.131C126.478 468.686 126.211 469.363 126.211 470.163C126.211 470.952 126.478 471.624 127.011 472.179C127.555 472.723 128.227 472.995 129.027 472.995C129.56 472.995 130.04 472.872 130.467 472.627C130.894 472.371 131.219 472.03 131.443 471.603L132.627 472.291C132.275 472.931 131.779 473.438 131.139 473.811C130.499 474.184 129.795 474.371 129.027 474.371ZM141.572 470.803H134.868C135.007 471.507 135.332 472.062 135.844 472.467C136.356 472.862 136.996 473.059 137.764 473.059C138.82 473.059 139.588 472.67 140.068 471.891L141.252 472.563C140.463 473.768 139.289 474.371 137.732 474.371C136.473 474.371 135.439 473.976 134.628 473.187C133.839 472.376 133.444 471.368 133.444 470.163C133.444 468.947 133.833 467.944 134.612 467.155C135.391 466.355 136.399 465.955 137.636 465.955C138.809 465.955 139.764 466.371 140.5 467.203C141.247 468.014 141.62 469.006 141.62 470.179C141.62 470.382 141.604 470.59 141.572 470.803ZM137.636 467.267C136.9 467.267 136.281 467.475 135.78 467.891C135.289 468.307 134.985 468.872 134.868 469.587H140.212C140.095 468.851 139.801 468.28 139.332 467.875C138.863 467.47 138.297 467.267 137.636 467.267ZM147.204 465.955C148.143 465.955 148.895 466.254 149.46 466.851C150.025 467.438 150.308 468.238 150.308 469.251V474.163H148.916V469.331C148.916 468.691 148.74 468.19 148.388 467.827C148.036 467.464 147.551 467.283 146.932 467.283C146.217 467.283 145.652 467.507 145.236 467.955C144.82 468.392 144.612 469.048 144.612 469.923V474.163H143.22V466.163H144.612V467.315C145.167 466.408 146.031 465.955 147.204 465.955ZM153.451 468.323C153.451 468.835 153.979 469.235 155.035 469.523C155.43 469.608 155.761 469.699 156.027 469.795C156.305 469.88 156.603 470.014 156.923 470.195C157.254 470.376 157.505 470.616 157.675 470.915C157.846 471.214 157.931 471.566 157.931 471.971C157.931 472.696 157.649 473.278 157.083 473.715C156.518 474.152 155.803 474.371 154.939 474.371C154.171 474.371 153.505 474.206 152.939 473.875C152.385 473.534 151.99 473.075 151.755 472.499L152.955 471.811C153.083 472.195 153.323 472.499 153.675 472.723C154.027 472.947 154.449 473.059 154.939 473.059C155.419 473.059 155.803 472.968 156.091 472.787C156.379 472.606 156.523 472.334 156.523 471.971C156.523 471.427 155.995 471.032 154.939 470.787C154.587 470.691 154.321 470.616 154.139 470.563C153.958 470.51 153.707 470.414 153.387 470.275C153.078 470.136 152.843 469.992 152.683 469.843C152.523 469.683 152.374 469.475 152.235 469.219C152.107 468.952 152.043 468.659 152.043 468.339C152.043 467.646 152.31 467.075 152.843 466.627C153.387 466.179 154.065 465.955 154.875 465.955C155.526 465.955 156.102 466.104 156.603 466.403C157.115 466.691 157.499 467.096 157.755 467.619L156.587 468.275C156.299 467.592 155.729 467.251 154.875 467.251C154.47 467.251 154.129 467.347 153.851 467.539C153.585 467.731 153.451 467.992 153.451 468.323ZM167.041 470.803H160.337C160.475 471.507 160.801 472.062 161.313 472.467C161.825 472.862 162.465 473.059 163.233 473.059C164.289 473.059 165.057 472.67 165.537 471.891L166.721 472.563C165.931 473.768 164.758 474.371 163.201 474.371C161.942 474.371 160.907 473.976 160.097 473.187C159.307 472.376 158.913 471.368 158.913 470.163C158.913 468.947 159.302 467.944 160.081 467.155C160.859 466.355 161.867 465.955 163.105 465.955C164.278 465.955 165.233 466.371 165.969 467.203C166.715 468.014 167.089 469.006 167.089 470.179C167.089 470.382 167.073 470.59 167.041 470.803ZM163.105 467.267C162.369 467.267 161.75 467.475 161.249 467.891C160.758 468.307 160.454 468.872 160.337 469.587H165.681C165.563 468.851 165.27 468.28 164.801 467.875C164.331 467.47 163.766 467.267 163.105 467.267ZM169.576 468.323C169.576 468.835 170.104 469.235 171.16 469.523C171.555 469.608 171.886 469.699 172.152 469.795C172.43 469.88 172.728 470.014 173.048 470.195C173.379 470.376 173.63 470.616 173.8 470.915C173.971 471.214 174.056 471.566 174.056 471.971C174.056 472.696 173.774 473.278 173.208 473.715C172.643 474.152 171.928 474.371 171.064 474.371C170.296 474.371 169.63 474.206 169.064 473.875C168.51 473.534 168.115 473.075 167.88 472.499L169.08 471.811C169.208 472.195 169.448 472.499 169.8 472.723C170.152 472.947 170.574 473.059 171.064 473.059C171.544 473.059 171.928 472.968 172.216 472.787C172.504 472.606 172.648 472.334 172.648 471.971C172.648 471.427 172.12 471.032 171.064 470.787C170.712 470.691 170.446 470.616 170.264 470.563C170.083 470.51 169.832 470.414 169.512 470.275C169.203 470.136 168.968 469.992 168.808 469.843C168.648 469.683 168.499 469.475 168.36 469.219C168.232 468.952 168.168 468.659 168.168 468.339C168.168 467.646 168.435 467.075 168.968 466.627C169.512 466.179 170.19 465.955 171 465.955C171.651 465.955 172.227 466.104 172.728 466.403C173.24 466.691 173.624 467.096 173.88 467.619L172.712 468.275C172.424 467.592 171.854 467.251 171 467.251C170.595 467.251 170.254 467.347 169.976 467.539C169.71 467.731 169.576 467.992 169.576 468.323ZM186.328 467.539V466.163H187.72V474.163H186.328V472.787C185.646 473.843 184.638 474.371 183.304 474.371C182.174 474.371 181.219 473.966 180.44 473.155C179.651 472.334 179.256 471.336 179.256 470.163C179.256 469 179.651 468.008 180.44 467.187C181.23 466.366 182.184 465.955 183.304 465.955C184.638 465.955 185.646 466.483 186.328 467.539ZM183.48 473.027C184.291 473.027 184.968 472.755 185.512 472.211C186.056 471.646 186.328 470.963 186.328 470.163C186.328 469.352 186.056 468.675 185.512 468.131C184.968 467.576 184.291 467.299 183.48 467.299C182.68 467.299 182.008 467.576 181.464 468.131C180.92 468.675 180.648 469.352 180.648 470.163C180.648 470.963 180.92 471.646 181.464 472.211C182.008 472.755 182.68 473.027 183.48 473.027ZM196.453 467.539V462.963H197.845V474.163H196.453V472.787C195.771 473.843 194.763 474.371 193.429 474.371C192.299 474.371 191.344 473.966 190.565 473.155C189.776 472.334 189.381 471.336 189.381 470.163C189.381 469 189.776 468.008 190.565 467.187C191.355 466.366 192.309 465.955 193.429 465.955C194.763 465.955 195.771 466.483 196.453 467.539ZM193.605 473.027C194.416 473.027 195.093 472.755 195.637 472.211C196.181 471.646 196.453 470.963 196.453 470.163C196.453 469.352 196.181 468.675 195.637 468.131C195.093 467.576 194.416 467.299 193.605 467.299C192.805 467.299 192.133 467.576 191.589 468.131C191.045 468.675 190.773 469.352 190.773 470.163C190.773 470.963 191.045 471.646 191.589 472.211C192.133 472.755 192.805 473.027 193.605 473.027ZM206.578 467.539V462.963H207.97V474.163H206.578V472.787C205.896 473.843 204.888 474.371 203.554 474.371C202.424 474.371 201.469 473.966 200.69 473.155C199.901 472.334 199.506 471.336 199.506 470.163C199.506 469 199.901 468.008 200.69 467.187C201.48 466.366 202.434 465.955 203.554 465.955C204.888 465.955 205.896 466.483 206.578 467.539ZM203.73 473.027C204.541 473.027 205.218 472.755 205.762 472.211C206.306 471.646 206.578 470.963 206.578 470.163C206.578 469.352 206.306 468.675 205.762 468.131C205.218 467.576 204.541 467.299 203.73 467.299C202.93 467.299 202.258 467.576 201.714 468.131C201.17 468.675 200.898 469.352 200.898 470.163C200.898 470.963 201.17 471.646 201.714 472.211C202.258 472.755 202.93 473.027 203.73 473.027ZM217.759 470.803H211.055C211.194 471.507 211.519 472.062 212.031 472.467C212.543 472.862 213.183 473.059 213.951 473.059C215.007 473.059 215.775 472.67 216.255 471.891L217.439 472.563C216.65 473.768 215.477 474.371 213.919 474.371C212.661 474.371 211.626 473.976 210.815 473.187C210.026 472.376 209.631 471.368 209.631 470.163C209.631 468.947 210.021 467.944 210.799 467.155C211.578 466.355 212.586 465.955 213.823 465.955C214.997 465.955 215.951 466.371 216.687 467.203C217.434 468.014 217.807 469.006 217.807 470.179C217.807 470.382 217.791 470.59 217.759 470.803ZM213.823 467.267C213.087 467.267 212.469 467.475 211.967 467.891C211.477 468.307 211.173 468.872 211.055 469.587H216.399C216.282 468.851 215.989 468.28 215.519 467.875C215.05 467.47 214.485 467.267 213.823 467.267ZM226.016 467.539V462.963H227.408V474.163H226.016V472.787C225.333 473.843 224.325 474.371 222.992 474.371C221.861 474.371 220.907 473.966 220.128 473.155C219.339 472.334 218.944 471.336 218.944 470.163C218.944 469 219.339 468.008 220.128 467.187C220.917 466.366 221.872 465.955 222.992 465.955C224.325 465.955 225.333 466.483 226.016 467.539ZM223.168 473.027C223.979 473.027 224.656 472.755 225.2 472.211C225.744 471.646 226.016 470.963 226.016 470.163C226.016 469.352 225.744 468.675 225.2 468.131C224.656 467.576 223.979 467.299 223.168 467.299C222.368 467.299 221.696 467.576 221.152 468.131C220.608 468.675 220.336 469.352 220.336 470.163C220.336 470.963 220.608 471.646 221.152 472.211C221.696 472.755 222.368 473.027 223.168 473.027ZM236.797 472.435L239.101 466.163H240.589L237.325 474.659C236.973 475.566 236.488 476.254 235.869 476.723C235.261 477.203 234.562 477.416 233.773 477.363V476.067C234.754 476.142 235.474 475.598 235.933 474.435L236.077 474.131L232.589 466.163H234.077L236.797 472.435ZM249.119 470.803H242.415C242.553 471.507 242.879 472.062 243.391 472.467C243.903 472.862 244.543 473.059 245.311 473.059C246.367 473.059 247.135 472.67 247.615 471.891L248.799 472.563C248.009 473.768 246.836 474.371 245.279 474.371C244.02 474.371 242.985 473.976 242.175 473.187C241.385 472.376 240.991 471.368 240.991 470.163C240.991 468.947 241.38 467.944 242.159 467.155C242.937 466.355 243.945 465.955 245.183 465.955C246.356 465.955 247.311 466.371 248.047 467.203C248.793 468.014 249.167 469.006 249.167 470.179C249.167 470.382 249.151 470.59 249.119 470.803ZM245.183 467.267C244.447 467.267 243.828 467.475 243.327 467.891C242.836 468.307 242.532 468.872 242.415 469.587H247.759C247.641 468.851 247.348 468.28 246.879 467.875C246.409 467.47 245.844 467.267 245.183 467.267ZM254.885 466.163V467.507H252.757V471.843C252.757 472.238 252.831 472.52 252.981 472.691C253.141 472.851 253.381 472.936 253.701 472.947C254.021 472.947 254.415 472.936 254.885 472.915V474.163C253.658 474.323 252.762 474.222 252.197 473.859C251.642 473.496 251.365 472.824 251.365 471.843V467.507H249.781V466.163H251.365V464.339L252.757 463.923V466.163H254.885ZM257.459 474.339C257.171 474.339 256.926 474.238 256.723 474.035C256.521 473.832 256.419 473.587 256.419 473.299C256.419 473.011 256.521 472.766 256.723 472.563C256.926 472.36 257.171 472.259 257.459 472.259C257.758 472.259 258.003 472.36 258.195 472.563C258.398 472.766 258.499 473.011 258.499 473.299C258.499 473.587 258.398 473.832 258.195 474.035C258.003 474.238 257.758 474.339 257.459 474.339ZM269.814 468.611H275.414V469.283C275.414 470.744 274.913 471.96 273.91 472.931C272.907 473.891 271.579 474.371 269.926 474.371C268.219 474.371 266.806 473.811 265.686 472.691C264.577 471.55 264.022 470.174 264.022 468.563C264.022 466.952 264.577 465.582 265.686 464.451C266.806 463.32 268.209 462.755 269.894 462.755C270.918 462.755 271.867 463.006 272.742 463.507C273.627 464.008 274.294 464.659 274.742 465.459L273.462 466.211C273.142 465.603 272.657 465.118 272.006 464.755C271.355 464.382 270.646 464.195 269.878 464.195C268.587 464.195 267.537 464.616 266.726 465.459C265.905 466.302 265.494 467.336 265.494 468.563C265.494 469.79 265.905 470.824 266.726 471.667C267.558 472.499 268.63 472.915 269.942 472.915C271.041 472.915 271.937 472.648 272.63 472.115C273.334 471.571 273.766 470.851 273.926 469.955H269.814V468.611ZM284.759 470.803H278.055C278.194 471.507 278.519 472.062 279.031 472.467C279.543 472.862 280.183 473.059 280.951 473.059C282.007 473.059 282.775 472.67 283.255 471.891L284.439 472.563C283.65 473.768 282.477 474.371 280.919 474.371C279.661 474.371 278.626 473.976 277.815 473.187C277.026 472.376 276.631 471.368 276.631 470.163C276.631 468.947 277.021 467.944 277.799 467.155C278.578 466.355 279.586 465.955 280.823 465.955C281.997 465.955 282.951 466.371 283.687 467.203C284.434 468.014 284.807 469.006 284.807 470.179C284.807 470.382 284.791 470.59 284.759 470.803ZM280.823 467.267C280.087 467.267 279.469 467.475 278.967 467.891C278.477 468.307 278.173 468.872 278.055 469.587H283.399C283.282 468.851 282.989 468.28 282.519 467.875C282.05 467.47 281.485 467.267 280.823 467.267ZM290.525 466.163V467.507H288.397V471.843C288.397 472.238 288.472 472.52 288.621 472.691C288.781 472.851 289.021 472.936 289.341 472.947C289.661 472.947 290.056 472.936 290.525 472.915V474.163C289.299 474.323 288.403 474.222 287.837 473.859C287.283 473.496 287.005 472.824 287.005 471.843V467.507H285.421V466.163H287.005V464.339L288.397 463.923V466.163H290.525ZM297.42 468.323C297.42 468.835 297.948 469.235 299.004 469.523C299.399 469.608 299.729 469.699 299.996 469.795C300.273 469.88 300.572 470.014 300.892 470.195C301.223 470.376 301.473 470.616 301.644 470.915C301.815 471.214 301.9 471.566 301.9 471.971C301.9 472.696 301.617 473.278 301.052 473.715C300.487 474.152 299.772 474.371 298.908 474.371C298.14 474.371 297.473 474.206 296.908 473.875C296.353 473.534 295.959 473.075 295.724 472.499L296.924 471.811C297.052 472.195 297.292 472.499 297.644 472.723C297.996 472.947 298.417 473.059 298.908 473.059C299.388 473.059 299.772 472.968 300.06 472.787C300.348 472.606 300.492 472.334 300.492 471.971C300.492 471.427 299.964 471.032 298.908 470.787C298.556 470.691 298.289 470.616 298.108 470.563C297.927 470.51 297.676 470.414 297.356 470.275C297.047 470.136 296.812 469.992 296.652 469.843C296.492 469.683 296.343 469.475 296.204 469.219C296.076 468.952 296.012 468.659 296.012 468.339C296.012 467.646 296.279 467.075 296.812 466.627C297.356 466.179 298.033 465.955 298.844 465.955C299.495 465.955 300.071 466.104 300.572 466.403C301.084 466.691 301.468 467.096 301.724 467.619L300.556 468.275C300.268 467.592 299.697 467.251 298.844 467.251C298.439 467.251 298.097 467.347 297.82 467.539C297.553 467.731 297.42 467.992 297.42 468.323ZM307.588 466.163V467.507H305.46V471.843C305.46 472.238 305.534 472.52 305.684 472.691C305.844 472.851 306.084 472.936 306.404 472.947C306.724 472.947 307.118 472.936 307.588 472.915V474.163C306.361 474.323 305.465 474.222 304.9 473.859C304.345 473.496 304.068 472.824 304.068 471.843V467.507H302.484V466.163H304.068V464.339L305.46 463.923V466.163H307.588ZM315.453 467.539V466.163H316.845V474.163H315.453V472.787C314.771 473.843 313.763 474.371 312.429 474.371C311.299 474.371 310.344 473.966 309.565 473.155C308.776 472.334 308.381 471.336 308.381 470.163C308.381 469 308.776 468.008 309.565 467.187C310.355 466.366 311.309 465.955 312.429 465.955C313.763 465.955 314.771 466.483 315.453 467.539ZM312.605 473.027C313.416 473.027 314.093 472.755 314.637 472.211C315.181 471.646 315.453 470.963 315.453 470.163C315.453 469.352 315.181 468.675 314.637 468.131C314.093 467.576 313.416 467.299 312.605 467.299C311.805 467.299 311.133 467.576 310.589 468.131C310.045 468.675 309.773 469.352 309.773 470.163C309.773 470.963 310.045 471.646 310.589 472.211C311.133 472.755 311.805 473.027 312.605 473.027ZM320.346 466.163V467.507C320.805 466.515 321.637 466.019 322.842 466.019V467.475C322.16 467.443 321.573 467.624 321.082 468.019C320.592 468.414 320.346 469.048 320.346 469.923V474.163H318.954V466.163H320.346ZM328.744 466.163V467.507H326.616V471.843C326.616 472.238 326.691 472.52 326.84 472.691C327 472.851 327.24 472.936 327.56 472.947C327.88 472.947 328.275 472.936 328.744 472.915V474.163C327.517 474.323 326.621 474.222 326.056 473.859C325.501 473.496 325.224 472.824 325.224 471.843V467.507H323.64V466.163H325.224V464.339L326.616 463.923V466.163H328.744ZM337.666 470.803H330.962C331.1 471.507 331.426 472.062 331.938 472.467C332.45 472.862 333.09 473.059 333.858 473.059C334.914 473.059 335.682 472.67 336.162 471.891L337.346 472.563C336.556 473.768 335.383 474.371 333.826 474.371C332.567 474.371 331.532 473.976 330.722 473.187C329.932 472.376 329.538 471.368 329.538 470.163C329.538 468.947 329.927 467.944 330.706 467.155C331.484 466.355 332.492 465.955 333.73 465.955C334.903 465.955 335.858 466.371 336.594 467.203C337.34 468.014 337.714 469.006 337.714 470.179C337.714 470.382 337.698 470.59 337.666 470.803ZM333.73 467.267C332.994 467.267 332.375 467.475 331.874 467.891C331.383 468.307 331.079 468.872 330.962 469.587H336.306C336.188 468.851 335.895 468.28 335.426 467.875C334.956 467.47 334.391 467.267 333.73 467.267ZM345.922 467.539V462.963H347.314V474.163H345.922V472.787C345.24 473.843 344.232 474.371 342.898 474.371C341.768 474.371 340.813 473.966 340.034 473.155C339.245 472.334 338.85 471.336 338.85 470.163C338.85 469 339.245 468.008 340.034 467.187C340.824 466.366 341.778 465.955 342.898 465.955C344.232 465.955 345.24 466.483 345.922 467.539ZM343.074 473.027C343.885 473.027 344.562 472.755 345.106 472.211C345.65 471.646 345.922 470.963 345.922 470.163C345.922 469.352 345.65 468.675 345.106 468.131C344.562 467.576 343.885 467.299 343.074 467.299C342.274 467.299 341.602 467.576 341.058 468.131C340.514 468.675 340.242 469.352 340.242 470.163C340.242 470.963 340.514 471.646 341.058 472.211C341.602 472.755 342.274 473.027 343.074 473.027ZM357.839 465.955C358.959 465.955 359.914 466.366 360.703 467.187C361.493 468.008 361.887 469 361.887 470.163C361.887 471.336 361.493 472.334 360.703 473.155C359.925 473.966 358.97 474.371 357.839 474.371C356.517 474.371 355.509 473.843 354.815 472.787V474.163H353.423V462.963H354.815V467.539C355.509 466.483 356.517 465.955 357.839 465.955ZM357.663 473.027C358.463 473.027 359.135 472.755 359.679 472.211C360.223 471.646 360.495 470.963 360.495 470.163C360.495 469.352 360.223 468.675 359.679 468.131C359.135 467.576 358.463 467.299 357.663 467.299C356.853 467.299 356.175 467.576 355.631 468.131C355.087 468.675 354.815 469.352 354.815 470.163C354.815 470.963 355.087 471.646 355.631 472.211C356.175 472.755 356.853 473.027 357.663 473.027ZM366.516 472.435L368.82 466.163H370.308L367.044 474.659C366.692 475.566 366.206 476.254 365.588 476.723C364.98 477.203 364.281 477.416 363.492 477.363V476.067C364.473 476.142 365.193 475.598 365.652 474.435L365.796 474.131L362.308 466.163H363.796L366.516 472.435ZM382.094 467.539V466.163H383.486V474.163H382.094V472.787C381.411 473.843 380.403 474.371 379.07 474.371C377.939 474.371 376.985 473.966 376.206 473.155C375.417 472.334 375.022 471.336 375.022 470.163C375.022 469 375.417 468.008 376.206 467.187C376.995 466.366 377.95 465.955 379.07 465.955C380.403 465.955 381.411 466.483 382.094 467.539ZM379.246 473.027C380.057 473.027 380.734 472.755 381.278 472.211C381.822 471.646 382.094 470.963 382.094 470.163C382.094 469.352 381.822 468.675 381.278 468.131C380.734 467.576 380.057 467.299 379.246 467.299C378.446 467.299 377.774 467.576 377.23 468.131C376.686 468.675 376.414 469.352 376.414 470.163C376.414 470.963 376.686 471.646 377.23 472.211C377.774 472.755 378.446 473.027 379.246 473.027ZM392.219 467.539V462.963H393.611V474.163H392.219V472.787C391.536 473.843 390.528 474.371 389.195 474.371C388.064 474.371 387.11 473.966 386.331 473.155C385.542 472.334 385.147 471.336 385.147 470.163C385.147 469 385.542 468.008 386.331 467.187C387.12 466.366 388.075 465.955 389.195 465.955C390.528 465.955 391.536 466.483 392.219 467.539ZM389.371 473.027C390.182 473.027 390.859 472.755 391.403 472.211C391.947 471.646 392.219 470.963 392.219 470.163C392.219 469.352 391.947 468.675 391.403 468.131C390.859 467.576 390.182 467.299 389.371 467.299C388.571 467.299 387.899 467.576 387.355 468.131C386.811 468.675 386.539 469.352 386.539 470.163C386.539 470.963 386.811 471.646 387.355 472.211C387.899 472.755 388.571 473.027 389.371 473.027ZM402.344 467.539V462.963H403.736V474.163H402.344V472.787C401.661 473.843 400.653 474.371 399.32 474.371C398.189 474.371 397.235 473.966 396.456 473.155C395.667 472.334 395.272 471.336 395.272 470.163C395.272 469 395.667 468.008 396.456 467.187C397.245 466.366 398.2 465.955 399.32 465.955C400.653 465.955 401.661 466.483 402.344 467.539ZM399.496 473.027C400.307 473.027 400.984 472.755 401.528 472.211C402.072 471.646 402.344 470.963 402.344 470.163C402.344 469.352 402.072 468.675 401.528 468.131C400.984 467.576 400.307 467.299 399.496 467.299C398.696 467.299 398.024 467.576 397.48 468.131C396.936 468.675 396.664 469.352 396.664 470.163C396.664 470.963 396.936 471.646 397.48 472.211C398.024 472.755 398.696 473.027 399.496 473.027ZM406.549 464.707C406.282 464.707 406.058 464.616 405.877 464.435C405.696 464.254 405.605 464.035 405.605 463.779C405.605 463.523 405.696 463.304 405.877 463.123C406.058 462.931 406.282 462.835 406.549 462.835C406.805 462.835 407.024 462.931 407.205 463.123C407.386 463.304 407.477 463.523 407.477 463.779C407.477 464.035 407.386 464.254 407.205 464.435C407.024 464.616 406.805 464.707 406.549 464.707ZM407.237 474.163H405.845V466.163H407.237V474.163ZM413.345 465.955C414.283 465.955 415.035 466.254 415.601 466.851C416.166 467.438 416.449 468.238 416.449 469.251V474.163H415.057V469.331C415.057 468.691 414.881 468.19 414.529 467.827C414.177 467.464 413.691 467.283 413.073 467.283C412.358 467.283 411.793 467.507 411.377 467.955C410.961 468.392 410.753 469.048 410.753 469.923V474.163H409.361V466.163H410.753V467.315C411.307 466.408 412.171 465.955 413.345 465.955ZM425.032 467.539V466.163H426.408V473.827C426.408 475.011 426.008 475.928 425.208 476.579C424.397 477.24 423.437 477.571 422.328 477.571C421.432 477.571 420.659 477.4 420.008 477.059C419.357 476.728 418.867 476.248 418.536 475.619L419.752 474.931C420.189 475.827 421.059 476.275 422.36 476.275C423.192 476.275 423.843 476.056 424.312 475.619C424.792 475.182 425.032 474.584 425.032 473.827V472.691C424.328 473.758 423.325 474.291 422.024 474.291C420.872 474.291 419.907 473.886 419.128 473.075C418.339 472.254 417.944 471.267 417.944 470.115C417.944 468.963 418.339 467.982 419.128 467.171C419.907 466.36 420.872 465.955 422.024 465.955C423.336 465.955 424.339 466.483 425.032 467.539ZM425.032 470.115C425.032 469.315 424.76 468.643 424.216 468.099C423.672 467.555 422.995 467.283 422.184 467.283C421.373 467.283 420.696 467.555 420.152 468.099C419.608 468.643 419.336 469.315 419.336 470.115C419.336 470.926 419.608 471.603 420.152 472.147C420.696 472.691 421.373 472.963 422.184 472.963C422.995 472.963 423.672 472.691 424.216 472.147C424.76 471.603 425.032 470.926 425.032 470.115ZM435.797 472.435L438.101 466.163H439.589L436.325 474.659C435.973 475.566 435.488 476.254 434.869 476.723C434.261 477.203 433.562 477.416 432.773 477.363V476.067C433.754 476.142 434.474 475.598 434.933 474.435L435.077 474.131L431.589 466.163H433.077L435.797 472.435ZM447.191 473.155C446.38 473.966 445.383 474.371 444.199 474.371C443.015 474.371 442.017 473.966 441.207 473.155C440.396 472.344 439.991 471.347 439.991 470.163C439.991 468.979 440.396 467.982 441.207 467.171C442.017 466.36 443.015 465.955 444.199 465.955C445.383 465.955 446.38 466.36 447.191 467.171C448.012 467.992 448.423 468.99 448.423 470.163C448.423 471.336 448.012 472.334 447.191 473.155ZM444.199 473.011C444.999 473.011 445.671 472.739 446.215 472.195C446.759 471.651 447.031 470.974 447.031 470.163C447.031 469.352 446.759 468.675 446.215 468.131C445.671 467.587 444.999 467.315 444.199 467.315C443.409 467.315 442.743 467.587 442.199 468.131C441.655 468.675 441.383 469.352 441.383 470.163C441.383 470.974 441.655 471.651 442.199 472.195C442.743 472.739 443.409 473.011 444.199 473.011ZM455.584 470.403V466.163H456.976V474.163H455.584V473.011C455.029 473.918 454.165 474.371 452.992 474.371C452.053 474.371 451.301 474.078 450.736 473.491C450.17 472.894 449.888 472.088 449.888 471.075V466.163H451.28V470.995C451.28 471.635 451.456 472.136 451.808 472.499C452.16 472.862 452.645 473.043 453.264 473.043C453.978 473.043 454.544 472.824 454.96 472.387C455.376 471.939 455.584 471.278 455.584 470.403ZM460.487 466.163V467.507C460.946 466.515 461.778 466.019 462.983 466.019V467.475C462.3 467.443 461.714 467.624 461.223 468.019C460.732 468.414 460.487 469.048 460.487 469.923V474.163H459.095V466.163H460.487ZM238.954 485.163H243.306V493.163H241.914V486.507H238.954V493.163H237.562V486.507H236.282V485.163H237.562V484.923C237.562 482.811 238.73 481.755 241.066 481.755C241.536 481.755 242.085 481.824 242.714 481.963V483.227C242.01 483.142 241.461 483.099 241.066 483.099C240.33 483.099 239.792 483.238 239.45 483.515C239.12 483.792 238.954 484.262 238.954 484.923V485.163ZM246.831 485.163V486.507C247.289 485.515 248.121 485.019 249.327 485.019V486.475C248.644 486.443 248.057 486.624 247.567 487.019C247.076 487.414 246.831 488.048 246.831 488.923V493.163H245.439V485.163H246.831ZM251.592 487.323C251.592 487.835 252.12 488.235 253.176 488.523C253.571 488.608 253.901 488.699 254.168 488.795C254.445 488.88 254.744 489.014 255.064 489.195C255.395 489.376 255.645 489.616 255.816 489.915C255.987 490.214 256.072 490.566 256.072 490.971C256.072 491.696 255.789 492.278 255.224 492.715C254.659 493.152 253.944 493.371 253.08 493.371C252.312 493.371 251.645 493.206 251.08 492.875C250.525 492.534 250.131 492.075 249.896 491.499L251.096 490.811C251.224 491.195 251.464 491.499 251.816 491.723C252.168 491.947 252.589 492.059 253.08 492.059C253.56 492.059 253.944 491.968 254.232 491.787C254.52 491.606 254.664 491.334 254.664 490.971C254.664 490.427 254.136 490.032 253.08 489.787C252.728 489.691 252.461 489.616 252.28 489.563C252.099 489.51 251.848 489.414 251.528 489.275C251.219 489.136 250.984 488.992 250.824 488.843C250.664 488.683 250.515 488.475 250.376 488.219C250.248 487.952 250.184 487.659 250.184 487.339C250.184 486.646 250.451 486.075 250.984 485.627C251.528 485.179 252.205 484.955 253.016 484.955C253.667 484.955 254.243 485.104 254.744 485.403C255.256 485.691 255.64 486.096 255.896 486.619L254.728 487.275C254.44 486.592 253.869 486.251 253.016 486.251C252.611 486.251 252.269 486.347 251.992 486.539C251.725 486.731 251.592 486.992 251.592 487.323ZM261.76 485.163V486.507H259.632V490.843C259.632 491.238 259.706 491.52 259.856 491.691C260.016 491.851 260.256 491.936 260.576 491.947C260.896 491.947 261.29 491.936 261.76 491.915V493.163C260.533 493.323 259.637 493.222 259.072 492.859C258.517 492.496 258.24 491.824 258.24 490.843V486.507H256.656V485.163H258.24V483.339L259.632 482.923V485.163H261.76ZM268.846 493.163H267.454V481.483H268.846V493.163ZM271.674 483.707C271.407 483.707 271.183 483.616 271.002 483.435C270.821 483.254 270.73 483.035 270.73 482.779C270.73 482.523 270.821 482.304 271.002 482.123C271.183 481.931 271.407 481.835 271.674 481.835C271.93 481.835 272.149 481.931 272.33 482.123C272.511 482.304 272.602 482.523 272.602 482.779C272.602 483.035 272.511 483.254 272.33 483.435C272.149 483.616 271.93 483.707 271.674 483.707ZM272.362 493.163H270.97V485.163H272.362V493.163ZM278.246 493.371C277.04 493.371 276.038 492.971 275.238 492.171C274.438 491.36 274.038 490.358 274.038 489.163C274.038 487.968 274.438 486.971 275.238 486.171C276.038 485.36 277.04 484.955 278.246 484.955C279.035 484.955 279.744 485.147 280.374 485.531C281.003 485.904 281.472 486.411 281.782 487.051L280.614 487.723C280.411 487.296 280.096 486.955 279.67 486.699C279.254 486.443 278.779 486.315 278.246 486.315C277.446 486.315 276.774 486.587 276.23 487.131C275.696 487.686 275.43 488.363 275.43 489.163C275.43 489.952 275.696 490.624 276.23 491.179C276.774 491.723 277.446 491.995 278.246 491.995C278.779 491.995 279.259 491.872 279.686 491.627C280.112 491.371 280.438 491.03 280.662 490.603L281.846 491.291C281.494 491.931 280.998 492.438 280.358 492.811C279.718 493.184 279.014 493.371 278.246 493.371ZM290.791 489.803H284.087C284.225 490.507 284.551 491.062 285.063 491.467C285.575 491.862 286.215 492.059 286.983 492.059C288.039 492.059 288.807 491.67 289.287 490.891L290.471 491.563C289.681 492.768 288.508 493.371 286.951 493.371C285.692 493.371 284.657 492.976 283.847 492.187C283.057 491.376 282.663 490.368 282.663 489.163C282.663 487.947 283.052 486.944 283.831 486.155C284.609 485.355 285.617 484.955 286.855 484.955C288.028 484.955 288.983 485.371 289.719 486.203C290.465 487.014 290.839 488.006 290.839 489.179C290.839 489.382 290.823 489.59 290.791 489.803ZM286.855 486.267C286.119 486.267 285.5 486.475 284.999 486.891C284.508 487.307 284.204 487.872 284.087 488.587H289.431C289.313 487.851 289.02 487.28 288.551 486.875C288.081 486.47 287.516 486.267 286.855 486.267ZM296.423 484.955C297.361 484.955 298.113 485.254 298.679 485.851C299.244 486.438 299.527 487.238 299.527 488.251V493.163H298.135V488.331C298.135 487.691 297.959 487.19 297.607 486.827C297.255 486.464 296.769 486.283 296.151 486.283C295.436 486.283 294.871 486.507 294.455 486.955C294.039 487.392 293.831 488.048 293.831 488.923V493.163H292.439V485.163H293.831V486.315C294.385 485.408 295.249 484.955 296.423 484.955ZM302.67 487.323C302.67 487.835 303.198 488.235 304.254 488.523C304.649 488.608 304.979 488.699 305.246 488.795C305.523 488.88 305.822 489.014 306.142 489.195C306.473 489.376 306.723 489.616 306.894 489.915C307.065 490.214 307.15 490.566 307.15 490.971C307.15 491.696 306.867 492.278 306.302 492.715C305.737 493.152 305.022 493.371 304.158 493.371C303.39 493.371 302.723 493.206 302.158 492.875C301.603 492.534 301.209 492.075 300.974 491.499L302.174 490.811C302.302 491.195 302.542 491.499 302.894 491.723C303.246 491.947 303.667 492.059 304.158 492.059C304.638 492.059 305.022 491.968 305.31 491.787C305.598 491.606 305.742 491.334 305.742 490.971C305.742 490.427 305.214 490.032 304.158 489.787C303.806 489.691 303.539 489.616 303.358 489.563C303.177 489.51 302.926 489.414 302.606 489.275C302.297 489.136 302.062 488.992 301.902 488.843C301.742 488.683 301.593 488.475 301.454 488.219C301.326 487.952 301.262 487.659 301.262 487.339C301.262 486.646 301.529 486.075 302.062 485.627C302.606 485.179 303.283 484.955 304.094 484.955C304.745 484.955 305.321 485.104 305.822 485.403C306.334 485.691 306.718 486.096 306.974 486.619L305.806 487.275C305.518 486.592 304.947 486.251 304.094 486.251C303.689 486.251 303.347 486.347 303.07 486.539C302.803 486.731 302.67 486.992 302.67 487.323ZM316.259 489.803H309.555C309.694 490.507 310.019 491.062 310.531 491.467C311.043 491.862 311.683 492.059 312.451 492.059C313.507 492.059 314.275 491.67 314.755 490.891L315.939 491.563C315.15 492.768 313.977 493.371 312.419 493.371C311.161 493.371 310.126 492.976 309.315 492.187C308.526 491.376 308.131 490.368 308.131 489.163C308.131 487.947 308.521 486.944 309.299 486.155C310.078 485.355 311.086 484.955 312.323 484.955C313.497 484.955 314.451 485.371 315.187 486.203C315.934 487.014 316.307 488.006 316.307 489.179C316.307 489.382 316.291 489.59 316.259 489.803ZM312.323 486.267C311.587 486.267 310.969 486.475 310.467 486.891C309.977 487.307 309.673 487.872 309.555 488.587H314.899C314.782 487.851 314.489 487.28 314.019 486.875C313.55 486.47 312.985 486.267 312.323 486.267ZM318.147 493.339C317.859 493.339 317.614 493.238 317.411 493.035C317.208 492.832 317.107 492.587 317.107 492.299C317.107 492.011 317.208 491.766 317.411 491.563C317.614 491.36 317.859 491.259 318.147 491.259C318.446 491.259 318.691 491.36 318.883 491.563C319.086 491.766 319.187 492.011 319.187 492.299C319.187 492.587 319.086 492.832 318.883 493.035C318.691 493.238 318.446 493.339 318.147 493.339Z" fill="#7F7F7F"/>
<path fill-rule="evenodd" clip-rule="evenodd" d="M274.429 228.665C265.549 228.665 258.35 235.864 258.35 244.744C258.35 246.657 258.685 248.495 259.3 250.201L243.594 265.907C242.366 267.135 241.676 268.801 241.676 270.539V275.712C241.676 276.698 242.475 277.498 243.462 277.498H250.608C251.595 277.498 252.395 276.698 252.395 275.712V272.734H255.373C256.359 272.734 257.159 271.934 257.159 270.947V267.97H260.137C260.611 267.97 261.065 267.782 261.4 267.446L268.973 259.874C270.678 260.489 272.516 260.824 274.429 260.824C283.309 260.824 290.508 253.625 290.508 244.744C290.508 235.864 283.309 228.665 274.429 228.665ZM280.457 241.244C281.154 240.546 281.154 239.415 280.457 238.717C279.759 238.019 278.628 238.019 277.93 238.717L275.548 241.099C274.85 241.797 274.85 242.928 275.548 243.626C276.246 244.323 277.377 244.323 278.075 243.626L280.457 241.244Z" fill="black"/>
<defs>
<linearGradient id="paint0_linear_10536_22840" x1="266.091" y1="104.412" x2="266.091" y2="401.751" gradientUnits="userSpaceOnUse">
<stop offset="0.605" stop-color="#EEEEEE"/>
<stop offset="1" stop-color="white"/>
</linearGradient>
<linearGradient id="paint1_linear_10536_22840" x1="266.092" y1="61.1932" x2="266.092" y2="444.97" gradientUnits="userSpaceOnUse">
<stop offset="0.605" stop-color="#EEEEEE"/>
<stop offset="1" stop-color="white"/>
</linearGradient>
<linearGradient id="paint2_linear_10536_22840" x1="266.092" y1="21" x2="266.092" y2="485.163" gradientUnits="userSpaceOnUse">
<stop offset="0.605" stop-color="#EEEEEE"/>
<stop offset="1" stop-color="white"/>
</linearGradient>
<clipPath id="clip0_10536_22840">
<rect width="21.2499" height="21.2499" fill="white" transform="translate(413.078 136.406)"/>
</clipPath>
<clipPath id="clip1_10536_22840">
<rect width="16.8042" height="16.8042" fill="white" transform="translate(44.3008 160.106)"/>
</clipPath>
<clipPath id="clip2_10536_22840">
<rect width="19.6283" height="19.6283" fill="white" transform="translate(493.548 236.923)"/>
</clipPath>
</defs>
</svg>
