<svg width="554" height="607" viewBox="0 0 554 607" fill="none" xmlns="http://www.w3.org/2000/svg">
<path d="M267.765 188.111C299.944 188.111 326.031 214.196 326.031 246.374C326.031 278.553 299.944 304.638 267.765 304.638C235.585 304.638 209.498 278.553 209.498 246.374C209.498 214.196 235.585 188.111 267.765 188.111Z" stroke="#EEEEEE" strokeWidth="2"/>
<path d="M267.764 147.63C322.301 147.63 366.514 191.84 366.514 246.375C366.514 300.91 322.301 345.119 267.764 345.119C213.226 345.119 169.015 300.91 169.015 246.375C169.015 191.84 213.226 147.63 267.764 147.63Z" stroke="#EEEEEE" strokeWidth="2"/>
<path d="M267.764 98.7051C349.324 98.7051 415.441 164.819 415.441 246.375C415.441 327.93 349.323 394.044 267.764 394.044C186.205 394.044 120.089 327.93 120.088 246.375C120.088 164.82 186.205 98.7053 267.764 98.7051Z" stroke="url(#paint0_linear_9184_12441)" strokeWidth="2"/>
<path d="M267.766 55.4863C373.195 55.4866 458.662 140.95 458.662 246.375C458.662 351.799 373.195 437.262 267.766 437.263C162.336 437.263 76.8683 351.8 76.8682 246.375C76.8682 140.95 162.336 55.4863 267.766 55.4863Z" stroke="url(#paint1_linear_9184_12441)" strokeWidth="2"/>
<path d="M267.765 15.293C395.394 15.293 498.857 118.751 498.857 246.374C498.857 373.997 395.394 477.456 267.765 477.456C140.137 477.456 36.6733 373.997 36.6733 246.374C36.6736 118.752 140.137 15.2931 267.765 15.293Z" stroke="url(#paint2_linear_9184_12441)" strokeWidth="2"/>
<rect x="81.6836" y="308.408" width="37.4049" height="37.7117" rx="7.73649" fill="#F1F1F1"/>
<path d="M92.417 324.607C92.417 322.103 92.417 320.851 93.195 320.073C93.973 319.295 95.2251 319.295 97.7295 319.295H103.042C105.546 319.295 106.798 319.295 107.576 320.073C108.354 320.851 108.354 322.103 108.354 324.607V329.034C108.354 330.704 108.354 331.539 107.836 332.057C107.317 332.576 106.482 332.576 104.813 332.576H95.9586C94.2891 332.576 93.4543 332.576 92.9357 332.057C92.417 331.539 92.417 330.704 92.417 329.034V324.607Z" stroke="#707072" strokeWidth="1.32812"/>
<path d="M109.24 335.232H91.5322" stroke="#707072" strokeWidth="1.32812" strokeLinecap="round"/>
<path d="M103.042 329.92H97.73" stroke="#707072" strokeWidth="1.32812" strokeLinecap="round"/>
<rect x="416.521" y="316.639" width="37.4049" height="37.7117" rx="7.73649" fill="#F1F1F1"/>
<path d="M437.88 341.692L439.65 343.463L443.192 339.922M436.109 327.526H431.859C430.867 327.526 430.371 327.526 429.992 327.719C429.659 327.889 429.388 328.16 429.218 328.493C429.025 328.872 429.025 329.367 429.025 330.359V340.63C429.025 341.622 429.025 342.118 429.218 342.496C429.388 342.83 429.659 343.101 429.992 343.27C430.371 343.463 430.867 343.463 431.859 343.463H435.223M436.109 327.526L441.421 332.838M436.109 327.526V331.422C436.109 331.918 436.109 332.166 436.205 332.355C436.29 332.522 436.425 332.657 436.592 332.742C436.782 332.838 437.029 332.838 437.525 332.838H441.421M441.421 332.838V336.823" stroke="#707072" strokeWidth="1.77082" strokeLinecap="round" strokeLinejoin="round"/>
<rect x="168.015" y="168.255" width="37.4049" height="37.7117" rx="7.73649" fill="#F1F1F1"/>
<path d="M194.482 181.457C194.482 181.936 194.292 182.395 193.953 182.733C193.615 183.071 193.157 183.262 192.678 183.262H192.112V192.653C192.112 193.131 191.921 193.589 191.583 193.928C191.245 194.266 190.786 194.456 190.308 194.457H180.756C180.519 194.457 180.284 194.41 180.065 194.319C179.846 194.229 179.647 194.096 179.48 193.928C179.312 193.76 179.179 193.562 179.089 193.343C178.998 193.124 178.951 192.889 178.951 192.652C178.951 192.415 178.998 192.18 179.089 191.961C179.179 191.742 179.312 191.544 179.48 191.376C179.647 191.208 179.846 191.076 180.065 190.985C180.284 190.894 180.519 190.847 180.756 190.847H181.321V181.457C181.321 180.978 181.511 180.519 181.849 180.18C182.188 179.842 182.647 179.651 183.126 179.651H192.677C193.156 179.651 193.615 179.842 193.953 180.18C194.291 180.518 194.482 180.977 194.482 181.456V181.457ZM180.756 193.217H188.592C188.471 192.851 188.471 192.455 188.592 192.088H180.758C180.608 192.088 180.465 192.147 180.359 192.253C180.253 192.359 180.193 192.503 180.193 192.653C180.193 192.802 180.253 192.946 180.359 193.052C180.465 193.158 180.608 193.217 180.758 193.217H180.756ZM190.872 181.457C190.872 181.265 190.902 181.075 190.961 180.892H183.127C183.001 180.892 182.879 180.934 182.78 181.012L182.778 181.013C182.71 181.066 182.656 181.133 182.618 181.21C182.581 181.287 182.562 181.372 182.562 181.457V190.847H189.649C189.804 190.846 189.954 190.896 190.076 190.991C190.198 191.086 190.284 191.22 190.32 191.37C190.363 191.513 190.359 191.667 190.308 191.808C190.258 191.949 190.164 192.071 190.04 192.155C189.952 192.202 189.879 192.272 189.827 192.358C189.775 192.443 189.747 192.54 189.745 192.64C189.743 192.74 189.767 192.838 189.815 192.925C189.864 193.012 189.934 193.085 190.02 193.136C190.106 193.187 190.203 193.215 190.303 193.216C190.403 193.217 190.501 193.192 190.588 193.143C190.674 193.094 190.747 193.022 190.797 192.936C190.847 192.85 190.874 192.752 190.874 192.653L190.872 181.457ZM189.91 183.066H183.468V184.304H189.91V183.066ZM189.91 185.593H183.468V186.831H189.91V185.593ZM189.91 188.121H183.468V189.36H189.91V188.121ZM193.242 181.457C193.241 181.308 193.182 181.164 193.076 181.058C192.97 180.952 192.827 180.893 192.677 180.892C192.551 180.892 192.429 180.934 192.33 181.012H192.328C192.26 181.065 192.205 181.132 192.168 181.209C192.13 181.287 192.111 181.371 192.111 181.457V182.022H192.677C192.827 182.022 192.97 181.962 193.076 181.856C193.182 181.75 193.241 181.607 193.242 181.457Z" fill="#707072"/>
<rect x="406.673" y="121.468" width="37.4049" height="37.7117" rx="7.73649" fill="#F1F1F1"/>
<g clip-path="url(#clip0_9184_12441)">
<path d="M429.554 147.187L428.986 142.651C428.82 141.321 427.69 140.324 426.351 140.324H425.375H424.4C423.06 140.324 421.93 141.321 421.764 142.651L421.197 147.187C421.065 148.244 421.889 149.178 422.954 149.178H425.375H427.796C428.862 149.178 429.686 148.244 429.554 147.187Z" stroke="#707072" strokeWidth="1.77082" strokeLinecap="round" strokeLinejoin="round"/>
<path d="M425.374 136.782C426.841 136.782 428.031 135.593 428.031 134.126C428.031 132.659 426.841 131.469 425.374 131.469C423.907 131.469 422.718 132.659 422.718 134.126C422.718 135.593 423.907 136.782 425.374 136.782Z" stroke="#707072" strokeWidth="1.77082"/>
<path d="M418.292 139.438C419.27 139.438 420.063 138.646 420.063 137.668C420.063 136.69 419.27 135.897 418.292 135.897C417.314 135.897 416.521 136.69 416.521 137.668C416.521 138.646 417.314 139.438 418.292 139.438Z" stroke="#707072" strokeWidth="1.77082"/>
<path d="M432.458 139.438C433.436 139.438 434.229 138.646 434.229 137.668C434.229 136.69 433.436 135.897 432.458 135.897C431.48 135.897 430.688 136.69 430.688 137.668C430.688 138.646 431.48 139.438 432.458 139.438Z" stroke="#707072" strokeWidth="1.77082"/>
<path d="M418.291 142.094H418.02C417.155 142.094 416.416 142.72 416.274 143.574L415.979 145.345C415.799 146.424 416.631 147.407 417.725 147.407H420.947" stroke="#707072" strokeWidth="1.77082" strokeLinecap="round" strokeLinejoin="round"/>
<path d="M432.458 142.094H432.729C433.595 142.094 434.334 142.72 434.476 143.574L434.771 145.345C434.951 146.424 434.119 147.407 433.024 147.407C431.996 147.407 430.772 147.407 429.802 147.407" stroke="#707072" strokeWidth="1.77082" strokeLinecap="round" strokeLinejoin="round"/>
</g>
<rect x="218.109" y="319.914" width="37.4049" height="37.7117" rx="7.73649" fill="#F1F1F1"/>
<path d="M236.812 343.197V346.738M233.27 346.738H240.354M231.677 343.197H241.947C242.939 343.197 243.435 343.197 243.814 343.004C244.147 342.834 244.418 342.563 244.588 342.23C244.781 341.851 244.781 341.355 244.781 340.363V333.634C244.781 332.643 244.781 332.147 244.588 331.768C244.418 331.435 244.147 331.164 243.814 330.994C243.435 330.801 242.939 330.801 241.947 330.801H231.677C230.685 330.801 230.189 330.801 229.81 330.994C229.477 331.164 229.206 331.435 229.036 331.768C228.843 332.147 228.843 332.643 228.843 333.634V340.363C228.843 341.355 228.843 341.851 229.036 342.23C229.206 342.563 229.477 342.834 229.81 343.004C230.189 343.197 230.685 343.197 231.677 343.197Z" stroke="#707072" strokeWidth="1.77082" strokeLinecap="round"/>
<rect x="348.811" y="208.663" width="37.4049" height="37.7117" rx="7.73649" fill="#F1F1F1"/>
<path fill-rule="evenodd" clip-rule="evenodd" d="M359.173 222.306C359.173 220.578 360.573 219.178 362.301 219.178H367.514H372.726C374.454 219.178 375.854 220.578 375.854 222.306V227.519V232.732C375.854 234.459 374.454 235.859 372.726 235.859H367.514H362.301C360.573 235.859 359.173 234.459 359.173 232.732V227.519V222.306ZM362.301 221.263C361.725 221.263 361.258 221.73 361.258 222.306V226.476H366.471V221.263H362.301ZM368.556 221.263V226.476H373.769V222.306C373.769 221.73 373.302 221.263 372.726 221.263H368.556ZM373.769 228.561H368.556V233.774H372.726C373.302 233.774 373.769 233.307 373.769 232.732V228.561ZM366.471 233.774V228.561H361.258V232.732C361.258 233.307 361.725 233.774 362.301 233.774H366.471Z" fill="#707072"/>
<rect x="35.6733" y="142.945" width="37.4049" height="37.7117" rx="7.73649" fill="#F1F1F1"/>
<g clip-path="url(#clip1_9184_12441)">
<path fill-rule="evenodd" clip-rule="evenodd" d="M60.0818 164.229L52.0074 169.688C50.0399 171.018 47.375 169.62 47.375 167.261V156.342C47.375 153.981 50.0399 152.585 52.0074 153.915L60.0818 159.374C61.807 160.54 61.807 163.062 60.0818 164.229Z" fill="#707072"/>
</g>
<path d="M120.983 448.22C118.061 448.22 115.639 447.258 113.715 445.334C111.792 443.374 110.83 440.979 110.83 438.149C110.83 435.301 111.792 432.915 113.715 430.992C115.62 429.05 118.043 428.079 120.983 428.079C122.74 428.079 124.359 428.495 125.838 429.327C127.336 430.159 128.502 431.288 129.334 432.712L126.56 434.321C126.042 433.359 125.284 432.601 124.285 432.046C123.305 431.473 122.204 431.186 120.983 431.186C118.931 431.186 117.248 431.842 115.934 433.156C114.658 434.45 114.02 436.115 114.02 438.149C114.02 440.184 114.658 441.848 115.934 443.143C117.248 444.456 118.931 445.112 120.983 445.112C122.204 445.112 123.314 444.835 124.313 444.28C125.311 443.707 126.06 442.939 126.56 441.978L129.334 443.559C128.539 444.964 127.383 446.102 125.866 446.971C124.405 447.803 122.777 448.22 120.983 448.22ZM134.922 433.988V436.318C135.68 434.598 137.104 433.738 139.194 433.738V436.984C138.066 436.91 137.067 437.187 136.198 437.816C135.347 438.427 134.922 439.444 134.922 440.868V447.859H131.926V433.988H134.922ZM154.157 442.199H143.116C143.338 443.235 143.837 444.04 144.614 444.613C145.409 445.186 146.389 445.473 147.554 445.473C149.126 445.473 150.319 444.9 151.133 443.753L153.602 445.196C152.252 447.212 150.227 448.22 147.527 448.22C145.289 448.22 143.467 447.535 142.061 446.167C140.674 444.78 139.981 443.032 139.981 440.923C139.981 438.87 140.665 437.141 142.034 435.736C143.384 434.33 145.141 433.627 147.305 433.627C149.321 433.627 150.985 434.339 152.298 435.763C153.611 437.187 154.268 438.917 154.268 440.951C154.268 441.321 154.231 441.737 154.157 442.199ZM143.088 439.758H151.244C151.041 438.667 150.578 437.825 149.857 437.234C149.154 436.642 148.294 436.346 147.277 436.346C146.167 436.346 145.243 436.651 144.503 437.261C143.763 437.872 143.291 438.704 143.088 439.758ZM167.809 435.958V433.988H170.805V447.859H167.809V445.861C166.681 447.434 165.063 448.22 162.954 448.22C161.049 448.22 159.422 447.517 158.072 446.111C156.721 444.706 156.046 442.976 156.046 440.923C156.046 438.87 156.721 437.141 158.072 435.736C159.422 434.33 161.049 433.627 162.954 433.627C165.063 433.627 166.681 434.404 167.809 435.958ZM160.291 444.114C161.123 444.946 162.168 445.362 163.426 445.362C164.683 445.362 165.728 444.946 166.561 444.114C167.393 443.263 167.809 442.199 167.809 440.923C167.809 439.647 167.393 438.593 166.561 437.761C165.728 436.91 164.683 436.485 163.426 436.485C162.168 436.485 161.123 436.91 160.291 437.761C159.459 438.593 159.042 439.647 159.042 440.923C159.042 442.181 159.459 443.244 160.291 444.114ZM182.037 433.988V436.873H178.597V443.531C178.597 444.104 178.727 444.521 178.986 444.78C179.245 445.02 179.624 445.159 180.123 445.196C180.641 445.214 181.279 445.205 182.037 445.168V447.859C179.744 448.136 178.098 447.942 177.099 447.276C176.101 446.592 175.601 445.344 175.601 443.531V436.873H173.049V433.988H175.601V430.992L178.597 430.104V433.988H182.037ZM197.585 442.199H186.544C186.766 443.235 187.265 444.04 188.042 444.613C188.837 445.186 189.818 445.473 190.983 445.473C192.555 445.473 193.748 444.9 194.562 443.753L197.031 445.196C195.68 447.212 193.655 448.22 190.955 448.22C188.717 448.22 186.895 447.535 185.49 446.167C184.103 444.78 183.409 443.032 183.409 440.923C183.409 438.87 184.093 437.141 185.462 435.736C186.812 434.33 188.569 433.627 190.733 433.627C192.749 433.627 194.414 434.339 195.727 435.763C197.04 437.187 197.696 438.917 197.696 440.951C197.696 441.321 197.659 441.737 197.585 442.199ZM186.516 439.758H194.673C194.469 438.667 194.007 437.825 193.285 437.234C192.583 436.642 191.723 436.346 190.705 436.346C189.596 436.346 188.671 436.651 187.931 437.261C187.191 437.872 186.72 438.704 186.516 439.758ZM213.066 444.058L216.617 433.988H219.808L214.481 448.303C213.15 451.891 210.893 453.592 207.712 453.407V450.605C208.637 450.661 209.386 450.467 209.959 450.023C210.533 449.579 211.014 448.867 211.402 447.887L211.541 447.609L205.659 433.988H208.933L213.066 444.058ZM232.874 446.111C231.469 447.517 229.739 448.22 227.687 448.22C225.634 448.22 223.904 447.517 222.499 446.111C221.075 444.687 220.363 442.958 220.363 440.923C220.363 438.889 221.075 437.16 222.499 435.736C223.904 434.33 225.634 433.627 227.687 433.627C229.739 433.627 231.469 434.33 232.874 435.736C234.298 437.16 235.01 438.889 235.01 440.923C235.01 442.958 234.298 444.687 232.874 446.111ZM223.359 440.923C223.359 442.181 223.775 443.226 224.607 444.058C225.439 444.89 226.466 445.307 227.687 445.307C228.907 445.307 229.934 444.89 230.766 444.058C231.598 443.226 232.014 442.181 232.014 440.923C232.014 439.666 231.598 438.621 230.766 437.788C229.934 436.956 228.907 436.54 227.687 436.54C226.466 436.54 225.439 436.956 224.607 437.788C223.775 438.621 223.359 439.666 223.359 440.923ZM247.069 441.423V433.988H250.065V447.859H247.069V446.083C246.144 447.507 244.711 448.22 242.769 448.22C241.16 448.22 239.865 447.711 238.885 446.694C237.923 445.658 237.442 444.262 237.442 442.505V433.988H240.438V442.199C240.438 443.235 240.716 444.03 241.271 444.585C241.825 445.14 242.584 445.418 243.546 445.418C244.637 445.418 245.497 445.085 246.126 444.419C246.754 443.735 247.069 442.736 247.069 441.423ZM256.565 433.988V436.318C257.323 434.598 258.747 433.738 260.837 433.738V436.984C259.709 436.91 258.71 437.187 257.841 437.816C256.99 438.427 256.565 439.444 256.565 440.868V447.859H253.568V433.988H256.565ZM273.981 433.988H281.582V447.859H278.586V436.873H273.981V447.859H270.985V436.873H268.876V433.988H270.985V433.71C270.985 429.956 273.075 428.079 277.255 428.079C278.272 428.079 279.298 428.199 280.334 428.439V431.186C279.298 431.038 278.272 430.964 277.255 430.964C276.126 430.964 275.294 431.177 274.758 431.602C274.24 432.009 273.981 432.712 273.981 433.71V433.988ZM288.045 433.988V436.318C288.804 434.598 290.228 433.738 292.318 433.738V436.984C291.19 436.91 290.191 437.187 289.322 437.816C288.471 438.427 288.045 439.444 288.045 440.868V447.859H285.049V433.988H288.045ZM296.735 437.816C296.735 438.242 296.957 438.593 297.401 438.87C297.844 439.129 298.492 439.379 299.343 439.619C299.99 439.767 300.554 439.925 301.035 440.091C301.516 440.258 302.024 440.507 302.561 440.84C303.097 441.155 303.504 441.58 303.781 442.116C304.077 442.634 304.216 443.244 304.197 443.947C304.197 445.279 303.68 446.324 302.644 447.082C301.608 447.84 300.323 448.22 298.788 448.22C297.419 448.22 296.245 447.933 295.264 447.36C294.284 446.786 293.572 445.991 293.128 444.974L295.708 443.476C296.171 444.807 297.197 445.473 298.788 445.473C300.36 445.473 301.146 444.955 301.146 443.92C301.146 443.161 300.267 442.569 298.51 442.144C297.844 441.978 297.28 441.811 296.818 441.645C296.374 441.478 295.875 441.238 295.32 440.923C294.784 440.609 294.367 440.193 294.072 439.675C293.794 439.157 293.665 438.556 293.683 437.872C293.683 436.596 294.164 435.569 295.126 434.792C296.106 434.016 297.317 433.627 298.76 433.627C299.907 433.627 300.924 433.886 301.812 434.404C302.718 434.903 303.411 435.606 303.892 436.512L301.368 437.927C300.905 436.873 300.036 436.346 298.76 436.346C298.168 436.346 297.678 436.475 297.29 436.734C296.92 436.993 296.735 437.354 296.735 437.816ZM314.029 433.988V436.873H310.589V443.531C310.589 444.104 310.719 444.521 310.978 444.78C311.237 445.02 311.616 445.159 312.115 445.196C312.633 445.214 313.271 445.205 314.029 445.168V447.859C311.736 448.136 310.09 447.942 309.091 447.276C308.093 446.592 307.593 445.344 307.593 443.531V436.873H305.041V433.988H307.593V430.992L310.589 430.104V433.988H314.029ZM337.079 443.559L339.797 433.988H342.96L338.604 447.859H335.664L332.779 438.51L329.866 447.859H326.925L322.569 433.988H325.732L328.423 443.559L331.336 433.988H334.193L337.079 443.559ZM356.359 446.111C354.954 447.517 353.225 448.22 351.172 448.22C349.119 448.22 347.389 447.517 345.984 446.111C344.56 444.687 343.848 442.958 343.848 440.923C343.848 438.889 344.56 437.16 345.984 435.736C347.389 434.33 349.119 433.627 351.172 433.627C353.225 433.627 354.954 434.33 356.359 435.736C357.784 437.16 358.496 438.889 358.496 440.923C358.496 442.958 357.784 444.687 356.359 446.111ZM346.844 440.923C346.844 442.181 347.26 443.226 348.092 444.058C348.925 444.89 349.951 445.307 351.172 445.307C352.392 445.307 353.419 444.89 354.251 444.058C355.083 443.226 355.499 442.181 355.499 440.923C355.499 439.666 355.083 438.621 354.251 437.788C353.419 436.956 352.392 436.54 351.172 436.54C349.951 436.54 348.925 436.956 348.092 437.788C347.26 438.621 346.844 439.666 346.844 440.923ZM364.201 433.988V436.318C364.959 434.598 366.383 433.738 368.473 433.738V436.984C367.345 436.91 366.346 437.187 365.477 437.816C364.626 438.427 364.201 439.444 364.201 440.868V447.859H361.205V433.988H364.201ZM376.624 440.785L382.949 447.859H379.37L373.683 441.45V447.859H370.687V428.439H373.683V440.119L379.065 433.988H382.727L376.624 440.785ZM392.233 428.079C393.546 428.079 394.989 428.245 396.561 428.578V447.859H393.564V430.742C393.361 430.723 392.917 430.714 392.233 430.714C390.05 430.714 388.959 431.713 388.959 433.71V433.988H391.539V436.873H388.959V447.859H385.963V436.873H383.855V433.988H385.963V433.71C385.963 429.956 388.053 428.079 392.233 428.079ZM411.762 446.111C410.357 447.517 408.628 448.22 406.575 448.22C404.522 448.22 402.792 447.517 401.387 446.111C399.963 444.687 399.251 442.958 399.251 440.923C399.251 438.889 399.963 437.16 401.387 435.736C402.792 434.33 404.522 433.627 406.575 433.627C408.628 433.627 410.357 434.33 411.762 435.736C413.187 437.16 413.899 438.889 413.899 440.923C413.899 442.958 413.187 444.687 411.762 446.111ZM402.247 440.923C402.247 442.181 402.663 443.226 403.495 444.058C404.328 444.89 405.354 445.307 406.575 445.307C407.795 445.307 408.822 444.89 409.654 444.058C410.486 443.226 410.902 442.181 410.902 440.923C410.902 439.666 410.486 438.621 409.654 437.788C408.822 436.956 407.795 436.54 406.575 436.54C405.354 436.54 404.328 436.956 403.495 437.788C402.663 438.621 402.247 439.666 402.247 440.923ZM429.327 443.559L432.045 433.988H435.208L430.852 447.859H427.912L425.027 438.51L422.114 447.859H419.173L414.818 433.988H417.98L420.671 443.559L423.584 433.988H426.441L429.327 443.559Z" fill="black"/>
<rect x="486.333" y="221.174" width="37.4049" height="37.7117" rx="7.73649" fill="#F1F1F1"/>
<g clip-path="url(#clip2_9184_12441)">
<path d="M510.249 230.216H499.821C499.414 230.216 499.024 230.377 498.737 230.665C498.449 230.952 498.288 231.342 498.288 231.749V248.311C498.288 248.717 498.449 249.107 498.737 249.395C499.024 249.682 499.414 249.844 499.821 249.844H510.249C510.655 249.844 511.045 249.682 511.333 249.395C511.621 249.107 511.782 248.717 511.782 248.311V231.749C511.782 231.342 511.621 230.952 511.333 230.665C511.045 230.377 510.655 230.216 510.249 230.216ZM510.249 248.311H499.821V231.749H510.249V248.311Z" fill="#707072"/>
<path d="M505.036 246.777C505.578 246.777 506.018 246.365 506.018 245.857C506.018 245.349 505.578 244.937 505.036 244.937C504.494 244.937 504.055 245.349 504.055 245.857C504.055 246.365 504.494 246.777 505.036 246.777Z" fill="#707072"/>
</g>
<path d="M121.823 491.664C120.778 491.664 119.882 491.424 119.135 490.944C118.399 490.453 117.882 489.776 117.583 488.912L118.863 488.176C119.29 489.531 120.287 490.208 121.855 490.208C122.613 490.208 123.194 490.053 123.599 489.744C124.015 489.435 124.223 489.013 124.223 488.48C124.223 487.957 124.021 487.557 123.615 487.28C123.253 487.035 122.575 486.752 121.583 486.432L120.511 486.08C120.277 485.984 119.967 485.845 119.583 485.664C119.21 485.472 118.938 485.28 118.767 485.088C118.298 484.576 118.063 483.952 118.063 483.216C118.063 482.235 118.405 481.467 119.087 480.912C119.77 480.336 120.602 480.048 121.583 480.048C122.458 480.048 123.226 480.267 123.887 480.704C124.549 481.141 125.045 481.739 125.375 482.496L124.127 483.216C123.647 482.064 122.799 481.488 121.583 481.488C120.975 481.488 120.485 481.637 120.111 481.936C119.738 482.235 119.551 482.64 119.551 483.152C119.551 483.643 119.727 484.016 120.079 484.272C120.442 484.539 121.05 484.805 121.903 485.072L122.559 485.28C122.922 485.419 123.119 485.493 123.151 485.504C123.493 485.632 123.866 485.808 124.271 486.032C124.559 486.192 124.847 486.437 125.135 486.768C125.509 487.141 125.695 487.701 125.695 488.448C125.695 489.429 125.338 490.213 124.623 490.8C123.898 491.376 122.965 491.664 121.823 491.664ZM131.431 483.456V484.8H129.303V489.136C129.303 489.531 129.378 489.813 129.527 489.984C129.687 490.144 129.927 490.229 130.247 490.24C130.567 490.24 130.962 490.229 131.431 490.208V491.456C130.204 491.616 129.308 491.515 128.743 491.152C128.188 490.789 127.911 490.117 127.911 489.136V484.8H126.327V483.456H127.911V481.632L129.303 481.216V483.456H131.431ZM139.297 484.832V483.456H140.689V491.456H139.297V490.08C138.614 491.136 137.606 491.664 136.273 491.664C135.142 491.664 134.187 491.259 133.409 490.448C132.619 489.627 132.225 488.629 132.225 487.456C132.225 486.293 132.619 485.301 133.409 484.48C134.198 483.659 135.153 483.248 136.273 483.248C137.606 483.248 138.614 483.776 139.297 484.832ZM136.449 490.32C137.259 490.32 137.937 490.048 138.481 489.504C139.025 488.939 139.297 488.256 139.297 487.456C139.297 486.645 139.025 485.968 138.481 485.424C137.937 484.869 137.259 484.592 136.449 484.592C135.649 484.592 134.977 484.869 134.433 485.424C133.889 485.968 133.617 486.645 133.617 487.456C133.617 488.256 133.889 488.939 134.433 489.504C134.977 490.048 135.649 490.32 136.449 490.32ZM144.19 483.456V484.8C144.648 483.808 145.48 483.312 146.686 483.312V484.768C146.003 484.736 145.416 484.917 144.926 485.312C144.435 485.707 144.19 486.341 144.19 487.216V491.456H142.798V483.456H144.19ZM152.587 483.456V484.8H150.459V489.136C150.459 489.531 150.534 489.813 150.683 489.984C150.843 490.144 151.083 490.229 151.403 490.24C151.723 490.24 152.118 490.229 152.587 490.208V491.456C151.361 491.616 150.465 491.515 149.899 491.152C149.345 490.789 149.067 490.117 149.067 489.136V484.8H147.483V483.456H149.067V481.632L150.459 481.216V483.456H152.587ZM164.906 484.832V483.456H166.298V491.456H164.906V490.08C164.223 491.136 163.215 491.664 161.882 491.664C160.751 491.664 159.797 491.259 159.018 490.448C158.229 489.627 157.834 488.629 157.834 487.456C157.834 486.293 158.229 485.301 159.018 484.48C159.807 483.659 160.762 483.248 161.882 483.248C163.215 483.248 164.223 483.776 164.906 484.832ZM162.058 490.32C162.869 490.32 163.546 490.048 164.09 489.504C164.634 488.939 164.906 488.256 164.906 487.456C164.906 486.645 164.634 485.968 164.09 485.424C163.546 484.869 162.869 484.592 162.058 484.592C161.258 484.592 160.586 484.869 160.042 485.424C159.498 485.968 159.226 486.645 159.226 487.456C159.226 488.256 159.498 488.939 160.042 489.504C160.586 490.048 161.258 490.32 162.058 490.32ZM173.927 487.696V483.456H175.319V491.456H173.927V490.304C173.372 491.211 172.508 491.664 171.335 491.664C170.396 491.664 169.644 491.371 169.079 490.784C168.514 490.187 168.231 489.381 168.231 488.368V483.456H169.623V488.288C169.623 488.928 169.799 489.429 170.151 489.792C170.503 490.155 170.988 490.336 171.607 490.336C172.322 490.336 172.887 490.117 173.303 489.68C173.719 489.232 173.927 488.571 173.927 487.696ZM181.79 483.456V484.8H179.662V489.136C179.662 489.531 179.737 489.813 179.886 489.984C180.046 490.144 180.286 490.229 180.606 490.24C180.926 490.24 181.321 490.229 181.79 490.208V491.456C180.564 491.616 179.668 491.515 179.102 491.152C178.548 490.789 178.27 490.117 178.27 489.136V484.8H176.686V483.456H178.27V481.632L179.662 481.216V483.456H181.79ZM189.784 490.448C188.973 491.259 187.976 491.664 186.792 491.664C185.608 491.664 184.611 491.259 183.8 490.448C182.989 489.637 182.584 488.64 182.584 487.456C182.584 486.272 182.989 485.275 183.8 484.464C184.611 483.653 185.608 483.248 186.792 483.248C187.976 483.248 188.973 483.653 189.784 484.464C190.605 485.285 191.016 486.283 191.016 487.456C191.016 488.629 190.605 489.627 189.784 490.448ZM186.792 490.304C187.592 490.304 188.264 490.032 188.808 489.488C189.352 488.944 189.624 488.267 189.624 487.456C189.624 486.645 189.352 485.968 188.808 485.424C188.264 484.88 187.592 484.608 186.792 484.608C186.003 484.608 185.336 484.88 184.792 485.424C184.248 485.968 183.976 486.645 183.976 487.456C183.976 488.267 184.248 488.944 184.792 489.488C185.336 490.032 186.003 490.304 186.792 490.304ZM201.297 483.248C202.204 483.248 202.929 483.541 203.473 484.128C204.028 484.715 204.305 485.499 204.305 486.48V491.456H202.913V486.528C202.913 485.92 202.753 485.445 202.433 485.104C202.124 484.752 201.697 484.576 201.153 484.576C200.534 484.576 200.049 484.784 199.697 485.2C199.356 485.605 199.185 486.208 199.185 487.008V491.456H197.793V486.528C197.793 485.92 197.638 485.445 197.329 485.104C197.03 484.752 196.62 484.576 196.097 484.576C195.489 484.576 194.993 484.789 194.609 485.216C194.236 485.632 194.049 486.229 194.049 487.008V491.456H192.657V483.456H194.049V484.528C194.593 483.675 195.388 483.248 196.433 483.248C197.51 483.248 198.294 483.701 198.785 484.608C199.34 483.701 200.177 483.248 201.297 483.248ZM212.859 484.832V483.456H214.251V491.456H212.859V490.08C212.177 491.136 211.169 491.664 209.835 491.664C208.705 491.664 207.75 491.259 206.971 490.448C206.182 489.627 205.787 488.629 205.787 487.456C205.787 486.293 206.182 485.301 206.971 484.48C207.761 483.659 208.715 483.248 209.835 483.248C211.169 483.248 212.177 483.776 212.859 484.832ZM210.011 490.32C210.822 490.32 211.499 490.048 212.043 489.504C212.587 488.939 212.859 488.256 212.859 487.456C212.859 486.645 212.587 485.968 212.043 485.424C211.499 484.869 210.822 484.592 210.011 484.592C209.211 484.592 208.539 484.869 207.995 485.424C207.451 485.968 207.179 486.645 207.179 487.456C207.179 488.256 207.451 488.939 207.995 489.504C208.539 490.048 209.211 490.32 210.011 490.32ZM220.712 483.456V484.8H218.584V489.136C218.584 489.531 218.659 489.813 218.808 489.984C218.968 490.144 219.208 490.229 219.528 490.24C219.848 490.24 220.243 490.229 220.712 490.208V491.456C219.486 491.616 218.59 491.515 218.024 491.152C217.47 490.789 217.192 490.117 217.192 489.136V484.8H215.608V483.456H217.192V481.632L218.584 481.216V483.456H220.712ZM223.064 482C222.798 482 222.574 481.909 222.392 481.728C222.211 481.547 222.12 481.328 222.12 481.072C222.12 480.816 222.211 480.597 222.392 480.416C222.574 480.224 222.798 480.128 223.064 480.128C223.32 480.128 223.539 480.224 223.72 480.416C223.902 480.597 223.992 480.816 223.992 481.072C223.992 481.328 223.902 481.547 223.72 481.728C223.539 481.909 223.32 482 223.064 482ZM223.752 491.456H222.36V483.456H223.752V491.456ZM229.86 483.248C230.798 483.248 231.55 483.547 232.116 484.144C232.681 484.731 232.964 485.531 232.964 486.544V491.456H231.572V486.624C231.572 485.984 231.396 485.483 231.044 485.12C230.692 484.757 230.206 484.576 229.588 484.576C228.873 484.576 228.308 484.8 227.892 485.248C227.476 485.685 227.268 486.341 227.268 487.216V491.456H225.876V483.456H227.268V484.608C227.822 483.701 228.686 483.248 229.86 483.248ZM241.547 484.832V483.456H242.923V491.12C242.923 492.304 242.523 493.221 241.723 493.872C240.912 494.533 239.952 494.864 238.843 494.864C237.947 494.864 237.174 494.693 236.523 494.352C235.872 494.021 235.382 493.541 235.051 492.912L236.267 492.224C236.704 493.12 237.574 493.568 238.875 493.568C239.707 493.568 240.358 493.349 240.827 492.912C241.307 492.475 241.547 491.877 241.547 491.12V489.984C240.843 491.051 239.84 491.584 238.539 491.584C237.387 491.584 236.422 491.179 235.643 490.368C234.854 489.547 234.459 488.56 234.459 487.408C234.459 486.256 234.854 485.275 235.643 484.464C236.422 483.653 237.387 483.248 238.539 483.248C239.851 483.248 240.854 483.776 241.547 484.832ZM241.547 487.408C241.547 486.608 241.275 485.936 240.731 485.392C240.187 484.848 239.51 484.576 238.699 484.576C237.888 484.576 237.211 484.848 236.667 485.392C236.123 485.936 235.851 486.608 235.851 487.408C235.851 488.219 236.123 488.896 236.667 489.44C237.211 489.984 237.888 490.256 238.699 490.256C239.51 490.256 240.187 489.984 240.731 489.44C241.275 488.896 241.547 488.219 241.547 487.408ZM253.384 483.456V484.8H251.256V489.136C251.256 489.531 251.331 489.813 251.48 489.984C251.64 490.144 251.88 490.229 252.2 490.24C252.52 490.24 252.915 490.229 253.384 490.208V491.456C252.157 491.616 251.261 491.515 250.696 491.152C250.141 490.789 249.864 490.117 249.864 489.136V484.8H248.28V483.456H249.864V481.632L251.256 481.216V483.456H253.384ZM261.25 484.832V483.456H262.642V491.456H261.25V490.08C260.567 491.136 259.559 491.664 258.226 491.664C257.095 491.664 256.14 491.259 255.362 490.448C254.572 489.627 254.178 488.629 254.178 487.456C254.178 486.293 254.572 485.301 255.362 484.48C256.151 483.659 257.106 483.248 258.226 483.248C259.559 483.248 260.567 483.776 261.25 484.832ZM258.402 490.32C259.212 490.32 259.89 490.048 260.434 489.504C260.978 488.939 261.25 488.256 261.25 487.456C261.25 486.645 260.978 485.968 260.434 485.424C259.89 484.869 259.212 484.592 258.402 484.592C257.602 484.592 256.93 484.869 256.386 485.424C255.842 485.968 255.57 486.645 255.57 487.456C255.57 488.256 255.842 488.939 256.386 489.504C256.93 490.048 257.602 490.32 258.402 490.32ZM265.935 485.616C265.935 486.128 266.463 486.528 267.519 486.816C267.914 486.901 268.245 486.992 268.511 487.088C268.789 487.173 269.087 487.307 269.407 487.488C269.738 487.669 269.989 487.909 270.159 488.208C270.33 488.507 270.415 488.859 270.415 489.264C270.415 489.989 270.133 490.571 269.567 491.008C269.002 491.445 268.287 491.664 267.423 491.664C266.655 491.664 265.989 491.499 265.423 491.168C264.869 490.827 264.474 490.368 264.239 489.792L265.439 489.104C265.567 489.488 265.807 489.792 266.159 490.016C266.511 490.24 266.933 490.352 267.423 490.352C267.903 490.352 268.287 490.261 268.575 490.08C268.863 489.899 269.007 489.627 269.007 489.264C269.007 488.72 268.479 488.325 267.423 488.08C267.071 487.984 266.805 487.909 266.623 487.856C266.442 487.803 266.191 487.707 265.871 487.568C265.562 487.429 265.327 487.285 265.167 487.136C265.007 486.976 264.858 486.768 264.719 486.512C264.591 486.245 264.527 485.952 264.527 485.632C264.527 484.939 264.794 484.368 265.327 483.92C265.871 483.472 266.549 483.248 267.359 483.248C268.01 483.248 268.586 483.397 269.087 483.696C269.599 483.984 269.983 484.389 270.239 484.912L269.071 485.568C268.783 484.885 268.213 484.544 267.359 484.544C266.954 484.544 266.613 484.64 266.335 484.832C266.069 485.024 265.935 485.285 265.935 485.616ZM274.801 487.328L278.753 491.456H277.025L273.377 487.664V491.456H271.985V480.256H273.377V486.992L276.833 483.456H278.625L274.801 487.328ZM280.638 485.616C280.638 486.128 281.166 486.528 282.222 486.816C282.617 486.901 282.948 486.992 283.214 487.088C283.492 487.173 283.79 487.307 284.11 487.488C284.441 487.669 284.692 487.909 284.862 488.208C285.033 488.507 285.118 488.859 285.118 489.264C285.118 489.989 284.836 490.571 284.27 491.008C283.705 491.445 282.99 491.664 282.126 491.664C281.358 491.664 280.692 491.499 280.126 491.168C279.572 490.827 279.177 490.368 278.942 489.792L280.142 489.104C280.27 489.488 280.51 489.792 280.862 490.016C281.214 490.24 281.636 490.352 282.126 490.352C282.606 490.352 282.99 490.261 283.278 490.08C283.566 489.899 283.71 489.627 283.71 489.264C283.71 488.72 283.182 488.325 282.126 488.08C281.774 487.984 281.508 487.909 281.326 487.856C281.145 487.803 280.894 487.707 280.574 487.568C280.265 487.429 280.03 487.285 279.87 487.136C279.71 486.976 279.561 486.768 279.422 486.512C279.294 486.245 279.23 485.952 279.23 485.632C279.23 484.939 279.497 484.368 280.03 483.92C280.574 483.472 281.252 483.248 282.062 483.248C282.713 483.248 283.289 483.397 283.79 483.696C284.302 483.984 284.686 484.389 284.942 484.912L283.774 485.568C283.486 484.885 282.916 484.544 282.062 484.544C281.657 484.544 281.316 484.64 281.038 484.832C280.772 485.024 280.638 485.285 280.638 485.616ZM297.39 484.832V483.456H298.782V491.456H297.39V490.08C296.708 491.136 295.7 491.664 294.366 491.664C293.236 491.664 292.281 491.259 291.502 490.448C290.713 489.627 290.318 488.629 290.318 487.456C290.318 486.293 290.713 485.301 291.502 484.48C292.292 483.659 293.246 483.248 294.366 483.248C295.7 483.248 296.708 483.776 297.39 484.832ZM294.542 490.32C295.353 490.32 296.03 490.048 296.574 489.504C297.118 488.939 297.39 488.256 297.39 487.456C297.39 486.645 297.118 485.968 296.574 485.424C296.03 484.869 295.353 484.592 294.542 484.592C293.742 484.592 293.07 484.869 292.526 485.424C291.982 485.968 291.71 486.645 291.71 487.456C291.71 488.256 291.982 488.939 292.526 489.504C293.07 490.048 293.742 490.32 294.542 490.32ZM304.875 483.248C305.814 483.248 306.566 483.547 307.131 484.144C307.697 484.731 307.979 485.531 307.979 486.544V491.456H306.587V486.624C306.587 485.984 306.411 485.483 306.059 485.12C305.707 484.757 305.222 484.576 304.603 484.576C303.889 484.576 303.323 484.8 302.907 485.248C302.491 485.685 302.283 486.341 302.283 487.216V491.456H300.891V483.456H302.283V484.608C302.838 483.701 303.702 483.248 304.875 483.248ZM316.547 484.832V480.256H317.939V491.456H316.547V490.08C315.864 491.136 314.856 491.664 313.523 491.664C312.392 491.664 311.437 491.259 310.659 490.448C309.869 489.627 309.475 488.629 309.475 487.456C309.475 486.293 309.869 485.301 310.659 484.48C311.448 483.659 312.403 483.248 313.523 483.248C314.856 483.248 315.864 483.776 316.547 484.832ZM313.699 490.32C314.509 490.32 315.187 490.048 315.731 489.504C316.275 488.939 316.547 488.256 316.547 487.456C316.547 486.645 316.275 485.968 315.731 485.424C315.187 484.869 314.509 484.592 313.699 484.592C312.899 484.592 312.227 484.869 311.683 485.424C311.139 485.968 310.867 486.645 310.867 487.456C310.867 488.256 311.139 488.939 311.683 489.504C312.227 490.048 312.899 490.32 313.699 490.32ZM325.248 485.616C325.248 486.128 325.776 486.528 326.832 486.816C327.226 486.901 327.557 486.992 327.824 487.088C328.101 487.173 328.4 487.307 328.72 487.488C329.05 487.669 329.301 487.909 329.472 488.208C329.642 488.507 329.728 488.859 329.728 489.264C329.728 489.989 329.445 490.571 328.88 491.008C328.314 491.445 327.6 491.664 326.736 491.664C325.968 491.664 325.301 491.499 324.736 491.168C324.181 490.827 323.786 490.368 323.552 489.792L324.752 489.104C324.88 489.488 325.12 489.792 325.472 490.016C325.824 490.24 326.245 490.352 326.736 490.352C327.216 490.352 327.6 490.261 327.888 490.08C328.176 489.899 328.32 489.627 328.32 489.264C328.32 488.72 327.792 488.325 326.736 488.08C326.384 487.984 326.117 487.909 325.936 487.856C325.754 487.803 325.504 487.707 325.184 487.568C324.874 487.429 324.64 487.285 324.48 487.136C324.32 486.976 324.17 486.768 324.032 486.512C323.904 486.245 323.84 485.952 323.84 485.632C323.84 484.939 324.106 484.368 324.64 483.92C325.184 483.472 325.861 483.248 326.672 483.248C327.322 483.248 327.898 483.397 328.4 483.696C328.912 483.984 329.296 484.389 329.552 484.912L328.384 485.568C328.096 484.885 327.525 484.544 326.672 484.544C326.266 484.544 325.925 484.64 325.648 484.832C325.381 485.024 325.248 485.285 325.248 485.616ZM332.002 482C331.735 482 331.511 481.909 331.33 481.728C331.148 481.547 331.058 481.328 331.058 481.072C331.058 480.816 331.148 480.597 331.33 480.416C331.511 480.224 331.735 480.128 332.002 480.128C332.258 480.128 332.476 480.224 332.658 480.416C332.839 480.597 332.93 480.816 332.93 481.072C332.93 481.328 332.839 481.547 332.658 481.728C332.476 481.909 332.258 482 332.002 482ZM332.69 491.456H331.298V483.456H332.69V491.456ZM343.453 483.248C344.36 483.248 345.085 483.541 345.629 484.128C346.184 484.715 346.461 485.499 346.461 486.48V491.456H345.069V486.528C345.069 485.92 344.909 485.445 344.589 485.104C344.28 484.752 343.853 484.576 343.309 484.576C342.691 484.576 342.205 484.784 341.853 485.2C341.512 485.605 341.341 486.208 341.341 487.008V491.456H339.949V486.528C339.949 485.92 339.795 485.445 339.485 485.104C339.187 484.752 338.776 484.576 338.253 484.576C337.645 484.576 337.149 484.789 336.765 485.216C336.392 485.632 336.205 486.229 336.205 487.008V491.456H334.813V483.456H336.205V484.528C336.749 483.675 337.544 483.248 338.589 483.248C339.667 483.248 340.451 483.701 340.941 484.608C341.496 483.701 342.333 483.248 343.453 483.248ZM352.807 483.248C353.927 483.248 354.882 483.659 355.671 484.48C356.461 485.301 356.855 486.293 356.855 487.456C356.855 488.629 356.461 489.627 355.671 490.448C354.893 491.259 353.938 491.664 352.807 491.664C351.485 491.664 350.477 491.136 349.783 490.08V494.656H348.391V483.456H349.783V484.832C350.477 483.776 351.485 483.248 352.807 483.248ZM352.631 490.32C353.431 490.32 354.103 490.048 354.647 489.504C355.191 488.939 355.463 488.256 355.463 487.456C355.463 486.645 355.191 485.968 354.647 485.424C354.103 484.869 353.431 484.592 352.631 484.592C351.821 484.592 351.143 484.869 350.599 485.424C350.055 485.968 349.783 486.645 349.783 487.456C349.783 488.256 350.055 488.939 350.599 489.504C351.143 490.048 351.821 490.32 352.631 490.32ZM359.908 491.456H358.516V479.776H359.908V491.456ZM362.736 482C362.469 482 362.245 481.909 362.064 481.728C361.883 481.547 361.792 481.328 361.792 481.072C361.792 480.816 361.883 480.597 362.064 480.416C362.245 480.224 362.469 480.128 362.736 480.128C362.992 480.128 363.211 480.224 363.392 480.416C363.573 480.597 363.664 480.816 363.664 481.072C363.664 481.328 363.573 481.547 363.392 481.728C363.211 481.909 362.992 482 362.736 482ZM363.424 491.456H362.032V483.456H363.424V491.456ZM369.66 480.048V481.392C368.252 481.275 367.548 481.883 367.548 483.216V483.456H369.66V484.8H367.548V491.456H366.156V484.8H364.876V483.456H366.156V483.216C366.156 482.128 366.46 481.312 367.068 480.768C367.676 480.213 368.54 479.973 369.66 480.048ZM374.312 489.728L376.616 483.456H378.104L374.84 491.952C374.488 492.859 374.003 493.547 373.384 494.016C372.776 494.496 372.077 494.709 371.288 494.656V493.36C372.269 493.435 372.989 492.891 373.448 491.728L373.592 491.424L370.104 483.456H371.592L374.312 489.728ZM379.97 482C379.704 482 379.48 481.909 379.298 481.728C379.117 481.547 379.026 481.328 379.026 481.072C379.026 480.816 379.117 480.597 379.298 480.416C379.48 480.224 379.704 480.128 379.97 480.128C380.226 480.128 380.445 480.224 380.626 480.416C380.808 480.597 380.898 480.816 380.898 481.072C380.898 481.328 380.808 481.547 380.626 481.728C380.445 481.909 380.226 482 379.97 482ZM380.658 491.456H379.266V483.456H380.658V491.456ZM386.766 483.248C387.705 483.248 388.457 483.547 389.022 484.144C389.587 484.731 389.87 485.531 389.87 486.544V491.456H388.478V486.624C388.478 485.984 388.302 485.483 387.95 485.12C387.598 484.757 387.113 484.576 386.494 484.576C385.779 484.576 385.214 484.8 384.798 485.248C384.382 485.685 384.174 486.341 384.174 487.216V491.456H382.782V483.456H384.174V484.608C384.729 483.701 385.593 483.248 386.766 483.248ZM398.453 484.832V483.456H399.829V491.12C399.829 492.304 399.429 493.221 398.629 493.872C397.819 494.533 396.859 494.864 395.749 494.864C394.853 494.864 394.08 494.693 393.429 494.352C392.779 494.021 392.288 493.541 391.957 492.912L393.173 492.224C393.611 493.12 394.48 493.568 395.781 493.568C396.613 493.568 397.264 493.349 397.733 492.912C398.213 492.475 398.453 491.877 398.453 491.12V489.984C397.749 491.051 396.747 491.584 395.445 491.584C394.293 491.584 393.328 491.179 392.549 490.368C391.76 489.547 391.365 488.56 391.365 487.408C391.365 486.256 391.76 485.275 392.549 484.464C393.328 483.653 394.293 483.248 395.445 483.248C396.757 483.248 397.76 483.776 398.453 484.832ZM398.453 487.408C398.453 486.608 398.181 485.936 397.637 485.392C397.093 484.848 396.416 484.576 395.605 484.576C394.795 484.576 394.117 484.848 393.573 485.392C393.029 485.936 392.757 486.608 392.757 487.408C392.757 488.219 393.029 488.896 393.573 489.44C394.117 489.984 394.795 490.256 395.605 490.256C396.416 490.256 397.093 489.984 397.637 489.44C398.181 488.896 398.453 488.219 398.453 487.408ZM409.218 489.728L411.522 483.456H413.01L409.746 491.952C409.394 492.859 408.909 493.547 408.29 494.016C407.682 494.496 406.984 494.709 406.194 494.656V493.36C407.176 493.435 407.896 492.891 408.354 491.728L408.498 491.424L405.01 483.456H406.498L409.218 489.728ZM420.612 490.448C419.802 491.259 418.804 491.664 417.62 491.664C416.436 491.664 415.439 491.259 414.628 490.448C413.818 489.637 413.412 488.64 413.412 487.456C413.412 486.272 413.818 485.275 414.628 484.464C415.439 483.653 416.436 483.248 417.62 483.248C418.804 483.248 419.802 483.653 420.612 484.464C421.434 485.285 421.844 486.283 421.844 487.456C421.844 488.629 421.434 489.627 420.612 490.448ZM417.62 490.304C418.42 490.304 419.092 490.032 419.636 489.488C420.18 488.944 420.452 488.267 420.452 487.456C420.452 486.645 420.18 485.968 419.636 485.424C419.092 484.88 418.42 484.608 417.62 484.608C416.831 484.608 416.164 484.88 415.62 485.424C415.076 485.968 414.804 486.645 414.804 487.456C414.804 488.267 415.076 488.944 415.62 489.488C416.164 490.032 416.831 490.304 417.62 490.304ZM429.005 487.696V483.456H430.397V491.456H429.005V490.304C428.451 491.211 427.587 491.664 426.413 491.664C425.475 491.664 424.723 491.371 424.157 490.784C423.592 490.187 423.309 489.381 423.309 488.368V483.456H424.701V488.288C424.701 488.928 424.877 489.429 425.229 489.792C425.581 490.155 426.067 490.336 426.685 490.336C427.4 490.336 427.965 490.117 428.381 489.68C428.797 489.232 429.005 488.571 429.005 487.696ZM433.908 483.456V484.8C434.367 483.808 435.199 483.312 436.404 483.312V484.768C435.722 484.736 435.135 484.917 434.644 485.312C434.154 485.707 433.908 486.341 433.908 487.216V491.456H432.516V483.456H433.908ZM177.253 502.248C178.373 502.248 179.327 502.659 180.117 503.48C180.906 504.301 181.301 505.293 181.301 506.456C181.301 507.629 180.906 508.627 180.117 509.448C179.338 510.259 178.383 510.664 177.253 510.664C175.93 510.664 174.922 510.136 174.229 509.08V513.656H172.837V502.456H174.229V503.832C174.922 502.776 175.93 502.248 177.253 502.248ZM177.077 509.32C177.877 509.32 178.549 509.048 179.093 508.504C179.637 507.939 179.909 507.256 179.909 506.456C179.909 505.645 179.637 504.968 179.093 504.424C178.549 503.869 177.877 503.592 177.077 503.592C176.266 503.592 175.589 503.869 175.045 504.424C174.501 504.968 174.229 505.645 174.229 506.456C174.229 507.256 174.501 507.939 175.045 508.504C175.589 509.048 176.266 509.32 177.077 509.32ZM184.354 502.456V503.8C184.812 502.808 185.644 502.312 186.85 502.312V503.768C186.167 503.736 185.58 503.917 185.09 504.312C184.599 504.707 184.354 505.341 184.354 506.216V510.456H182.962V502.456H184.354ZM194.526 509.448C193.716 510.259 192.718 510.664 191.534 510.664C190.35 510.664 189.353 510.259 188.542 509.448C187.732 508.637 187.326 507.64 187.326 506.456C187.326 505.272 187.732 504.275 188.542 503.464C189.353 502.653 190.35 502.248 191.534 502.248C192.718 502.248 193.716 502.653 194.526 503.464C195.348 504.285 195.758 505.283 195.758 506.456C195.758 507.629 195.348 508.627 194.526 509.448ZM191.534 509.304C192.334 509.304 193.006 509.032 193.55 508.488C194.094 507.944 194.366 507.267 194.366 506.456C194.366 505.645 194.094 504.968 193.55 504.424C193.006 503.88 192.334 503.608 191.534 503.608C190.745 503.608 190.078 503.88 189.534 504.424C188.99 504.968 188.718 505.645 188.718 506.456C188.718 507.267 188.99 507.944 189.534 508.488C190.078 509.032 190.745 509.304 191.534 509.304ZM201.159 510.664C199.954 510.664 198.951 510.264 198.151 509.464C197.351 508.653 196.951 507.651 196.951 506.456C196.951 505.261 197.351 504.264 198.151 503.464C198.951 502.653 199.954 502.248 201.159 502.248C201.949 502.248 202.658 502.44 203.287 502.824C203.917 503.197 204.386 503.704 204.695 504.344L203.527 505.016C203.325 504.589 203.01 504.248 202.583 503.992C202.167 503.736 201.693 503.608 201.159 503.608C200.359 503.608 199.687 503.88 199.143 504.424C198.61 504.979 198.343 505.656 198.343 506.456C198.343 507.245 198.61 507.917 199.143 508.472C199.687 509.016 200.359 509.288 201.159 509.288C201.693 509.288 202.173 509.165 202.599 508.92C203.026 508.664 203.351 508.323 203.575 507.896L204.759 508.584C204.407 509.224 203.911 509.731 203.271 510.104C202.631 510.477 201.927 510.664 201.159 510.664ZM213.704 507.096H207C207.139 507.8 207.464 508.355 207.976 508.76C208.488 509.155 209.128 509.352 209.896 509.352C210.952 509.352 211.72 508.963 212.2 508.184L213.384 508.856C212.595 510.061 211.422 510.664 209.864 510.664C208.606 510.664 207.571 510.269 206.76 509.48C205.971 508.669 205.576 507.661 205.576 506.456C205.576 505.24 205.966 504.237 206.744 503.448C207.523 502.648 208.531 502.248 209.768 502.248C210.942 502.248 211.896 502.664 212.632 503.496C213.379 504.307 213.752 505.299 213.752 506.472C213.752 506.675 213.736 506.883 213.704 507.096ZM209.768 503.56C209.032 503.56 208.414 503.768 207.912 504.184C207.422 504.6 207.118 505.165 207 505.88H212.344C212.227 505.144 211.934 504.573 211.464 504.168C210.995 503.763 210.43 503.56 209.768 503.56ZM216.24 504.616C216.24 505.128 216.768 505.528 217.824 505.816C218.219 505.901 218.549 505.992 218.816 506.088C219.093 506.173 219.392 506.307 219.712 506.488C220.043 506.669 220.293 506.909 220.464 507.208C220.635 507.507 220.72 507.859 220.72 508.264C220.72 508.989 220.437 509.571 219.872 510.008C219.307 510.445 218.592 510.664 217.728 510.664C216.96 510.664 216.293 510.499 215.728 510.168C215.173 509.827 214.779 509.368 214.544 508.792L215.744 508.104C215.872 508.488 216.112 508.792 216.464 509.016C216.816 509.24 217.237 509.352 217.728 509.352C218.208 509.352 218.592 509.261 218.88 509.08C219.168 508.899 219.312 508.627 219.312 508.264C219.312 507.72 218.784 507.325 217.728 507.08C217.376 506.984 217.109 506.909 216.928 506.856C216.747 506.803 216.496 506.707 216.176 506.568C215.867 506.429 215.632 506.285 215.472 506.136C215.312 505.976 215.163 505.768 215.024 505.512C214.896 505.245 214.832 504.952 214.832 504.632C214.832 503.939 215.099 503.368 215.632 502.92C216.176 502.472 216.853 502.248 217.664 502.248C218.315 502.248 218.891 502.397 219.392 502.696C219.904 502.984 220.288 503.389 220.544 503.912L219.376 504.568C219.088 503.885 218.517 503.544 217.664 503.544C217.259 503.544 216.917 503.64 216.64 503.832C216.373 504.024 216.24 504.285 216.24 504.616ZM223.068 504.616C223.068 505.128 223.596 505.528 224.652 505.816C225.047 505.901 225.377 505.992 225.644 506.088C225.921 506.173 226.22 506.307 226.54 506.488C226.871 506.669 227.121 506.909 227.292 507.208C227.463 507.507 227.548 507.859 227.548 508.264C227.548 508.989 227.265 509.571 226.7 510.008C226.135 510.445 225.42 510.664 224.556 510.664C223.788 510.664 223.121 510.499 222.556 510.168C222.001 509.827 221.607 509.368 221.372 508.792L222.572 508.104C222.7 508.488 222.94 508.792 223.292 509.016C223.644 509.24 224.065 509.352 224.556 509.352C225.036 509.352 225.42 509.261 225.708 509.08C225.996 508.899 226.14 508.627 226.14 508.264C226.14 507.72 225.612 507.325 224.556 507.08C224.204 506.984 223.937 506.909 223.756 506.856C223.575 506.803 223.324 506.707 223.004 506.568C222.695 506.429 222.46 506.285 222.3 506.136C222.14 505.976 221.991 505.768 221.852 505.512C221.724 505.245 221.66 504.952 221.66 504.632C221.66 503.939 221.927 503.368 222.46 502.92C223.004 502.472 223.681 502.248 224.492 502.248C225.143 502.248 225.719 502.397 226.22 502.696C226.732 502.984 227.116 503.389 227.372 503.912L226.204 504.568C225.916 503.885 225.345 503.544 224.492 503.544C224.087 503.544 223.745 503.64 223.468 503.832C223.201 504.024 223.068 504.285 223.068 504.616ZM236.657 507.096H229.953C230.092 507.8 230.417 508.355 230.929 508.76C231.441 509.155 232.081 509.352 232.849 509.352C233.905 509.352 234.673 508.963 235.153 508.184L236.337 508.856C235.548 510.061 234.375 510.664 232.817 510.664C231.559 510.664 230.524 510.269 229.713 509.48C228.924 508.669 228.529 507.661 228.529 506.456C228.529 505.24 228.919 504.237 229.697 503.448C230.476 502.648 231.484 502.248 232.721 502.248C233.895 502.248 234.849 502.664 235.585 503.496C236.332 504.307 236.705 505.299 236.705 506.472C236.705 506.675 236.689 506.883 236.657 507.096ZM232.721 503.56C231.985 503.56 231.367 503.768 230.865 504.184C230.375 504.6 230.071 505.165 229.953 505.88H235.297C235.18 505.144 234.887 504.573 234.417 504.168C233.948 503.763 233.383 503.56 232.721 503.56ZM239.193 504.616C239.193 505.128 239.721 505.528 240.777 505.816C241.172 505.901 241.502 505.992 241.769 506.088C242.046 506.173 242.345 506.307 242.665 506.488C242.996 506.669 243.246 506.909 243.417 507.208C243.588 507.507 243.673 507.859 243.673 508.264C243.673 508.989 243.39 509.571 242.825 510.008C242.26 510.445 241.545 510.664 240.681 510.664C239.913 510.664 239.246 510.499 238.681 510.168C238.126 509.827 237.732 509.368 237.497 508.792L238.697 508.104C238.825 508.488 239.065 508.792 239.417 509.016C239.769 509.24 240.19 509.352 240.681 509.352C241.161 509.352 241.545 509.261 241.833 509.08C242.121 508.899 242.265 508.627 242.265 508.264C242.265 507.72 241.737 507.325 240.681 507.08C240.329 506.984 240.062 506.909 239.881 506.856C239.7 506.803 239.449 506.707 239.129 506.568C238.82 506.429 238.585 506.285 238.425 506.136C238.265 505.976 238.116 505.768 237.977 505.512C237.849 505.245 237.785 504.952 237.785 504.632C237.785 503.939 238.052 503.368 238.585 502.92C239.129 502.472 239.806 502.248 240.617 502.248C241.268 502.248 241.844 502.397 242.345 502.696C242.857 502.984 243.241 503.389 243.497 503.912L242.329 504.568C242.041 503.885 241.47 503.544 240.617 503.544C240.212 503.544 239.87 503.64 239.593 503.832C239.326 504.024 239.193 504.285 239.193 504.616ZM250.025 501C249.758 501 249.534 500.909 249.353 500.728C249.172 500.547 249.081 500.328 249.081 500.072C249.081 499.816 249.172 499.597 249.353 499.416C249.534 499.224 249.758 499.128 250.025 499.128C250.281 499.128 250.5 499.224 250.681 499.416C250.862 499.597 250.953 499.816 250.953 500.072C250.953 500.328 250.862 500.547 250.681 500.728C250.5 500.909 250.281 501 250.025 501ZM250.713 510.456H249.321V502.456H250.713V510.456ZM256.821 502.248C257.759 502.248 258.511 502.547 259.077 503.144C259.642 503.731 259.925 504.531 259.925 505.544V510.456H258.533V505.624C258.533 504.984 258.357 504.483 258.005 504.12C257.653 503.757 257.167 503.576 256.549 503.576C255.834 503.576 255.269 503.8 254.853 504.248C254.437 504.685 254.229 505.341 254.229 506.216V510.456H252.837V502.456H254.229V503.608C254.783 502.701 255.647 502.248 256.821 502.248ZM266.924 501C266.657 501 266.433 500.909 266.252 500.728C266.071 500.547 265.98 500.328 265.98 500.072C265.98 499.816 266.071 499.597 266.252 499.416C266.433 499.224 266.657 499.128 266.924 499.128C267.18 499.128 267.399 499.224 267.58 499.416C267.761 499.597 267.852 499.816 267.852 500.072C267.852 500.328 267.761 500.547 267.58 500.728C267.399 500.909 267.18 501 266.924 501ZM266.22 510.936V502.456H267.612V510.936C267.612 511.971 267.351 512.733 266.828 513.224C266.305 513.725 265.537 513.939 264.524 513.864V512.52C265.111 512.573 265.537 512.472 265.804 512.216C266.081 511.971 266.22 511.544 266.22 510.936ZM275.247 506.696V502.456H276.639V510.456H275.247V509.304C274.693 510.211 273.829 510.664 272.655 510.664C271.717 510.664 270.965 510.371 270.399 509.784C269.834 509.187 269.551 508.381 269.551 507.368V502.456H270.943V507.288C270.943 507.928 271.119 508.429 271.471 508.792C271.823 509.155 272.309 509.336 272.927 509.336C273.642 509.336 274.207 509.117 274.623 508.68C275.039 508.232 275.247 507.571 275.247 506.696ZM279.943 504.616C279.943 505.128 280.471 505.528 281.527 505.816C281.922 505.901 282.252 505.992 282.519 506.088C282.796 506.173 283.095 506.307 283.415 506.488C283.746 506.669 283.996 506.909 284.167 507.208C284.338 507.507 284.423 507.859 284.423 508.264C284.423 508.989 284.14 509.571 283.575 510.008C283.01 510.445 282.295 510.664 281.431 510.664C280.663 510.664 279.996 510.499 279.431 510.168C278.876 509.827 278.482 509.368 278.247 508.792L279.447 508.104C279.575 508.488 279.815 508.792 280.167 509.016C280.519 509.24 280.94 509.352 281.431 509.352C281.911 509.352 282.295 509.261 282.583 509.08C282.871 508.899 283.015 508.627 283.015 508.264C283.015 507.72 282.487 507.325 281.431 507.08C281.079 506.984 280.812 506.909 280.631 506.856C280.45 506.803 280.199 506.707 279.879 506.568C279.57 506.429 279.335 506.285 279.175 506.136C279.015 505.976 278.866 505.768 278.727 505.512C278.599 505.245 278.535 504.952 278.535 504.632C278.535 503.939 278.802 503.368 279.335 502.92C279.879 502.472 280.556 502.248 281.367 502.248C282.018 502.248 282.594 502.397 283.095 502.696C283.607 502.984 283.991 503.389 284.247 503.912L283.079 504.568C282.791 503.885 282.22 503.544 281.367 503.544C280.962 503.544 280.62 503.64 280.343 503.832C280.076 504.024 279.943 504.285 279.943 504.616ZM290.111 502.456V503.8H287.983V508.136C287.983 508.531 288.057 508.813 288.207 508.984C288.367 509.144 288.607 509.229 288.927 509.24C289.247 509.24 289.641 509.229 290.111 509.208V510.456C288.884 510.616 287.988 510.515 287.423 510.152C286.868 509.789 286.591 509.117 286.591 508.136V503.8H285.007V502.456H286.591V500.632L287.983 500.216V502.456H290.111ZM302.43 503.832V502.456H303.822V510.456H302.43V509.08C301.747 510.136 300.739 510.664 299.406 510.664C298.275 510.664 297.32 510.259 296.542 509.448C295.752 508.627 295.358 507.629 295.358 506.456C295.358 505.293 295.752 504.301 296.542 503.48C297.331 502.659 298.286 502.248 299.406 502.248C300.739 502.248 301.747 502.776 302.43 503.832ZM299.582 509.32C300.392 509.32 301.07 509.048 301.614 508.504C302.158 507.939 302.43 507.256 302.43 506.456C302.43 505.645 302.158 504.968 301.614 504.424C301.07 503.869 300.392 503.592 299.582 503.592C298.782 503.592 298.11 503.869 297.566 504.424C297.022 504.968 296.75 505.645 296.75 506.456C296.75 507.256 297.022 507.939 297.566 508.504C298.11 509.048 298.782 509.32 299.582 509.32ZM314.043 499.048V500.392C312.635 500.275 311.931 500.883 311.931 502.216V502.456H314.043V503.8H311.931V510.456H310.539V503.8H309.259V502.456H310.539V502.216C310.539 501.128 310.843 500.312 311.451 499.768C312.059 499.213 312.923 498.973 314.043 499.048ZM322.345 507.096H315.641C315.78 507.8 316.105 508.355 316.617 508.76C317.129 509.155 317.769 509.352 318.537 509.352C319.593 509.352 320.361 508.963 320.841 508.184L322.025 508.856C321.236 510.061 320.062 510.664 318.505 510.664C317.246 510.664 316.212 510.269 315.401 509.48C314.612 508.669 314.217 507.661 314.217 506.456C314.217 505.24 314.606 504.237 315.385 503.448C316.164 502.648 317.172 502.248 318.409 502.248C319.582 502.248 320.537 502.664 321.273 503.496C322.02 504.307 322.393 505.299 322.393 506.472C322.393 506.675 322.377 506.883 322.345 507.096ZM318.409 503.56C317.673 503.56 317.054 503.768 316.553 504.184C316.062 504.6 315.758 505.165 315.641 505.88H320.985C320.868 505.144 320.574 504.573 320.105 504.168C319.636 503.763 319.07 503.56 318.409 503.56ZM331.345 508.552L333.105 502.456H334.561L332.081 510.456H330.657L328.785 504.536L326.913 510.456H325.489L323.009 502.456H324.465L326.225 508.536L328.113 502.456H329.457L331.345 508.552ZM343.753 510.664C342.548 510.664 341.545 510.264 340.745 509.464C339.945 508.653 339.545 507.651 339.545 506.456C339.545 505.261 339.945 504.264 340.745 503.464C341.545 502.653 342.548 502.248 343.753 502.248C344.542 502.248 345.252 502.44 345.881 502.824C346.51 503.197 346.98 503.704 347.289 504.344L346.121 505.016C345.918 504.589 345.604 504.248 345.177 503.992C344.761 503.736 344.286 503.608 343.753 503.608C342.953 503.608 342.281 503.88 341.737 504.424C341.204 504.979 340.937 505.656 340.937 506.456C340.937 507.245 341.204 507.917 341.737 508.472C342.281 509.016 342.953 509.288 343.753 509.288C344.286 509.288 344.766 509.165 345.193 508.92C345.62 508.664 345.945 508.323 346.169 507.896L347.353 508.584C347.001 509.224 346.505 509.731 345.865 510.104C345.225 510.477 344.521 510.664 343.753 510.664ZM350.119 510.456H348.727V498.776H350.119V510.456ZM352.947 501C352.68 501 352.456 500.909 352.275 500.728C352.094 500.547 352.003 500.328 352.003 500.072C352.003 499.816 352.094 499.597 352.275 499.416C352.456 499.224 352.68 499.128 352.947 499.128C353.203 499.128 353.422 499.224 353.603 499.416C353.784 499.597 353.875 499.816 353.875 500.072C353.875 500.328 353.784 500.547 353.603 500.728C353.422 500.909 353.203 501 352.947 501ZM353.635 510.456H352.243V502.456H353.635V510.456ZM359.519 510.664C358.313 510.664 357.311 510.264 356.511 509.464C355.711 508.653 355.311 507.651 355.311 506.456C355.311 505.261 355.711 504.264 356.511 503.464C357.311 502.653 358.313 502.248 359.519 502.248C360.308 502.248 361.017 502.44 361.647 502.824C362.276 503.197 362.745 503.704 363.055 504.344L361.887 505.016C361.684 504.589 361.369 504.248 360.943 503.992C360.527 503.736 360.052 503.608 359.519 503.608C358.719 503.608 358.047 503.88 357.503 504.424C356.969 504.979 356.703 505.656 356.703 506.456C356.703 507.245 356.969 507.917 357.503 508.472C358.047 509.016 358.719 509.288 359.519 509.288C360.052 509.288 360.532 509.165 360.959 508.92C361.385 508.664 361.711 508.323 361.935 507.896L363.119 508.584C362.767 509.224 362.271 509.731 361.631 510.104C360.991 510.477 360.287 510.664 359.519 510.664ZM367.309 506.328L371.261 510.456H369.533L365.885 506.664V510.456H364.493V499.256H365.885V505.992L369.341 502.456H371.133L367.309 506.328ZM373.146 504.616C373.146 505.128 373.674 505.528 374.73 505.816C375.125 505.901 375.455 505.992 375.722 506.088C375.999 506.173 376.298 506.307 376.618 506.488C376.949 506.669 377.199 506.909 377.37 507.208C377.541 507.507 377.626 507.859 377.626 508.264C377.626 508.989 377.343 509.571 376.778 510.008C376.213 510.445 375.498 510.664 374.634 510.664C373.866 510.664 373.199 510.499 372.634 510.168C372.079 509.827 371.685 509.368 371.45 508.792L372.65 508.104C372.778 508.488 373.018 508.792 373.37 509.016C373.722 509.24 374.143 509.352 374.634 509.352C375.114 509.352 375.498 509.261 375.786 509.08C376.074 508.899 376.218 508.627 376.218 508.264C376.218 507.72 375.69 507.325 374.634 507.08C374.282 506.984 374.015 506.909 373.834 506.856C373.653 506.803 373.402 506.707 373.082 506.568C372.773 506.429 372.538 506.285 372.378 506.136C372.218 505.976 372.069 505.768 371.93 505.512C371.802 505.245 371.738 504.952 371.738 504.632C371.738 503.939 372.005 503.368 372.538 502.92C373.082 502.472 373.759 502.248 374.57 502.248C375.221 502.248 375.797 502.397 376.298 502.696C376.81 502.984 377.194 503.389 377.45 503.912L376.282 504.568C375.994 503.885 375.423 503.544 374.57 503.544C374.165 503.544 373.823 503.64 373.546 503.832C373.279 504.024 373.146 504.285 373.146 504.616ZM379.982 510.632C379.694 510.632 379.449 510.531 379.246 510.328C379.044 510.125 378.942 509.88 378.942 509.592C378.942 509.304 379.044 509.059 379.246 508.856C379.449 508.653 379.694 508.552 379.982 508.552C380.281 508.552 380.526 508.653 380.718 508.856C380.921 509.059 381.022 509.304 381.022 509.592C381.022 509.88 380.921 510.125 380.718 510.328C380.526 510.531 380.281 510.632 379.982 510.632Z" fill="#7F7F7F"/>
<path d="M267.867 234.581C267.867 236.785 266.08 238.572 263.876 238.572C261.672 238.572 259.885 236.785 259.885 234.581C259.885 232.377 261.672 230.59 263.876 230.59C266.08 230.59 267.867 232.377 267.867 234.581Z" fill="black" stroke="black" strokeWidth="1.99567"/>
<path d="M283.833 246.555C283.833 248.759 282.046 250.546 279.841 250.546C277.637 250.546 275.85 248.759 275.85 246.555C275.85 244.351 277.637 242.564 279.841 242.564C282.046 242.564 283.833 244.351 283.833 246.555Z" fill="black" stroke="black" strokeWidth="1.99567"/>
<path d="M267.867 253.207C267.867 255.412 266.08 257.198 263.876 257.198C261.672 257.198 259.885 255.412 259.885 253.207C259.885 251.003 261.672 249.216 263.876 249.216C266.08 249.216 267.867 251.003 267.867 253.207Z" fill="black" stroke="black" strokeWidth="1.99567"/>
<path d="M263.876 238.572V249.216" stroke="black" strokeWidth="1.99567" strokeLinecap="round" strokeLinejoin="round"/>
<path d="M275.85 246.555H271.859C267.45 246.555 263.876 242.981 263.876 238.572" stroke="black" strokeWidth="1.99567" strokeLinecap="round" strokeLinejoin="round"/>
<defs>
<linearGradient id="paint0_linear_9184_12441" x1="267.765" y1="97.7051" x2="267.765" y2="395.044" gradientUnits="userSpaceOnUse">
<stop offset="0.605" stop-color="#EEEEEE"/>
<stop offset="1" stop-color="white"/>
</linearGradient>
<linearGradient id="paint1_linear_9184_12441" x1="267.765" y1="54.4863" x2="267.765" y2="438.263" gradientUnits="userSpaceOnUse">
<stop offset="0.605" stop-color="#EEEEEE"/>
<stop offset="1" stop-color="white"/>
</linearGradient>
<linearGradient id="paint2_linear_9184_12441" x1="267.765" y1="14.293" x2="267.765" y2="478.456" gradientUnits="userSpaceOnUse">
<stop offset="0.605" stop-color="#EEEEEE"/>
<stop offset="1" stop-color="white"/>
</linearGradient>
<clipPath id="clip0_9184_12441">
<rect width="21.2499" height="21.2499" fill="white" transform="translate(414.751 129.699)"/>
</clipPath>
<clipPath id="clip1_9184_12441">
<rect width="16.8042" height="16.8042" fill="white" transform="translate(45.9741 153.399)"/>
</clipPath>
<clipPath id="clip2_9184_12441">
<rect width="19.6283" height="19.6283" fill="white" transform="translate(495.221 230.216)"/>
</clipPath>
</defs>
</svg>
