<svg width="234" height="154" viewBox="0 0 234 154" fill="none" xmlns="http://www.w3.org/2000/svg">
<g clip-path="url(#clip0_9410_38522)">
<rect x="0.0336914" y="0.704102" width="233" height="152.983" rx="3.50586" fill="#007AFF"/>
<g clip-path="url(#clip1_9410_38522)">
<g opacity="0.1">
<rect x="-12.4695" y="-139.915" width="19.4392" height="382.431" stroke="#F8F8F8" stroke-opacity="0.7" strokeWidth="0.360742"/>
<rect x="7.33027" y="-140.322" width="19.4392" height="382.431" stroke="#F8F8F8" stroke-opacity="0.7" strokeWidth="0.360742"/>
<rect x="27.1306" y="-140.729" width="19.4392" height="382.431" stroke="#F8F8F8" stroke-opacity="0.7" strokeWidth="0.360742"/>
<rect x="46.9301" y="-141.137" width="19.4392" height="382.431" stroke="#F8F8F8" stroke-opacity="0.7" strokeWidth="0.360742"/>
<rect x="66.7299" y="-141.544" width="19.4392" height="382.431" stroke="#F8F8F8" stroke-opacity="0.7" strokeWidth="0.360742"/>
<rect x="86.53" y="-141.951" width="19.4392" height="382.431" stroke="#F8F8F8" stroke-opacity="0.7" strokeWidth="0.360742"/>
<rect x="106.33" y="-142.358" width="19.4392" height="382.431" stroke="#F8F8F8" stroke-opacity="0.7" strokeWidth="0.360742"/>
<rect x="126.13" y="-142.766" width="19.4392" height="382.431" stroke="#F8F8F8" stroke-opacity="0.7" strokeWidth="0.360742"/>
<rect x="145.93" y="-143.173" width="19.4392" height="382.431" stroke="#F8F8F8" stroke-opacity="0.7" strokeWidth="0.360742"/>
<rect x="165.73" y="-143.58" width="19.4392" height="382.431" stroke="#F8F8F8" stroke-opacity="0.7" strokeWidth="0.360742"/>
<rect x="185.529" y="-143.987" width="19.4392" height="382.431" stroke="#F8F8F8" stroke-opacity="0.7" strokeWidth="0.360742"/>
<rect x="205.329" y="-144.395" width="19.4392" height="382.431" stroke="#F8F8F8" stroke-opacity="0.7" strokeWidth="0.360742"/>
<rect x="225.13" y="-144.802" width="19.4392" height="382.431" stroke="#F8F8F8" stroke-opacity="0.7" strokeWidth="0.360742"/>
<rect x="-198.04" y="162.607" width="19.4392" height="744.95" transform="rotate(-90 -198.04 162.607)" stroke="#F8F8F8" stroke-opacity="0.7" strokeWidth="0.360742"/>
<rect x="-198.833" y="142.807" width="19.4392" height="744.95" transform="rotate(-90 -198.833 142.807)" stroke="#F8F8F8" stroke-opacity="0.7" strokeWidth="0.360742"/>
<rect x="-199.626" y="123.008" width="19.4392" height="744.95" transform="rotate(-90 -199.626 123.008)" stroke="#F8F8F8" stroke-opacity="0.7" strokeWidth="0.360742"/>
<rect x="-200.419" y="103.208" width="19.4392" height="744.95" transform="rotate(-90 -200.419 103.208)" stroke="#F8F8F8" stroke-opacity="0.7" strokeWidth="0.360742"/>
<rect x="-201.212" y="83.4078" width="19.4392" height="744.95" transform="rotate(-90 -201.212 83.4078)" stroke="#F8F8F8" stroke-opacity="0.7" strokeWidth="0.360742"/>
<rect x="-202.005" y="63.608" width="19.4392" height="744.95" transform="rotate(-90 -202.005 63.608)" stroke="#F8F8F8" stroke-opacity="0.7" strokeWidth="0.360742"/>
<rect x="-202.798" y="43.8079" width="19.4392" height="744.95" transform="rotate(-90 -202.798 43.8079)" stroke="#F8F8F8" stroke-opacity="0.7" strokeWidth="0.360742"/>
<rect x="-203.591" y="24.0079" width="19.4392" height="744.95" transform="rotate(-90 -203.591 24.0079)" stroke="#F8F8F8" stroke-opacity="0.7" strokeWidth="0.360742"/>
<rect x="-204.383" y="4.2083" width="19.4392" height="744.95" transform="rotate(-90 -204.383 4.2083)" stroke="#F8F8F8" stroke-opacity="0.7" strokeWidth="0.360742"/>
</g>
</g>
<g filter="url(#filter0_d_9410_38522)">
<g clip-path="url(#clip2_9410_38522)">
<rect x="14.9087" y="29.3718" width="203.25" height="95.6472" rx="3" fill="#FAFBFC"/>
<g clip-path="url(#clip3_9410_38522)">
<rect x="-750.966" y="55.957" width="956.472" height="557.444" rx="7.47244" fill="white"/>
<rect width="1321.07" height="708.315" transform="translate(-752.966 106.535)" fill="#FEFEFE"/>
<path d="M20.7922 108.855C21.433 108.855 21.9525 108.336 21.9525 107.695C21.9525 107.054 21.433 106.535 20.7922 106.535C20.1513 106.535 19.6318 107.054 19.6318 107.695C19.6318 108.336 20.1513 108.855 20.7922 108.855Z" fill="black" fill-opacity="0.05"/>
<path d="M34.1127 108.855C34.7536 108.855 35.273 108.336 35.273 107.695C35.273 107.054 34.7536 106.535 34.1127 106.535C33.4719 106.535 32.9524 107.054 32.9524 107.695C32.9524 108.336 33.4719 108.855 34.1127 108.855Z" fill="black" fill-opacity="0.05"/>
<path d="M20.7922 122.176C21.433 122.176 21.9525 121.656 21.9525 121.016C21.9525 120.375 21.433 119.855 20.7922 119.855C20.1513 119.855 19.6318 120.375 19.6318 121.016C19.6318 121.656 20.1513 122.176 20.7922 122.176Z" fill="black" fill-opacity="0.05"/>
<path d="M34.1127 122.176C34.7536 122.176 35.273 121.656 35.273 121.016C35.273 120.375 34.7536 119.855 34.1127 119.855C33.4719 119.855 32.9524 120.375 32.9524 121.016C32.9524 121.656 33.4719 122.176 34.1127 122.176Z" fill="black" fill-opacity="0.05"/>
<path d="M47.4335 108.855C48.0744 108.855 48.5938 108.336 48.5938 107.695C48.5938 107.054 48.0744 106.535 47.4335 106.535C46.7927 106.535 46.2732 107.054 46.2732 107.695C46.2732 108.336 46.7927 108.855 47.4335 108.855Z" fill="black" fill-opacity="0.05"/>
<path d="M60.7541 108.855C61.3949 108.855 61.9144 108.336 61.9144 107.695C61.9144 107.054 61.3949 106.535 60.7541 106.535C60.1132 106.535 59.5938 107.054 59.5938 107.695C59.5938 108.336 60.1132 108.855 60.7541 108.855Z" fill="black" fill-opacity="0.05"/>
<path d="M47.4335 122.176C48.0744 122.176 48.5938 121.656 48.5938 121.016C48.5938 120.375 48.0744 119.855 47.4335 119.855C46.7927 119.855 46.2732 120.375 46.2732 121.016C46.2732 121.656 46.7927 122.176 47.4335 122.176Z" fill="black" fill-opacity="0.05"/>
<path d="M60.7541 122.176C61.3949 122.176 61.9144 121.656 61.9144 121.016C61.9144 120.375 61.3949 119.855 60.7541 119.855C60.1132 119.855 59.5938 120.375 59.5938 121.016C59.5938 121.656 60.1132 122.176 60.7541 122.176Z" fill="black" fill-opacity="0.05"/>
<path d="M74.0749 108.855C74.7157 108.855 75.2352 108.336 75.2352 107.695C75.2352 107.054 74.7157 106.535 74.0749 106.535C73.434 106.535 72.9146 107.054 72.9146 107.695C72.9146 108.336 73.434 108.855 74.0749 108.855Z" fill="black" fill-opacity="0.05"/>
<path d="M87.3954 108.855C88.0363 108.855 88.5558 108.336 88.5558 107.695C88.5558 107.054 88.0363 106.535 87.3954 106.535C86.7546 106.535 86.2351 107.054 86.2351 107.695C86.2351 108.336 86.7546 108.855 87.3954 108.855Z" fill="black" fill-opacity="0.05"/>
<path d="M74.0749 122.176C74.7157 122.176 75.2352 121.656 75.2352 121.016C75.2352 120.375 74.7157 119.855 74.0749 119.855C73.434 119.855 72.9146 120.375 72.9146 121.016C72.9146 121.656 73.434 122.176 74.0749 122.176Z" fill="black" fill-opacity="0.05"/>
<path d="M87.3954 122.176C88.0363 122.176 88.5558 121.656 88.5558 121.016C88.5558 120.375 88.0363 119.855 87.3954 119.855C86.7546 119.855 86.2351 120.375 86.2351 121.016C86.2351 121.656 86.7546 122.176 87.3954 122.176Z" fill="black" fill-opacity="0.05"/>
<path d="M100.716 108.855C101.357 108.855 101.877 108.336 101.877 107.695C101.877 107.054 101.357 106.535 100.716 106.535C100.075 106.535 99.5559 107.054 99.5559 107.695C99.5559 108.336 100.075 108.855 100.716 108.855Z" fill="black" fill-opacity="0.05"/>
<path d="M114.037 108.855C114.678 108.855 115.197 108.336 115.197 107.695C115.197 107.054 114.678 106.535 114.037 106.535C113.396 106.535 112.876 107.054 112.876 107.695C112.876 108.336 113.396 108.855 114.037 108.855Z" fill="black" fill-opacity="0.05"/>
<path d="M100.716 122.176C101.357 122.176 101.877 121.656 101.877 121.016C101.877 120.375 101.357 119.855 100.716 119.855C100.075 119.855 99.5559 120.375 99.5559 121.016C99.5559 121.656 100.075 122.176 100.716 122.176Z" fill="black" fill-opacity="0.05"/>
<path d="M114.037 122.176C114.678 122.176 115.197 121.656 115.197 121.016C115.197 120.375 114.678 119.855 114.037 119.855C113.396 119.855 112.876 120.375 112.876 121.016C112.876 121.656 113.396 122.176 114.037 122.176Z" fill="black" fill-opacity="0.05"/>
<path d="M127.358 108.855C127.998 108.855 128.518 108.336 128.518 107.695C128.518 107.054 127.998 106.535 127.358 106.535C126.717 106.535 126.197 107.054 126.197 107.695C126.197 108.336 126.717 108.855 127.358 108.855Z" fill="black" fill-opacity="0.05"/>
<path d="M140.678 108.855C141.319 108.855 141.838 108.336 141.838 107.695C141.838 107.054 141.319 106.535 140.678 106.535C140.037 106.535 139.518 107.054 139.518 107.695C139.518 108.336 140.037 108.855 140.678 108.855Z" fill="black" fill-opacity="0.05"/>
<path d="M127.358 122.176C127.998 122.176 128.518 121.656 128.518 121.016C128.518 120.375 127.998 119.855 127.358 119.855C126.717 119.855 126.197 120.375 126.197 121.016C126.197 121.656 126.717 122.176 127.358 122.176Z" fill="black" fill-opacity="0.05"/>
<path d="M140.678 122.176C141.319 122.176 141.838 121.656 141.838 121.016C141.838 120.375 141.319 119.855 140.678 119.855C140.037 119.855 139.518 120.375 139.518 121.016C139.518 121.656 140.037 122.176 140.678 122.176Z" fill="black" fill-opacity="0.05"/>
<path d="M153.999 108.855C154.64 108.855 155.159 108.336 155.159 107.695C155.159 107.054 154.64 106.535 153.999 106.535C153.358 106.535 152.838 107.054 152.838 107.695C152.838 108.336 153.358 108.855 153.999 108.855Z" fill="black" fill-opacity="0.05"/>
<path d="M167.319 108.855C167.96 108.855 168.48 108.336 168.48 107.695C168.48 107.054 167.96 106.535 167.319 106.535C166.678 106.535 166.159 107.054 166.159 107.695C166.159 108.336 166.678 108.855 167.319 108.855Z" fill="black" fill-opacity="0.05"/>
<path d="M153.999 122.176C154.64 122.176 155.159 121.656 155.159 121.016C155.159 120.375 154.64 119.855 153.999 119.855C153.358 119.855 152.838 120.375 152.838 121.016C152.838 121.656 153.358 122.176 153.999 122.176Z" fill="black" fill-opacity="0.05"/>
<path d="M167.319 122.176C167.96 122.176 168.48 121.656 168.48 121.016C168.48 120.375 167.96 119.855 167.319 119.855C166.678 119.855 166.159 120.375 166.159 121.016C166.159 121.656 166.678 122.176 167.319 122.176Z" fill="black" fill-opacity="0.05"/>
<path d="M180.64 108.855C181.281 108.855 181.8 108.336 181.8 107.695C181.8 107.054 181.281 106.535 180.64 106.535C179.999 106.535 179.48 107.054 179.48 107.695C179.48 108.336 179.999 108.855 180.64 108.855Z" fill="black" fill-opacity="0.05"/>
<path d="M193.961 108.855C194.601 108.855 195.121 108.336 195.121 107.695C195.121 107.054 194.601 106.535 193.961 106.535C193.32 106.535 192.8 107.054 192.8 107.695C192.8 108.336 193.32 108.855 193.961 108.855Z" fill="black" fill-opacity="0.05"/>
<path d="M180.64 122.176C181.281 122.176 181.8 121.656 181.8 121.016C181.8 120.375 181.281 119.855 180.64 119.855C179.999 119.855 179.48 120.375 179.48 121.016C179.48 121.656 179.999 122.176 180.64 122.176Z" fill="black" fill-opacity="0.05"/>
<path d="M193.961 122.176C194.601 122.176 195.121 121.656 195.121 121.016C195.121 120.375 194.601 119.855 193.961 119.855C193.32 119.855 192.8 120.375 192.8 121.016C192.8 121.656 193.32 122.176 193.961 122.176Z" fill="black" fill-opacity="0.05"/>
<path d="M-750.966 63.4295C-750.966 59.3026 -747.62 55.957 -743.493 55.957H198.034C202.161 55.957 205.506 59.3026 205.506 63.4295V99.2972H-750.966V63.4295Z" fill="white"/>
<path d="M-743.493 56.3311H198.033C201.954 56.3311 205.132 59.5091 205.132 63.4297V98.9238H-750.592V63.4297C-750.592 59.5091 -747.413 56.3311 -743.493 56.3311Z" stroke="black" stroke-opacity="0.1" strokeWidth="0.747244"/>
<rect x="20.9141" y="65.6711" width="24.659" height="23.9118" rx="3.73622" fill="white"/>
<rect x="21.2877" y="66.0448" width="23.9118" height="23.1646" rx="3.3626" stroke="black" stroke-opacity="0.1" strokeWidth="0.747244"/>
<path d="M34.6446 79.0282L37.4468 76.226M37.4468 76.226L34.6446 73.4238M37.4468 76.226H31.8425C31.0993 76.226 30.3865 76.5212 29.861 77.0467C29.3355 77.5722 29.0403 78.285 29.0403 79.0282C29.0403 79.7713 29.3355 80.4841 29.861 81.0096C30.3865 81.5351 31.0993 81.8303 31.8425 81.8303H33.2435" stroke="black" strokeWidth="0.717354" strokeLinecap="round" strokeLinejoin="round"/>
<path d="M54.54 69.6216L54.54 85.6324" stroke="black" stroke-opacity="0.1" strokeWidth="0.747244" strokeLinecap="round"/>
<rect x="63.5068" y="65.6711" width="75.3842" height="23.9118" rx="3.73622" fill="white"/>
<rect x="63.8805" y="66.0448" width="74.637" height="23.1646" rx="3.3626" stroke="black" stroke-opacity="0.1" strokeWidth="0.747244"/>
<path d="M80.7869 77.6271C80.7869 78.1791 80.6781 78.7256 80.4669 79.2356C80.2557 79.7455 79.9461 80.2089 79.5558 80.5992C79.1655 80.9895 78.7021 81.2991 78.1921 81.5104C77.6822 81.7216 77.1356 81.8303 76.5836 81.8303C76.0316 81.8303 75.4851 81.7216 74.9751 81.5104C74.4651 81.2991 74.0018 80.9895 73.6115 80.5992C73.2212 80.2089 72.9116 79.7455 72.7003 79.2356C72.4891 78.7256 72.3804 78.1791 72.3804 77.6271C72.3804 76.5123 72.8232 75.4432 73.6115 74.6549C74.3997 73.8667 75.4688 73.4238 76.5836 73.4238C77.6984 73.4238 78.7675 73.8667 79.5558 74.6549C80.344 75.4432 80.7869 76.5123 80.7869 77.6271Z" stroke="black" strokeWidth="0.717354" strokeLinecap="round" strokeLinejoin="round"/>
<path d="M78.4096 77.4738C78.4369 77.489 78.4597 77.5112 78.4756 77.5381C78.4915 77.565 78.4998 77.5957 78.4998 77.627C78.4998 77.6583 78.4915 77.689 78.4756 77.7159C78.4597 77.7428 78.4369 77.765 78.4096 77.7802L75.7928 79.234C75.7662 79.2488 75.7361 79.2564 75.7056 79.256C75.6751 79.2556 75.6453 79.2473 75.619 79.2318C75.5927 79.2163 75.5709 79.1943 75.5558 79.1678C75.5407 79.1413 75.5327 79.1113 75.5327 79.0809V76.1731C75.5327 76.0396 75.6761 75.9555 75.7928 76.0204L78.4096 77.4738Z" stroke="black" strokeWidth="0.717354" strokeLinecap="round" strokeLinejoin="round"/>
<path d="M86.5159 78.0197V73.8501H87.3498V77.9839C87.3498 78.4322 87.4813 78.7849 87.7444 79.042C88.0134 79.299 88.39 79.4275 88.8742 79.4275C89.3584 79.4275 89.732 79.299 89.9951 79.042C90.2641 78.7849 90.3986 78.4322 90.3986 77.9839V73.8501H91.2235V78.0197C91.2235 78.7012 91.0053 79.2422 90.5689 79.6427C90.1325 80.0433 89.5676 80.2435 88.8742 80.2435C88.1748 80.2435 87.6069 80.0433 87.1705 79.6427C86.7341 79.2422 86.5159 78.7012 86.5159 78.0197ZM93.0467 76.854C93.0467 77.141 93.3426 77.3651 93.9344 77.5265C94.1556 77.5744 94.3409 77.6252 94.4904 77.679C94.6458 77.7268 94.8132 77.8015 94.9925 77.9032C95.1778 78.0048 95.3183 78.1393 95.4139 78.3067C95.5096 78.4741 95.5574 78.6713 95.5574 78.8985C95.5574 79.305 95.399 79.6308 95.0822 79.8759C94.7653 80.121 94.3648 80.2435 93.8806 80.2435C93.4502 80.2435 93.0766 80.1509 92.7597 79.9655C92.4489 79.7743 92.2277 79.5172 92.0962 79.1944L92.7687 78.8088C92.8404 79.024 92.9749 79.1944 93.1722 79.3199C93.3695 79.4455 93.6056 79.5082 93.8806 79.5082C94.1496 79.5082 94.3648 79.4574 94.5262 79.3558C94.6876 79.2542 94.7683 79.1017 94.7683 78.8985C94.7683 78.5936 94.4724 78.3724 93.8806 78.2349C93.6833 78.1811 93.5339 78.1393 93.4323 78.1094C93.3306 78.0795 93.1902 78.0257 93.0108 77.948C92.8375 77.8703 92.7059 77.7896 92.6163 77.7059C92.5266 77.6162 92.4429 77.4996 92.3652 77.3562C92.2935 77.2067 92.2576 77.0423 92.2576 76.863C92.2576 76.4744 92.407 76.1546 92.7059 75.9035C93.0108 75.6525 93.3904 75.5269 93.8447 75.5269C94.2094 75.5269 94.5322 75.6106 94.8132 75.778C95.1001 75.9394 95.3153 76.1666 95.4588 76.4595L94.8042 76.8271C94.6428 76.4445 94.323 76.2532 93.8447 76.2532C93.6176 76.2532 93.4263 76.307 93.2709 76.4146C93.1214 76.5222 93.0467 76.6687 93.0467 76.854ZM100.663 78.2439H96.9055C96.9832 78.6384 97.1655 78.9493 97.4525 79.1765C97.7394 79.3976 98.0981 79.5082 98.5285 79.5082C99.1203 79.5082 99.5507 79.29 99.8197 78.8537L100.483 79.2303C100.041 79.9058 99.3833 80.2435 98.5105 80.2435C97.8052 80.2435 97.2253 80.0223 96.771 79.58C96.3286 79.1256 96.1074 78.5607 96.1074 77.8852C96.1074 77.2037 96.3256 76.6418 96.762 76.1994C97.1984 75.7511 97.7633 75.5269 98.4567 75.5269C99.1143 75.5269 99.6493 75.7601 100.062 76.2263C100.48 76.6807 100.69 77.2366 100.69 77.8942C100.69 78.0078 100.681 78.1243 100.663 78.2439ZM98.4567 76.2622C98.0443 76.2622 97.6975 76.3788 97.4166 76.6119C97.1416 76.8451 96.9712 77.1619 96.9055 77.5624H99.9004C99.8347 77.1499 99.6703 76.8301 99.4072 76.603C99.1442 76.3758 98.8274 76.2622 98.4567 76.2622ZM103.909 80.127V73.8501H104.743V80.127H103.909ZM108.447 75.6435V76.3967H107.255V78.8267C107.255 79.0479 107.297 79.2063 107.38 79.302C107.47 79.3917 107.605 79.4395 107.784 79.4455C107.963 79.4455 108.184 79.4395 108.447 79.4275V80.127C107.76 80.2166 107.258 80.1598 106.941 79.9566C106.63 79.7533 106.475 79.3767 106.475 78.8267V76.3967H105.587V75.6435H106.475V74.6213L107.255 74.3881V75.6435H108.447ZM115.62 78.5308V73.8501H116.454V80.127H115.782L112.554 75.4373V80.127H111.72V73.8501H112.392L115.62 78.5308ZM121.5 79.562C121.046 80.0164 120.487 80.2435 119.823 80.2435C119.16 80.2435 118.601 80.0164 118.147 79.562C117.692 79.1077 117.465 78.5488 117.465 77.8852C117.465 77.2217 117.692 76.6627 118.147 76.2084C118.601 75.7541 119.16 75.5269 119.823 75.5269C120.487 75.5269 121.046 75.7541 121.5 76.2084C121.961 76.6687 122.191 77.2276 122.191 77.8852C122.191 78.5428 121.961 79.1017 121.5 79.562ZM119.823 79.4813C120.272 79.4813 120.648 79.3289 120.953 79.024C121.258 78.7191 121.411 78.3395 121.411 77.8852C121.411 77.4309 121.258 77.0513 120.953 76.7464C120.648 76.4415 120.272 76.2891 119.823 76.2891C119.381 76.2891 119.007 76.4415 118.703 76.7464C118.398 77.0513 118.245 77.4309 118.245 77.8852C118.245 78.3395 118.398 78.7191 118.703 79.024C119.007 79.3289 119.381 79.4813 119.823 79.4813ZM127.23 79.0599L128.217 75.6435H129.033L127.643 80.127H126.845L125.796 76.8092L124.747 80.127H123.949L122.559 75.6435H123.375L124.361 79.0509L125.419 75.6435H126.172L127.23 79.0599Z" fill="black"/>
<rect x="147.858" y="65.6711" width="47.9338" height="23.9118" rx="3.73622" fill="black"/>
<path d="M157.498 73.8501H159.775C160.349 73.8501 160.83 74.0444 161.219 74.433C161.608 74.8215 161.802 75.2998 161.802 75.8677C161.802 76.4356 161.608 76.9138 161.219 77.3024C160.83 77.6909 160.349 77.8852 159.775 77.8852H158.332V80.127H157.498V73.8501ZM158.332 77.1051H159.775C160.128 77.1051 160.415 76.9885 160.636 76.7554C160.863 76.5103 160.977 76.2144 160.977 75.8677C160.977 75.509 160.863 75.2131 160.636 74.9799C160.409 74.7468 160.122 74.6302 159.775 74.6302H158.332V77.1051ZM165.8 78.0197V75.6435H166.58V80.127H165.8V79.4813C165.489 79.9895 165.005 80.2435 164.347 80.2435C163.821 80.2435 163.4 80.0791 163.083 79.7503C162.766 79.4156 162.607 78.9642 162.607 78.3963V75.6435H163.388V78.3515C163.388 78.7102 163.486 78.9911 163.683 79.1944C163.881 79.3976 164.153 79.4993 164.499 79.4993C164.9 79.4993 165.217 79.3767 165.45 79.1316C165.683 78.8806 165.8 78.5099 165.8 78.0197ZM170.242 75.5269C170.87 75.5269 171.405 75.7571 171.847 76.2174C172.29 76.6777 172.511 77.2336 172.511 77.8852C172.511 78.5428 172.29 79.1017 171.847 79.562C171.411 80.0164 170.876 80.2435 170.242 80.2435C169.501 80.2435 168.936 79.9476 168.548 79.3558V80.127H167.768V73.8501H168.548V76.4146C168.936 75.8228 169.501 75.5269 170.242 75.5269ZM170.144 79.4903C170.592 79.4903 170.969 79.3379 171.274 79.033C171.578 78.7162 171.731 78.3336 171.731 77.8852C171.731 77.4309 171.578 77.0513 171.274 76.7464C170.969 76.4356 170.592 76.2801 170.144 76.2801C169.689 76.2801 169.31 76.4356 169.005 76.7464C168.7 77.0513 168.548 77.4309 168.548 77.8852C168.548 78.3336 168.7 78.7162 169.005 79.033C169.31 79.3379 169.689 79.4903 170.144 79.4903ZM174.222 80.127H173.442V73.5811H174.222V80.127ZM175.807 74.8275C175.657 74.8275 175.532 74.7767 175.43 74.6751C175.328 74.5734 175.278 74.4509 175.278 74.3074C175.278 74.1639 175.328 74.0414 175.43 73.9398C175.532 73.8322 175.657 73.7784 175.807 73.7784C175.95 73.7784 176.073 73.8322 176.174 73.9398C176.276 74.0414 176.327 74.1639 176.327 74.3074C176.327 74.4509 176.276 74.5734 176.174 74.6751C176.073 74.7767 175.95 74.8275 175.807 74.8275ZM176.192 80.127H175.412V75.6435H176.192V80.127ZM178.046 76.854C178.046 77.141 178.342 77.3651 178.934 77.5265C179.155 77.5744 179.34 77.6252 179.49 77.679C179.645 77.7268 179.813 77.8015 179.992 77.9032C180.177 78.0048 180.318 78.1393 180.413 78.3067C180.509 78.4741 180.557 78.6713 180.557 78.8985C180.557 79.305 180.399 79.6308 180.082 79.8759C179.765 80.121 179.364 80.2435 178.88 80.2435C178.45 80.2435 178.076 80.1509 177.759 79.9655C177.448 79.7743 177.227 79.5172 177.096 79.1944L177.768 78.8088C177.84 79.024 177.974 79.1944 178.172 79.3199C178.369 79.4455 178.605 79.5082 178.88 79.5082C179.149 79.5082 179.364 79.4574 179.526 79.3558C179.687 79.2542 179.768 79.1017 179.768 78.8985C179.768 78.5936 179.472 78.3724 178.88 78.2349C178.683 78.1811 178.533 78.1393 178.432 78.1094C178.33 78.0795 178.19 78.0257 178.01 77.948C177.837 77.8703 177.705 77.7896 177.616 77.7059C177.526 77.6162 177.442 77.4996 177.365 77.3562C177.293 77.2067 177.257 77.0423 177.257 76.863C177.257 76.4744 177.407 76.1546 177.705 75.9035C178.01 75.6525 178.39 75.5269 178.844 75.5269C179.209 75.5269 179.532 75.6106 179.813 75.778C180.1 75.9394 180.315 76.1666 180.458 76.4595L179.804 76.8271C179.642 76.4445 179.322 76.2532 178.844 76.2532C178.617 76.2532 178.426 76.307 178.27 76.4146C178.121 76.5222 178.046 76.6687 178.046 76.854ZM183.67 75.5269C184.196 75.5269 184.617 75.6943 184.934 76.0291C185.251 76.3579 185.409 76.8062 185.409 77.3741V80.127H184.629V77.4189C184.629 77.0603 184.53 76.7793 184.333 76.5761C184.136 76.3728 183.864 76.2712 183.517 76.2712C183.117 76.2712 182.8 76.3967 182.567 76.6478C182.333 76.8929 182.217 77.2605 182.217 77.7507V80.127H181.437V73.8501H182.217V76.2891C182.528 75.781 183.012 75.5269 183.67 75.5269Z" fill="white"/>
</g>
<rect x="-750.592" y="56.3307" width="955.724" height="556.696" rx="7.09881" stroke="black" stroke-opacity="0.1" strokeWidth="0.747244"/>
<mask id="path-68-inside-1_9410_38522" fill="white">
<path d="M-1028.02 -39.7832H287.976V51.2168H-1028.02V-39.7832Z"/>
</mask>
<path d="M-1028.02 -39.7832H287.976V51.2168H-1028.02V-39.7832Z" fill="white"/>
<path d="M287.976 51.2168V50.2168H-1028.02V51.2168V52.2168H287.976V51.2168Z" fill="black" fill-opacity="0.1" mask="url(#path-68-inside-1_9410_38522)"/>
</g>
</g>
</g>
<defs>
<filter id="filter0_d_9410_38522" x="6.90869" y="21.3718" width="219.25" height="111.647" filterUnits="userSpaceOnUse" color-interpolation-filters="sRGB">
<feFlood flood-opacity="0" result="BackgroundImageFix"/>
<feColorMatrix in="SourceAlpha" type="matrix" values="0 0 0 0 0 0 0 0 0 0 0 0 0 0 0 0 0 0 127 0" result="hardAlpha"/>
<feOffset/>
<feGaussianBlur stdDeviation="4"/>
<feComposite in2="hardAlpha" operator="out"/>
<feColorMatrix type="matrix" values="0 0 0 0 0 0 0 0 0 0 0 0 0 0 0 0 0 0 0.15 0"/>
<feBlend mode="normal" in2="BackgroundImageFix" result="effect1_dropShadow_9410_38522"/>
<feBlend mode="normal" in="SourceGraphic" in2="effect1_dropShadow_9410_38522" result="shape"/>
</filter>
<clipPath id="clip0_9410_38522">
<rect x="0.0336914" y="0.704102" width="233" height="152.983" rx="3.50586" fill="white"/>
</clipPath>
<clipPath id="clip1_9410_38522">
<rect width="395.255" height="238.587" fill="white" transform="translate(-76.3618 -3.41626)"/>
</clipPath>
<clipPath id="clip2_9410_38522">
<rect x="14.9087" y="29.3718" width="203.25" height="95.6472" rx="3" fill="white"/>
</clipPath>
<clipPath id="clip3_9410_38522">
<rect x="-750.966" y="55.957" width="956.472" height="557.444" rx="7.47244" fill="white"/>
</clipPath>
</defs>
</svg>
